<?xml version="1.0" encoding="utf-8"?>
<!-- Generator: Adobe Illustrator 27.5.0, SVG Export Plug-In . SVG Version: 6.00 Build 0)  -->
<svg version="1.1" xmlns="http://www.w3.org/2000/svg" xmlns:xlink="http://www.w3.org/1999/xlink" x="0px" y="0px"
	 viewBox="0 0 499.999 500" style="enable-background:new 0 0 499.999 500;" xml:space="preserve">
<g id="BACKGROUND">
	<path style="fill:#F0F0FF;" d="M47.748,377.12c-10.778-11.455-19.066-25.851-24.032-43.415
		c-12.105-42.813-10.588-95.11,16.782-131.927c17.006-22.876,42.13-38.617,69.792-45.02c28.768-6.659,35.977-32.135,54.519-52.174
		c15.639-16.902,37.32-30.306,58.694-38.5c57.439-22.02,143.64-9.331,176.925,48.443c8.722,15.139,11.618,33.749,21.849,48.016
		c10.946,15.264,28.891,22.839,39.946,37.806c11.173,15.127,17.648,33.477,20.074,52.032c3.15,24.093-0.175,48.633-6.027,72.215
		c-28.213,113.687-182.26,81.511-269.56,85.365c-26.004,1.148-52.051,4.026-77.999,1.968
		C98.673,409.547,68.813,399.509,47.748,377.12z"/>
</g>
<g id="OBJECTS">
	<ellipse style="fill:#E0DEFF;" cx="249.93" cy="403.568" rx="213.747" ry="22.24"/>
	<g>
		<path style="fill:#C3B7FC;" d="M283.76,273.854c0.882,3.554,0.521,7.287,0.023,10.925c-0.77,5.665-1.866,11.336-4.058,16.624
			c-2.723,6.564-7.278,12.825-13.004,17.099c-1.537,1.149-3.067,1.937-4.617,2.484c-1.286,0.455-2.577,0.74-3.906,0.93
			c-2.785,0.398-5.709,0.365-8.925,0.541c-15.224,0.826-29.836-1.686-42.894-10.018c-4.035-2.571-7.88-5.694-10.209-9.879
			c-1.277-2.289-2.021-4.954-2.018-7.566c-0.006-1.364,0.198-2.715,0.63-3.991c0.244-0.742,0.572-1.452,0.983-2.133
			c3.353-5.547,10.747-6.929,17.227-6.904c-8.405-1.377-16.307-5.666-22.036-11.971c-3.244-3.57-5.877-8.14-5.853-12.894
			c0.003-0.524,0.04-1.044,0.107-1.573c0.11-0.829,0.34-1.64,0.67-2.417c1.753-4.214,6.374-7.371,10.655-5.918
			c-3.914-5.065-7.835-10.128-11.756-15.191c-2.766-3.585-5.588-7.242-7.103-11.517c-1.266-3.577-1.492-7.71,0.006-11.138
			c0.285-0.665,0.639-1.294,1.059-1.896c0.343-0.486,0.736-0.941,1.172-1.343c2.873-2.717,7.548-3.649,10.738-1.338
			c-2.768-6.719-5.565-13.551-6.321-20.778c-0.748-7.23,0.805-15.037,5.796-20.326c1.25-1.327,2.749-2.44,4.382-3.292
			c1.176-0.616,2.428-1.101,3.712-1.432c4.001-1.043,8.3-0.602,11.669,1.783c4.096,2.912,6.076,7.92,7.749,12.659
			c2.334,6.613,4.497,13.281,6.487,19.996c-0.787-5.114,4.617-9.702,9.774-9.316c0.787,0.057,1.555,0.203,2.296,0.423
			c1.358,0.405,2.635,1.066,3.791,1.913c2.361,1.719,4.257,4.202,5.449,6.886c2.097,4.734,2.424,10.021,2.728,15.184
			c0.368,6.329,0.737,12.658,1.105,18.988c0.324-4.687,5.851-7.8,10.417-6.684c0.241,0.062,0.484,0.131,0.722,0.21
			c1.387,0.445,2.641,1.187,3.754,2.13c2.234,1.907,3.861,4.648,4.701,7.512c1.328,4.507,1.05,9.309,0.757,13.994
			c-0.517,8.357-1.034,16.715-1.551,25.072c0.857-2.829,3.93-4.465,6.91-4.36c0.717,0.015,1.42,0.14,2.092,0.374
			c0.582,0.205,1.133,0.47,1.66,0.783C281.28,268.058,283.027,270.891,283.76,273.854z"/>
		<path style="fill:#DFDBFC;" d="M252.96,304.226c2.897,5.671,5.924,11.283,9.143,16.76c-1.286,0.455-2.577,0.74-3.906,0.93
			c-0.789-1.358-1.571-2.718-2.332-4.093c-2.37-4.261-4.673-8.568-6.922-12.909c-18.817,1.05-37.626-2.37-54.792-9.919
			c-0.006-1.364,0.198-2.715,0.63-3.991c16.354,7.361,34.203,10.828,52.207,10.097c-4.98-9.828-9.663-19.825-14.109-29.923
			c-16.772-1.416-33.02-6.16-47.777-14.076c0.003-0.524,0.04-1.044,0.107-1.573c0.11-0.829,0.34-1.64,0.67-2.417
			c13.967,7.647,29.336,12.46,45.24,14.025c-4.629-10.693-9.006-21.492-13.205-32.3c-0.12-0.297-0.233-0.596-0.346-0.895
			c-15.509-4.204-28.433-13.643-39.887-24.594c0.285-0.665,0.639-1.294,1.059-1.896c0.343-0.486,0.736-0.941,1.172-1.343
			c10.395,10.024,22.053,18.863,35.898,23.26c-4.847-12.718-9.398-25.556-13.545-38.516c-3.203-9.999-6.027-20.144-7.758-30.478
			c1.176-0.616,2.428-1.101,3.712-1.432c2.042,12.623,5.788,24.918,9.831,37.068c3.804,11.41,7.87,22.743,12.173,33.975
			c3.961-2.691,6.103-6.891,7.797-11.339c1.922-5.062,3.515-10.304,4.928-15.521c1.664-6.141,2.884-12.368,3.246-18.637
			c1.358,0.405,2.635,1.066,3.791,1.913c-0.565,6.785-2.048,13.514-3.949,20.091c-2.715,9.384-5.333,21.813-14.377,27.196
			c4.677,12.036,9.63,23.967,14.879,35.771c14.098-12.279,22.591-30.021,23.867-48.474c1.387,0.445,2.641,1.187,3.754,2.13
			c-1.811,19.182-11.132,37.377-25.97,50.026c1.182,2.631,2.37,5.251,3.579,7.865c3.038,6.566,6.143,13.16,9.404,19.679
			c11.383-9.122,20.902-21.237,23.804-35.353c0.717,0.015,1.42,0.14,2.092,0.374c0.582,0.205,1.133,0.47,1.66,0.783
			C275.485,281.575,265.204,294.524,252.96,304.226z"/>
	</g>
	<g>
		<g>
			<path style="fill:#E08675;" d="M371.076,301.738c-0.811,3.267-0.479,6.699-0.021,10.043c0.708,5.208,1.715,10.422,3.731,15.283
				c2.503,6.034,6.69,11.79,11.955,15.719c1.413,1.056,2.819,1.78,4.245,2.284c1.182,0.418,2.369,0.68,3.591,0.855
				c2.56,0.366,5.248,0.336,8.205,0.498c13.995,0.759,27.429-1.55,39.433-9.21c3.71-2.363,7.244-5.235,9.385-9.082
				c1.174-2.104,1.858-4.555,1.855-6.955c0.005-1.255-0.182-2.496-0.579-3.669c-0.225-0.681-0.526-1.335-0.903-1.96
				c-3.082-5.099-9.88-6.37-15.837-6.347c7.727-1.266,14.991-5.208,20.257-11.005c2.982-3.282,5.403-7.483,5.381-11.853
				c-0.003-0.482-0.037-0.96-0.099-1.446c-0.101-0.762-0.312-1.507-0.616-2.222c-1.611-3.874-5.86-6.776-9.795-5.44
				c3.598-4.656,7.202-9.311,10.807-13.965c2.543-3.296,5.137-6.658,6.53-10.588c1.164-3.288,1.372-7.088-0.006-10.24
				c-0.262-0.611-0.587-1.189-0.974-1.742c-0.315-0.447-0.677-0.865-1.077-1.234c-2.641-2.498-6.939-3.355-9.872-1.23
				c2.545-6.177,5.116-12.457,5.811-19.102c0.688-6.646-0.74-13.824-5.328-18.686c-1.149-1.22-2.527-2.243-4.028-3.027
				c-1.081-0.566-2.232-1.012-3.413-1.317c-3.678-0.959-7.63-0.553-10.728,1.639c-3.766,2.677-5.586,7.281-7.124,11.638
				c-2.145,6.079-4.134,12.209-5.963,18.383c0.724-4.702-4.245-8.919-8.985-8.564c-0.724,0.053-1.429,0.187-2.111,0.389
				c-1.248,0.373-2.422,0.98-3.485,1.759c-2.171,1.58-3.914,3.862-5.009,6.331c-1.928,4.352-2.229,9.212-2.508,13.959
				c-0.339,5.818-0.677,11.637-1.016,17.456c-0.298-4.308-5.379-7.171-9.576-6.145c-0.221,0.057-0.445,0.12-0.664,0.193
				c-1.275,0.409-2.428,1.092-3.451,1.958c-2.054,1.753-3.55,4.274-4.322,6.906c-1.221,4.143-0.965,8.558-0.696,12.865
				c0.475,7.683,0.951,15.366,1.426,23.049c-0.788-2.601-3.613-4.105-6.352-4.008c-0.659,0.014-1.305,0.129-1.923,0.344
				c-0.535,0.189-1.042,0.432-1.526,0.72C373.355,296.409,371.749,299.014,371.076,301.738z"/>
			<path style="fill:#D7594A;" d="M399.39,329.659c-2.664,5.213-5.446,10.373-8.405,15.408c1.182,0.418,2.369,0.68,3.591,0.855
				c0.725-1.249,1.444-2.499,2.144-3.763c2.179-3.917,4.296-7.877,6.363-11.868c17.299,0.965,34.589-2.179,50.371-9.119
				c0.005-1.255-0.182-2.496-0.579-3.669c-15.034,6.767-31.443,9.954-47.994,9.282c4.578-9.034,8.884-18.225,12.971-27.508
				c15.419-1.302,30.355-5.663,43.921-12.94c-0.003-0.482-0.037-0.96-0.099-1.446c-0.101-0.762-0.312-1.507-0.616-2.222
				c-12.84,7.03-26.969,11.455-41.589,12.894c4.255-9.83,8.279-19.758,12.14-29.694c0.11-0.273,0.214-0.548,0.318-0.823
				c14.258-3.865,26.138-12.542,36.668-22.61c-0.262-0.611-0.587-1.189-0.974-1.742c-0.315-0.447-0.677-0.865-1.077-1.234
				c-9.556,9.215-20.274,17.341-33.001,21.383c4.456-11.692,8.639-23.494,12.452-35.408c2.944-9.192,5.541-18.519,7.132-28.018
				c-1.081-0.566-2.232-1.012-3.413-1.317c-1.878,11.604-5.321,22.907-9.037,34.077c-3.497,10.489-7.235,20.907-11.191,31.233
				c-3.642-2.474-5.611-6.335-7.168-10.424c-1.767-4.653-3.231-9.473-4.531-14.269c-1.53-5.645-2.651-11.37-2.984-17.134
				c-1.248,0.373-2.422,0.98-3.485,1.759c0.52,6.238,1.883,12.424,3.63,18.47c2.496,8.627,4.903,20.053,13.216,25.001
				c-4.299,11.065-8.853,22.033-13.678,32.884c-12.96-11.288-20.768-27.598-21.941-44.562c-1.275,0.409-2.428,1.092-3.451,1.958
				c1.665,17.634,10.233,34.361,23.874,45.989c-1.087,2.418-2.179,4.827-3.291,7.23c-2.793,6.036-5.647,12.098-8.645,18.091
				c-10.464-8.386-19.215-19.523-21.883-32.5c-0.659,0.014-1.305,0.129-1.923,0.344c-0.535,0.189-1.042,0.432-1.526,0.72
				C378.682,308.836,388.134,320.74,399.39,329.659z"/>
		</g>
		<g>
			<path style="fill:#ECBF4C;" d="M473.732,306.622c-3.086,1.613-5.675,4.179-8.229,6.516c-2.633,2.409-5.201,4.889-7.706,7.43
				c-5.014,5.086-9.761,10.429-14.3,15.942c-9.105,11.061-17.372,22.782-25.216,34.762c-4.409,6.734-8.687,13.553-12.921,20.399
				c-0.813,1.315,1.258,2.536,2.07,1.22c14.845-24.062,30.358-47.932,49.875-68.526c2.749-2.901,5.575-5.729,8.483-8.47
				c2.884-2.718,6.205-5.187,8.674-8.292C474.876,307.084,474.397,306.275,473.732,306.622z"/>
			<path style="fill:#ECBF4C;" d="M484.662,300.413c-1.443-2.095-4.981-1.637-7.17-1.183c-5.165,1.071-9.671,4.565-13.358,8.4
				c-2.704,2.814-5.126,5.914-7.268,9.193c-2.117,3.239-4.13,6.79-5.029,10.578c-0.116,0.49,0.274,0.752,0.647,0.688
				c0.255,0.222,0.607,0.334,1.025,0.227c5.746-1.482,11.288-3.917,16.36-7.192c2.55-1.646,4.965-3.51,7.242-5.547
				c2.37-2.12,4.733-4.432,6.4-7.192C484.829,306.202,486.24,302.704,484.662,300.413z"/>
			<path style="fill:#ECBF4C;" d="M448.396,328.566c1.062-3.143,2.019-6.309,2.802-9.503c0.773-3.15,1.389-6.328,1.8-9.494
				c0.359-2.769,0.483-5.708-0.861-7.896c-1.254-2.04-3.514-2.827-5.941-1.897c-2.588,0.992-4.549,3.475-5.955,6.015
				c-2.886,5.21-3.755,11.137-3.403,16.607c0.197,3.061,0.775,6.047,1.806,8.76c0.506,1.334,1.122,2.583,1.876,3.738
				c0.657,1.007,1.372,1.783,2.22,2.511c0.114,0.163,0.266,0.29,0.441,0.365c0.043,0.034,0.084,0.069,0.127,0.103
				c0.166,0.131,0.347,0.073,0.48-0.064c0.205-0.058,0.416-0.187,0.615-0.41C446.539,335.017,447.403,331.505,448.396,328.566z"/>
			<path style="fill:#ECBF4C;" d="M434.934,342.387c-0.019-3.221-0.143-6.43-0.434-9.609c-0.287-3.135-0.727-6.248-1.352-9.284
				c-0.547-2.655-1.363-5.393-3.289-6.975c-1.796-1.476-4.12-1.483-6.054,0.139c-2.061,1.729-3.076,4.629-3.563,7.406
				c-1,5.695,0.077,11.411,2.131,16.321c1.149,2.747,2.625,5.305,4.429,7.469c0.887,1.064,1.848,2.016,2.905,2.837
				c0.921,0.716,1.823,1.203,2.832,1.603c0.156,0.114,0.336,0.182,0.521,0.196c0.05,0.018,0.098,0.037,0.149,0.054
				c0.194,0.067,0.341-0.043,0.42-0.211c0.17-0.118,0.322-0.303,0.435-0.571C435.271,348.896,434.953,345.399,434.934,342.387z"/>
			<path style="fill:#ECBF4C;" d="M422.838,358.649c-0.351-3.202-0.804-6.381-1.421-9.514c-0.608-3.089-1.366-6.14-2.301-9.096
				c-0.817-2.585-1.911-5.224-3.989-6.6c-1.939-1.283-4.251-1.051-6.007,0.761c-1.873,1.932-2.583,4.921-2.782,7.733
				c-0.409,5.768,1.251,11.343,3.799,16.015c1.426,2.614,3.157,5.007,5.175,6.974c0.991,0.967,2.045,1.815,3.181,2.523
				c0.99,0.617,1.937,1.009,2.983,1.303c0.167,0.097,0.353,0.147,0.538,0.141c0.052,0.013,0.102,0.026,0.154,0.038
				c0.2,0.047,0.335-0.078,0.397-0.253c0.157-0.135,0.289-0.335,0.374-0.613C423.843,365.089,423.166,361.643,422.838,358.649z"/>
			<path style="fill:#ECBF4C;" d="M411.252,374.616c-0.535-3.144-1.173-6.26-1.975-9.322c-0.791-3.019-1.731-5.993-2.845-8.864
				c-0.974-2.51-2.233-5.06-4.421-6.31c-2.042-1.167-4.378-0.818-6.061,1.063c-1.795,2.005-2.349,4.993-2.395,7.781
				c-0.093,5.717,1.904,11.137,4.754,15.618c1.595,2.508,3.487,4.781,5.647,6.619c1.061,0.904,2.179,1.686,3.373,2.327
				c1.041,0.558,2.025,0.896,3.103,1.132c0.175,0.087,0.367,0.126,0.554,0.112c0.053,0.01,0.105,0.021,0.159,0.03
				c0.206,0.036,0.336-0.094,0.389-0.271c0.152-0.141,0.275-0.346,0.346-0.625C412.632,380.923,411.752,377.556,411.252,374.616z"/>
			<path style="fill:#ECBF4C;" d="M420.261,381.024c3.17-0.354,6.34-0.602,9.504-0.677c3.12-0.074,6.237,0.008,9.304,0.286
				c2.682,0.243,5.48,0.748,7.287,2.506c1.686,1.64,1.995,3.982,0.653,6.119c-1.431,2.279-4.15,3.637-6.816,4.451
				c-5.469,1.669-11.229,1.246-16.324-0.255c-2.851-0.84-5.558-2.031-7.921-3.599c-1.162-0.771-2.223-1.629-3.169-2.599
				c-0.824-0.846-1.42-1.699-1.945-2.669c-0.132-0.144-0.223-0.318-0.26-0.502c-0.024-0.048-0.049-0.095-0.073-0.144
				c-0.092-0.188-0.002-0.349,0.153-0.448c0.094-0.185,0.256-0.36,0.505-0.505C413.818,381.44,417.298,381.355,420.261,381.024z"/>
			<path style="fill:#ECBF4C;" d="M431.365,364.845c3.207-0.385,6.417-0.659,9.624-0.755c3.163-0.094,6.327-0.026,9.444,0.246
				c2.726,0.238,5.576,0.746,7.45,2.56c1.748,1.692,2.118,4.121,0.807,6.346c-1.398,2.372-4.123,3.797-6.809,4.656
				c-5.508,1.762-11.361,1.355-16.564-0.174c-2.911-0.856-5.686-2.077-8.12-3.69c-1.197-0.793-2.293-1.678-3.276-2.68
				c-0.856-0.873-1.481-1.755-2.036-2.759c-0.137-0.149-0.234-0.329-0.276-0.519c-0.026-0.05-0.052-0.098-0.077-0.149
				c-0.097-0.194-0.011-0.362,0.144-0.466c0.091-0.193,0.251-0.375,0.5-0.527C424.839,365.312,428.367,365.205,431.365,364.845z"/>
			<path style="fill:#ECBF4C;" d="M483.081,335.004c0.208-2.417-1.059-4.881-3.623-6.494c-4.512-2.838-10.73-1.613-15.618-0.54
				c-5.458,1.198-10.719,3.301-15.483,6.222c-1.16,0.711-2.309,1.389-3.514,2.014c-0.365,0.189-0.764-0.068-1.077,0.325
				c-2.159,2.723,8.596,5.813,10.46,6.34c5.43,1.538,11.411,2.337,16.948,1.135C475.928,342.974,482.586,340.768,483.081,335.004z"
				/>
			<path style="fill:#ECBF4C;" d="M470.14,357.162c0.679-2.235-0.023-4.827-2.119-6.89c-3.689-3.631-9.8-3.791-14.626-3.813
				c-5.388-0.025-10.772,0.845-15.851,2.592c-1.236,0.425-2.457,0.822-3.718,1.156c-0.382,0.101-0.708-0.226-1.081,0.078
				c-2.581,2.111,6.948,7.3,8.6,8.191c4.816,2.599,10.298,4.617,15.762,4.656C461.798,363.165,468.52,362.493,470.14,357.162z"/>
		</g>
	</g>
	<g>
		
			<rect x="248.181" y="170.371" transform="matrix(0.6892 -0.7246 0.7246 0.6892 -58.4501 299.5095)" style="fill:#ECBF4C;" width="143.448" height="95.034"/>
		<polygon style="fill:#E5B340;" points="304.902,302.606 315.358,213.563 403.767,198.669 		"/>
		<path style="fill:#DFA331;" d="M236.043,237.108l85.983-9.14c4.396-0.467,7.805-4.051,8.052-8.465l4.831-86.332L236.043,237.108z"
			/>
	</g>
	<g>
		<g>
			<path style="fill:#C3B7FC;" d="M413.324,394.994h-83.999c-1.7,0-3.078-1.378-3.078-3.078V254.285c0-1.7,1.378-3.078,3.078-3.078
				h83.999c1.7,0,3.078,1.378,3.078,3.078v137.631C416.402,393.616,415.024,394.994,413.324,394.994z"/>
			<rect x="331.841" y="258.154" style="fill:#363271;" width="78.968" height="116.44"/>
			<polygon style="opacity:0.08;fill:#FFFFFF;" points="410.809,374.595 331.841,374.595 331.841,258.154 			"/>
			<path style="fill:#363271;" d="M379.057,384.63c0,4.27-3.462,7.732-7.732,7.732c-4.27,0-7.732-3.462-7.732-7.732
				c0-4.271,3.462-7.732,7.732-7.732C375.595,376.898,379.057,380.359,379.057,384.63z"/>
		</g>
		<g>
			<path style="fill:#FFFFFF;" d="M401.064,209.782c-22.393,0-40.546,13.615-40.546,30.41c0,8.94,5.144,16.978,13.332,22.542
				c0.159,2.531,0.532,5.108,0.631,6.327c0.275,3.389,0.794,6.758,1.555,10.073c0.245,1.068,1.66,1.294,2.227,0.356
				c2.322-3.838,4.863-7.543,7.596-11.101c4.696,1.426,9.828,2.213,15.206,2.213c22.393,0,40.546-13.615,40.546-30.41
				C441.61,223.397,423.457,209.782,401.064,209.782z"/>
			<g>
				<path style="fill:#C3B7FC;" d="M388.259,239.658c0,3.732-3.026,6.758-6.758,6.758c-3.732,0-6.758-3.026-6.758-6.758
					c0-3.732,3.025-6.758,6.758-6.758C385.234,232.901,388.259,235.926,388.259,239.658z"/>
				<path style="fill:#C3B7FC;" d="M409.6,239.658c0,3.732-3.026,6.758-6.758,6.758c-3.732,0-6.758-3.026-6.758-6.758
					c0-3.732,3.026-6.758,6.758-6.758C406.574,232.901,409.6,235.926,409.6,239.658z"/>
				<path style="fill:#C3B7FC;" d="M430.94,239.658c0,3.732-3.025,6.758-6.758,6.758c-3.732,0-6.758-3.026-6.758-6.758
					c0-3.732,3.026-6.758,6.758-6.758C427.914,232.901,430.94,235.926,430.94,239.658z"/>
			</g>
		</g>
	</g>
	<g>
		<g>
			<g>
				<path style="fill:#DD6E5C;" d="M369.36,330.475c-0.48,1-0.98,2-1.49,3c-2.64,5.12-8.93,7.12-14.04,4.46L326,323.455l-0.3-0.16
					c-5.21-2.71-7.13-9.21-4.23-14.33l1.31-2.32l2.04-3.6c0.56-0.99,0.94-2.08,1.08-3.21c0.53-4.21-0.08-13.59-15.78-14.44h-76.85
					c-14.81,0.8-16.19,9.19-15.86,13.68c0.12,1.5,0.58,2.95,1.32,4.25l2,3.54l1.2,2.1c2.89,5.12,0.97,11.62-4.24,14.33l-0.13,0.07
					l-28,14.57c-5.1,2.66-11.4,0.66-14.03-4.46c-0.48-0.93-0.94-1.85-1.39-2.77c-5.39-11.11-8.37-21.79-3.81-34.28
					c2.93-7.98,9.23-14.29,17.17-17.32c30.31-11.57,59.11-15.18,84.2-14.79c25.08-0.39,53.88,3.22,84.19,14.79
					c7.95,3.03,14.24,9.34,17.17,17.32C377.59,308.825,374.69,319.455,369.36,330.475z"/>
				<path style="fill:#E08675;" d="M217.688,323.298l-28.126,14.639c-5.105,2.657-11.401,0.659-14.036-4.463
					c-0.477-0.928-0.939-1.85-1.383-2.772l46.592-23.84l1.191,2.102C224.824,314.082,222.903,320.586,217.688,323.298z"/>
				<path style="fill:#E08675;" d="M369.359,330.478c-0.478,0.993-0.977,1.992-1.493,2.997c-2.635,5.121-8.931,7.119-14.036,4.463
					l-28.126-14.639c-5.215-2.712-7.136-9.216-4.238-14.332l1.317-2.322L369.359,330.478z"/>
			</g>
			<path style="opacity:0.3;fill:#C1463D;" d="M332.94,302.285c-0.94,4.4-3.84,8.09-5.7,12.19c-1.25,2.77-1.92,6.12-1.24,8.98
				l-0.3-0.16c-5.21-2.71-7.13-9.21-4.23-14.33l1.31-2.32l2.04-3.6c0.56-0.99,0.94-2.08,1.08-3.21c0.53-4.21-0.08-13.59-15.78-14.44
				h-76.85c-14.81,0.8-16.19,9.19-15.86,13.68c0.12,1.5,0.58,2.95,1.32,4.25l2,3.54l1.2,2.1c2.89,5.12,0.97,11.62-4.24,14.33
				l-0.13,0.07c0.36-0.7,0.61-1.46,0.73-2.28c0.51-3.29-1.18-6.48-2.74-9.43c-3.51-6.66-6.64-14.58-3.68-21.5
				c2.34-5.46,8.02-8.83,13.78-10.31c5.44-1.4,11.12-1.45,16.74-1.49c17.57-0.14,35.15-0.27,52.72-0.4
				c8.67-0.06,17.67-0.05,25.51,3.64C328.47,285.285,334.76,293.805,332.94,302.285z"/>
		</g>
		<g>
			<path style="fill:#C64B42;" d="M350.191,367.955v23.773c0,2.07-1.674,3.744-3.743,3.744H196.396
				c-2.069,0-3.744-1.674-3.744-3.744v-23.773c0-1.29,0.67-2.486,1.767-3.167c31.81-19.728,38.979-74.263,40.28-87.634
				c0.165-1.696,1.586-2.992,3.288-2.992h7.69c3.892,0,7.048,3.156,7.048,7.048v6.774c0,2.07,1.674,3.744,3.738,3.744h29.916
				c2.064,0,3.738-1.674,3.738-3.744v-6.774c0-3.892,3.156-7.048,7.048-7.048h7.691c1.701,0,3.123,1.295,3.288,2.992
				c1.301,13.372,8.47,67.906,40.28,87.634C349.521,365.469,350.191,366.665,350.191,367.955z"/>
			<circle style="fill:#FFFFFF;" cx="270.598" cy="336.738" r="33.484"/>
			<g>
				<path style="fill:#E4E4E4;" d="M283.77,336.735c0,4.84-2.6,9.06-6.48,11.35c-1.96,1.16-4.25,1.83-6.69,1.83
					c-7.28,0-13.18-5.9-13.18-13.18c0-5.28,3.11-9.84,7.6-11.93c1.69-0.8,3.59-1.24,5.58-1.24
					C277.87,323.565,283.77,329.465,283.77,336.735z"/>
				<g>
					<path style="fill:#E4E4E4;" d="M254.131,336.464c0,3.486-2.826,6.312-6.313,6.312c-3.486,0-6.313-2.826-6.313-6.312
						c0-3.486,2.826-6.313,6.313-6.313C251.304,330.151,254.131,332.978,254.131,336.464z"/>
					<path style="fill:#E4E4E4;" d="M299.691,336.464c0,3.486-2.826,6.312-6.313,6.312c-3.486,0-6.313-2.826-6.313-6.312
						c0-3.486,2.826-6.313,6.313-6.313C296.864,330.151,299.691,332.978,299.691,336.464z"/>
				</g>
				<g>
					<path style="fill:#E4E4E4;" d="M270.598,352.931c3.486,0,6.313,2.826,6.313,6.313c0,3.486-2.826,6.313-6.313,6.313
						c-3.486,0-6.313-2.826-6.313-6.313C264.286,355.758,267.112,352.931,270.598,352.931z"/>
					<path style="fill:#E4E4E4;" d="M270.598,307.371c3.486,0,6.313,2.826,6.313,6.313c0,3.486-2.826,6.313-6.313,6.313
						c-3.486,0-6.313-2.826-6.313-6.313C264.286,310.198,267.112,307.371,270.598,307.371z"/>
				</g>
				<g>
					<path style="fill:#E4E4E4;" d="M282.242,348.108c2.465-2.465,6.462-2.465,8.927,0c2.465,2.465,2.465,6.462,0,8.927
						c-2.465,2.465-6.462,2.465-8.927,0C279.777,354.57,279.777,350.573,282.242,348.108z"/>
					<path style="fill:#E4E4E4;" d="M250.027,315.892c2.465-2.465,6.462-2.465,8.927,0c2.465,2.465,2.465,6.462,0,8.927
						c-2.465,2.465-6.462,2.465-8.927,0C247.561,322.354,247.561,318.358,250.027,315.892z"/>
				</g>
				<g>
					<path style="fill:#E4E4E4;" d="M282.242,324.819c-2.465-2.465-2.465-6.462,0-8.927c2.465-2.465,6.462-2.465,8.927,0
						c2.465,2.465,2.465,6.462,0,8.927C288.704,327.285,284.708,327.285,282.242,324.819z"/>
					<path style="fill:#E4E4E4;" d="M250.027,357.035c-2.465-2.465-2.465-6.462,0-8.927c2.465-2.465,6.462-2.465,8.927,0
						c2.465,2.465,2.465,6.462,0,8.927C256.489,359.5,252.492,359.5,250.027,357.035z"/>
				</g>
			</g>
			<path style="fill:#DD6E5C;" d="M350.191,380.651v11.077c0,2.07-1.674,3.744-3.743,3.744H196.396
				c-2.069,0-3.744-1.674-3.744-3.744v-11.077H350.191z"/>
			<path style="opacity:0.41;fill:#FFFFFF;" d="M277.29,348.085c-1.96,1.16-4.25,1.83-6.69,1.83c-7.28,0-13.18-5.9-13.18-13.18
				c0-5.28,3.11-9.84,7.6-11.93L277.29,348.085z"/>
		</g>
	</g>
	<g>
		<path style="fill:#FFFFFF;" d="M141.639,205.024c14.605,0,26.444,8.88,26.444,19.833c0,5.83-3.355,11.073-8.695,14.702
			c-0.104,1.651-0.347,3.332-0.411,4.126c-0.179,2.21-0.518,4.408-1.014,6.57c-0.16,0.696-1.082,0.844-1.452,0.232
			c-1.514-2.503-3.172-4.92-4.954-7.24c-3.063,0.93-6.41,1.443-9.917,1.443c-14.605,0-26.444-8.88-26.444-19.833
			C115.195,213.903,127.034,205.024,141.639,205.024z"/>
		<g>
			<path style="fill:#C3B7FC;" d="M149.99,224.509c0,2.434,1.973,4.407,4.407,4.407c2.434,0,4.407-1.973,4.407-4.407
				c0-2.434-1.973-4.408-4.407-4.408C151.963,220.102,149.99,222.075,149.99,224.509z"/>
			<path style="fill:#C3B7FC;" d="M136.072,224.509c0,2.434,1.973,4.407,4.407,4.407c2.434,0,4.408-1.973,4.408-4.407
				c0-2.434-1.973-4.408-4.408-4.408C138.045,220.102,136.072,222.075,136.072,224.509z"/>
			<path style="fill:#C3B7FC;" d="M122.154,224.509c0,2.434,1.973,4.407,4.407,4.407s4.407-1.973,4.407-4.407
				c0-2.434-1.973-4.408-4.407-4.408S122.154,222.075,122.154,224.509z"/>
		</g>
	</g>
	<g>
		<g>
			<path style="fill:#E08675;" d="M42.234,298.374c3.46,1.808,6.363,4.685,9.226,7.305c2.952,2.701,5.831,5.482,8.64,8.331
				c5.622,5.702,10.944,11.693,16.033,17.875c10.209,12.401,19.478,25.544,28.273,38.975c4.944,7.551,9.74,15.196,14.487,22.872
				c0.912,1.475-1.41,2.844-2.321,1.368c-16.644-26.979-34.038-53.742-55.92-76.832c-3.082-3.253-6.251-6.423-9.512-9.497
				c-3.233-3.047-6.957-5.816-9.725-9.297C40.951,298.891,41.488,297.984,42.234,298.374z"/>
			<path style="fill:#E08675;" d="M29.978,291.412c1.618-2.349,5.585-1.835,8.04-1.326c5.792,1.201,10.843,5.118,14.977,9.418
				c3.032,3.155,5.747,6.631,8.149,10.307c2.374,3.631,4.63,7.613,5.638,11.86c0.13,0.549-0.307,0.843-0.725,0.771
				c-0.286,0.249-0.68,0.375-1.149,0.254c-6.443-1.662-12.656-4.392-18.343-8.064c-2.859-1.846-5.567-3.935-8.12-6.22
				c-2.657-2.377-5.306-4.969-7.176-8.064C29.792,297.902,28.21,293.98,29.978,291.412z"/>
			<path style="fill:#E08675;" d="M70.641,322.977c-1.191-3.524-2.264-7.074-3.142-10.654c-0.867-3.531-1.558-7.095-2.018-10.645
				c-0.402-3.104-0.541-6.4,0.966-8.853c1.406-2.288,3.94-3.169,6.661-2.127c2.902,1.112,5.1,3.896,6.677,6.744
				c3.236,5.841,4.21,12.487,3.816,18.62c-0.221,3.432-0.869,6.78-2.024,9.822c-0.568,1.495-1.259,2.896-2.104,4.191
				c-0.737,1.129-1.538,1.999-2.489,2.816c-0.128,0.183-0.299,0.326-0.494,0.41c-0.048,0.038-0.094,0.077-0.142,0.115
				c-0.187,0.146-0.389,0.082-0.539-0.072c-0.23-0.065-0.466-0.21-0.69-0.46C72.723,330.21,71.754,326.272,70.641,322.977z"/>
			<path style="fill:#E08675;" d="M85.734,338.473c0.022-3.612,0.16-7.209,0.487-10.774c0.322-3.516,0.815-7.005,1.516-10.41
				c0.613-2.977,1.528-6.046,3.687-7.821c2.014-1.655,4.62-1.662,6.788,0.156c2.312,1.939,3.448,5.19,3.995,8.303
				c1.122,6.386-0.086,12.795-2.389,18.299c-1.288,3.08-2.943,5.948-4.966,8.375c-0.994,1.193-2.072,2.26-3.257,3.181
				c-1.033,0.803-2.044,1.349-3.176,1.797c-0.175,0.127-0.377,0.204-0.583,0.219c-0.056,0.02-0.111,0.041-0.167,0.061
				c-0.218,0.076-0.383-0.048-0.471-0.237c-0.191-0.132-0.361-0.34-0.488-0.641C85.356,345.771,85.714,341.85,85.734,338.473z"/>
			<path style="fill:#E08675;" d="M99.297,356.706c0.394-3.591,0.902-7.154,1.593-10.667c0.682-3.464,1.532-6.884,2.579-10.199
				c0.916-2.898,2.143-5.857,4.473-7.399c2.174-1.439,4.767-1.178,6.736,0.854c2.1,2.167,2.896,5.517,3.119,8.671
				c0.458,6.467-1.403,12.718-4.26,17.956c-1.599,2.931-3.54,5.613-5.802,7.819c-1.112,1.084-2.293,2.035-3.567,2.829
				c-1.11,0.692-2.173,1.131-3.344,1.461c-0.187,0.109-0.396,0.164-0.603,0.158c-0.058,0.014-0.114,0.03-0.173,0.043
				c-0.224,0.053-0.376-0.087-0.445-0.284c-0.176-0.151-0.324-0.376-0.42-0.688C98.17,363.927,98.929,360.064,99.297,356.706z"/>
			<path style="fill:#E08675;" d="M112.287,374.608c0.6-3.525,1.315-7.018,2.214-10.451c0.886-3.385,1.94-6.719,3.19-9.938
				c1.092-2.814,2.503-5.673,4.957-7.076c2.289-1.309,4.909-0.917,6.796,1.192c2.012,2.248,2.634,5.599,2.685,8.724
				c0.105,6.41-2.135,12.487-5.33,17.512c-1.788,2.812-3.91,5.36-6.331,7.421c-1.19,1.013-2.444,1.891-3.782,2.609
				c-1.167,0.626-2.27,1.005-3.479,1.269c-0.196,0.098-0.412,0.142-0.621,0.125c-0.06,0.011-0.118,0.023-0.178,0.034
				c-0.231,0.04-0.377-0.106-0.436-0.303c-0.17-0.159-0.309-0.388-0.388-0.701C110.74,381.681,111.726,377.905,112.287,374.608z"/>
			<path style="fill:#E08675;" d="M102.186,381.794c-3.554-0.397-7.109-0.675-10.656-0.759c-3.498-0.083-6.994,0.009-10.432,0.321
				c-3.007,0.273-6.144,0.839-8.17,2.81c-1.89,1.838-2.237,4.464-0.732,6.86c1.605,2.555,4.653,4.078,7.643,4.991
				c6.132,1.871,12.59,1.397,18.303-0.285c3.197-0.942,6.232-2.277,8.882-4.035c1.302-0.864,2.492-1.826,3.552-2.914
				c0.924-0.948,1.593-1.904,2.181-2.993c0.148-0.162,0.25-0.357,0.292-0.563c0.027-0.054,0.055-0.107,0.081-0.162
				c0.103-0.211,0.002-0.391-0.171-0.503c-0.105-0.207-0.287-0.404-0.566-0.566C109.41,382.26,105.509,382.165,102.186,381.794z"/>
			<path style="fill:#E08675;" d="M89.736,363.653c-3.596-0.431-7.195-0.739-10.791-0.846c-3.547-0.106-7.094-0.03-10.589,0.275
				c-3.056,0.266-6.252,0.837-8.353,2.871c-1.96,1.897-2.375,4.62-0.905,7.115c1.567,2.66,4.623,4.258,7.634,5.221
				c6.175,1.976,12.738,1.519,18.572-0.196c3.264-0.959,6.375-2.328,9.104-4.138c1.341-0.889,2.571-1.881,3.672-3.004
				c0.96-0.979,1.66-1.967,2.283-3.094c0.154-0.167,0.262-0.369,0.309-0.582c0.029-0.056,0.058-0.11,0.087-0.167
				c0.109-0.218,0.012-0.406-0.162-0.522c-0.102-0.216-0.282-0.421-0.561-0.591C97.053,364.176,93.098,364.056,89.736,363.653z"/>
			<path style="fill:#E08675;" d="M31.752,330.195c-0.233-2.71,1.187-5.473,4.062-7.281c5.058-3.182,12.03-1.809,17.511-0.605
				c6.119,1.344,12.018,3.701,17.36,6.977c1.3,0.797,2.59,1.557,3.94,2.258c0.409,0.212,0.857-0.076,1.208,0.364
				c2.42,3.053-9.639,6.517-11.727,7.109c-6.089,1.724-12.794,2.62-19.003,1.273C39.771,339.132,32.307,336.658,31.752,330.195z"/>
			<path style="fill:#E08675;" d="M46.262,355.039c-0.762-2.506,0.026-5.411,2.376-7.725c4.136-4.071,10.988-4.25,16.399-4.275
				c6.041-0.027,12.078,0.948,17.772,2.906c1.386,0.477,2.754,0.921,4.169,1.296c0.428,0.113,0.793-0.253,1.212,0.088
				c2.894,2.367-7.79,8.184-9.643,9.184c-5.399,2.914-11.546,5.177-17.673,5.22C55.614,361.77,48.078,361.017,46.262,355.039z"/>
		</g>
		<g>
			<path style="fill:#DFA331;" d="M88.688,235.077c2.569,2.484,4.372,5.762,6.207,8.805c1.892,3.136,3.699,6.324,5.426,9.553
				c3.458,6.463,6.578,13.102,9.443,19.848c5.748,13.533,10.48,27.474,14.72,41.546c2.383,7.91,4.613,15.866,6.791,23.835
				c0.419,1.532-1.975,2.131-2.392,0.599c-7.62-28-15.954-56.004-29.181-81.947c-1.863-3.654-3.823-7.259-5.889-10.803
				c-2.049-3.513-4.6-6.909-6.129-10.682C87.428,235.199,88.134,234.542,88.688,235.077z"/>
			<path style="fill:#DFA331;" d="M79.733,225.789c2.029-1.643,5.379-0.164,7.402,0.919c4.773,2.556,8.193,7.303,10.708,12.15
				c1.844,3.555,3.327,7.311,4.483,11.161c1.143,3.803,2.091,7.884,1.876,11.874c-0.028,0.516-0.488,0.66-0.836,0.489
				c-0.315,0.145-0.695,0.153-1.075-0.075c-5.226-3.129-9.973-7.136-14.014-11.834c-2.032-2.362-3.867-4.898-5.517-7.565
				c-1.717-2.776-3.371-5.738-4.21-8.939C77.887,231.438,77.515,227.585,79.733,225.789z"/>
			<path style="fill:#DFA331;" d="M107.251,264.04c-0.132-3.403-0.154-6.797,0.003-10.168c0.155-3.325,0.471-6.633,0.987-9.869
				c0.451-2.83,1.184-5.759,3.142-7.522c1.827-1.644,4.281-1.761,6.4-0.141c2.259,1.728,3.467,4.742,4.114,7.652
				c1.327,5.967,0.46,12.054-1.476,17.336c-1.083,2.956-2.521,5.727-4.323,8.098c-0.886,1.165-1.856,2.216-2.933,3.134
				c-0.939,0.8-1.868,1.357-2.915,1.827c-0.16,0.127-0.347,0.208-0.54,0.232c-0.052,0.021-0.102,0.043-0.155,0.064
				c-0.202,0.08-0.362-0.029-0.454-0.203c-0.185-0.116-0.355-0.305-0.487-0.583C107.204,270.929,107.374,267.221,107.251,264.04z"/>
			<path style="fill:#DFA331;" d="M116.485,281.556c0.955-3.165,2.009-6.288,3.22-9.333c1.194-3.003,2.531-5.939,4.029-8.746
				c1.31-2.455,2.909-4.912,5.264-5.91c2.197-0.931,4.487-0.262,5.919,1.896c1.527,2.301,1.682,5.45,1.356,8.325
				c-0.67,5.897-3.392,11.21-6.84,15.446c-1.93,2.37-4.126,4.459-6.531,6.066c-1.182,0.79-2.404,1.447-3.684,1.949
				c-1.115,0.437-2.144,0.654-3.254,0.754c-0.187,0.066-0.384,0.082-0.569,0.042c-0.054,0.003-0.107,0.007-0.162,0.01
				c-0.211,0.01-0.323-0.142-0.352-0.33c-0.133-0.165-0.229-0.392-0.262-0.689C114.262,287.866,115.592,284.516,116.485,281.556z"/>
			<path style="fill:#DFA331;" d="M123.667,301.079c1.276-3.05,2.646-6.047,4.164-8.952c1.497-2.864,3.129-5.647,4.908-8.285
				c1.555-2.307,3.399-4.587,5.845-5.337c2.281-0.7,4.49,0.201,5.692,2.495c1.282,2.446,1.112,5.595,0.491,8.421
				c-1.274,5.797-4.528,10.802-8.394,14.66c-2.163,2.159-4.563,4.011-7.12,5.361c-1.257,0.664-2.541,1.192-3.865,1.559
				c-1.154,0.32-2.2,0.43-3.315,0.416c-0.193,0.047-0.391,0.042-0.57-0.017c-0.055-0.003-0.108-0.004-0.163-0.007
				c-0.211-0.012-0.307-0.174-0.317-0.365c-0.115-0.178-0.188-0.414-0.19-0.712C120.806,307.126,122.474,303.931,123.667,301.079z"
				/>
			<path style="fill:#DFA331;" d="M130.432,320.163c1.441-2.94,2.974-5.821,4.653-8.602c1.656-2.742,3.445-5.396,5.376-7.898
				c1.689-2.188,3.668-4.332,6.186-4.927c2.349-0.556,4.547,0.467,5.657,2.807c1.184,2.495,0.862,5.598,0.096,8.355
				c-1.57,5.655-5.111,10.409-9.218,13.993c-2.298,2.005-4.822,3.692-7.482,4.874c-1.307,0.581-2.635,1.027-3.997,1.311
				c-1.186,0.247-2.253,0.293-3.383,0.213c-0.198,0.035-0.398,0.018-0.578-0.051c-0.055-0.006-0.109-0.01-0.165-0.017
				c-0.213-0.024-0.303-0.19-0.304-0.379c-0.109-0.183-0.171-0.42-0.159-0.716C127.24,325.97,129.085,322.911,130.432,320.163z"/>
			<path style="fill:#DFA331;" d="M119.701,323.853c-3.017-1.27-6.066-2.435-9.159-3.428c-3.05-0.98-6.142-1.805-9.242-2.422
				c-2.71-0.54-5.611-0.856-7.901,0.349c-2.136,1.124-3.121,3.34-2.421,5.833c0.747,2.659,3.028,4.786,5.416,6.362
				c4.898,3.232,10.691,4.49,16.143,4.493c3.05,0.002,6.061-0.384,8.843-1.24c1.367-0.421,2.661-0.957,3.874-1.638
				c1.057-0.593,1.892-1.259,2.691-2.062c0.172-0.104,0.312-0.248,0.402-0.418c0.038-0.041,0.076-0.079,0.113-0.121
				c0.145-0.158,0.104-0.343-0.02-0.486c-0.038-0.21-0.148-0.429-0.35-0.644C125.923,326.134,122.522,325.04,119.701,323.853z"/>
			<path style="fill:#DFA331;" d="M113.473,304.7c-3.045-1.311-6.125-2.513-9.254-3.54c-3.086-1.012-6.221-1.865-9.368-2.503
				c-2.752-0.558-5.705-0.886-8.078,0.355c-2.213,1.158-3.282,3.441-2.638,6.012c0.687,2.742,2.955,4.936,5.349,6.562
				c4.91,3.335,10.789,4.635,16.355,4.642c3.115,0.004,6.2-0.392,9.065-1.273c1.408-0.433,2.745-0.985,4.003-1.686
				c1.096-0.611,1.968-1.297,2.806-2.124c0.179-0.107,0.326-0.256,0.423-0.431c0.04-0.042,0.079-0.082,0.119-0.124
				c0.152-0.163,0.116-0.353-0.007-0.501c-0.033-0.216-0.138-0.442-0.339-0.664C119.761,307.056,116.32,305.925,113.473,304.7z"/>
			<path style="fill:#DFA331;" d="M71.238,260.297c0.498-2.44,2.46-4.497,5.453-5.34c5.266-1.483,11.031,1.53,15.53,4.007
				c5.024,2.766,9.592,6.364,13.433,10.624c0.935,1.037,1.87,2.038,2.874,3.003c0.304,0.292,0.772,0.155,0.966,0.633
				c1.334,3.308-10.151,3.224-12.138,3.202c-5.792-0.064-11.911-1.016-17.013-3.808C75.962,270.222,70.05,266.116,71.238,260.297z"
				/>
			<path style="fill:#DFA331;" d="M77.537,285.87c-0.019-2.398,1.425-4.744,4.088-6.166c4.686-2.502,10.748-0.884,15.505,0.497
				c5.311,1.542,10.358,3.962,14.85,7.158c1.093,0.778,2.179,1.522,3.324,2.218c0.347,0.211,0.762-0.017,1.042,0.391
				c1.927,2.828-8.961,5.166-10.846,5.564c-5.495,1.159-11.479,1.553-16.868,0.002C84.004,294.203,77.583,291.588,77.537,285.87z"/>
		</g>
	</g>
	<g>
		<path style="fill:#ECBF4C;" d="M386.748,391.921c-1.14,1.664-2.835,2.85-4.56,3.882c-6.64,4.006-13.912,6.64-21.431,8.212
			c-0.647,0.154-1.309,0.293-1.972,0.401c-2.311,0.446-4.653,0.785-6.995,1.032c-0.57,0.077-1.156,0.123-1.726,0.169
			c-1.325,0.123-2.635,0.231-3.959,0.293c-0.524,0.031-1.033,0.047-1.541,0.062c-2.465,0.093-4.93,0.108-7.38,0.046
			c-0.432,0-0.848-0.015-1.263-0.03c-0.108,0-0.201,0-0.308-0.016c-1.279-0.031-2.573-0.093-3.898-0.185
			c-0.601-0.015-1.202-0.061-1.818-0.107c-1.911-0.138-3.852-0.308-5.808-0.539c-1.448-0.169-2.912-0.385-4.36-0.631
			c-1.233-0.185-2.465-0.417-3.682-0.694c-10.075-2.111-19.658-6.193-26.021-14.082c-1.263-1.556-2.419-3.99-2.342-5.793
			c0.015-0.601,0.185-1.14,0.539-1.54c0.554-0.663,1.602-0.986,3.312-0.74c7.719,1.14,14.975,5.022,21.954,8.303
			c0.909,0.416,1.726-0.724,1.017-1.432c-6.871-6.933-12.833-14.636-14.651-24.219c-0.139-0.709-0.231-1.479-0.108-2.188
			c0.093-0.555,0.324-1.078,0.801-1.525c0.092-0.062,0.185-0.139,0.277-0.216c0.662-0.493,1.494-0.678,2.311-0.601
			c1.726,0.139,3.112,1.217,4.391,2.326c5.793,5.039,10.522,12.002,15.021,18.565c0.647,0.94,2.126,0.308,1.864-0.801
			c-1.556-7.056-2.974-14.636-3.636-21.507c-0.37-3.821-0.385-8.057,2.018-11.046c0.108-0.138,0.231-0.277,0.354-0.385
			c0.216-0.2,0.462-0.37,0.74-0.416c0.262-0.047,0.524,0,0.77,0.108c0.308,0.139,0.601,0.354,0.863,0.57
			c3.405,2.927,5.5,7.364,6.809,11.662c1.834,6.04,4.345,13.034,5.716,19.612c0.092,0.447,0.77,0.385,0.77-0.077
			c0.216-10.276,2.049-20.968,7.395-29.534c0.709-1.125,1.895-1.895,3.22-1.957c0.262-0.016,0.508,0,0.74,0.046
			c0.57,0.093,1.048,0.323,1.448,0.678c1.449,1.202,1.91,3.744,1.926,5.824c0.077,7.996-0.585,18.133-1.957,26.699
			c-0.138,0.863,1.017,1.248,1.433,0.493c4.114-7.718,9.105-16.439,16.069-20.49c1.957-1.14,4.375-2.08,6.393-0.447
			c0.247,0.2,0.462,0.431,0.647,0.678c0.37,0.462,0.632,1.001,0.786,1.572c0.015,0.015,0.031,0.046,0.031,0.062
			c0.647,2.373-0.185,4.668-1.11,6.825c-3.328,7.734-8.027,14.883-13.804,20.999c-0.724,0.755,0.154,1.941,1.078,1.48
			c4.006-1.926,7.888-3.791,12.048-5.808c2.049-1.002,4.175-2.018,6.455-2.158c2.188-0.138,4.576,0.725,5.654,2.589
			c0.061,0.093,0.108,0.169,0.154,0.262c0.17,0.354,0.309,0.74,0.37,1.125C388.12,388.887,387.642,390.582,386.748,391.921z"/>
		<g>
			<path style="fill:#E58F31;" d="M337.186,406.018c-0.432,0-0.848-0.015-1.263-0.03c-0.108,0-0.201,0-0.308-0.016
				c-3.636-19.782-7.78-39.471-12.464-59.037c0.216-0.2,0.462-0.37,0.74-0.416c0.262-0.047,0.524,0,0.77,0.108
				C329.375,366.316,333.55,386.113,337.186,406.018z"/>
			<path style="fill:#E58F31;" d="M351.621,347.628c-2.203,11.015-3.743,21.923-4.298,33.201
				c-0.401,8.365-0.817,16.731-1.217,25.081c-0.524,0.031-1.033,0.047-1.541,0.062c0.416-8.874,0.847-17.748,1.294-26.607
				c0.555-11.016,2.157-21.677,4.314-32.415C350.743,347.043,351.221,347.274,351.621,347.628z"/>
			<path style="fill:#E58F31;" d="M376.919,361.956c-5.439,7.857-10.985,15.668-15.946,23.833
				c-3.805,6.271-6.687,12.88-9.182,19.659c-0.57,0.077-1.156,0.123-1.726,0.169c2.419-6.671,5.192-13.188,8.843-19.366
				c5.269-8.905,11.339-17.348,17.224-25.867C376.503,360.847,376.765,361.386,376.919,361.956z"/>
			<path style="fill:#E58F31;" d="M331.717,405.787c-0.601-0.015-1.202-0.061-1.818-0.107
				c-8.566-15.437-19.936-29.134-30.151-43.554c0.093-0.555,0.324-1.078,0.801-1.525C311.102,375.56,322.95,389.703,331.717,405.787
				z"/>
			<path style="fill:#E58F31;" d="M319.73,404.509c-1.233-0.185-2.465-0.417-3.682-0.694c-9.521-6.517-19.288-12.68-28.363-19.874
				c0.015-0.601,0.185-1.14,0.539-1.54C298.269,390.442,309.192,397.175,319.73,404.509z"/>
			<path style="fill:#E58F31;" d="M387.796,387.33c-2.28,1.017-4.637,1.942-6.732,3.051c-3.867,2.034-7.626,4.268-11.262,6.671
				c-3.158,2.08-6.409,4.222-9.044,6.964c-0.647,0.154-1.309,0.293-1.972,0.401c2.203-2.619,4.776-4.961,7.934-7.149
				c3.975-2.743,8.088-5.269,12.341-7.565c2.557-1.387,5.469-2.48,8.212-3.759c0.061,0.093,0.108,0.169,0.154,0.262
				C387.596,386.56,387.734,386.945,387.796,387.33z"/>
		</g>
	</g>
	<g>
		<g>
			<path style="fill:#F0C9A1;" d="M218.46,363.801c-0.224,0.267-0.586,0.375-0.927,0.465c-3.652,0.953-7.403,1.354-11.18,1.522
				c-1.375,0.065-2.755,0.095-4.13,0.108c-1.293,0.017-2.587,0.021-3.876,0.021c-7.446,0-14.887-0.013-22.333-0.039
				c-1.095-0.004-2.194-0.009-3.289-0.013c-0.703,0-1.401-0.005-2.104-0.009c-4.398-0.017-8.826-0.047-13.141-0.892
				c-0.285-0.056,1.367-16.896,1.522-18.548c0.621-6.644,1.449-13.284,2.932-19.794c1.168-5.122,2.725-10.684,5.23-15.603
				c2.733-5.368,6.592-9.972,12.305-12.404c0.211-0.091,0.427-0.177,0.642-0.263c4.6-1.789,9.658-2.518,14.529-1.733
				c1.518,0.246,2.928,0.629,4.242,1.134c9.257,3.549,13.671,13.09,15.793,22.808c3.014,13.775,3.566,27.968,4.048,42.002
				C218.74,362.994,218.74,363.468,218.46,363.801z"/>
			<g>
				<path style="fill:#363271;" d="M168.453,284.516c-1.851-2.7-2.305-6.006-2.768-9.155c-1.494-10.151,2.759-21.369,13.525-25.262
					c5.867-2.121,12.691-2.545,18.55-0.182c11.216,4.524,13.416,15.818,12.815,26.11c-0.271,4.637-1.927,9.117-5.216,12.719
					c-2.6,2.848-5.654,4.972-9.71,5.62C185.685,295.958,175.383,294.623,168.453,284.516z"/>
				<g>
					<path style="fill:#F0C9A1;" d="M196.006,281.134v18.755c0,3.69-2.992,6.683-6.683,6.683c-3.691,0-6.683-2.992-6.683-6.683
						v-18.755H196.006z"/>
					<path style="fill:#E9B588;" d="M196.006,284.686v12.938c-2.845,0.862-5.769,1.483-8.73,1.423
						c-1.526-0.03-3.126-0.25-4.635-0.711v-11.52c0.759-0.362,1.556-0.651,2.35-0.892
						C188.543,284.841,192.298,284.419,196.006,284.686z"/>
					<path style="fill:#F0C9A1;" d="M171.307,274.882c0,12.025,6.383,21.773,16.383,21.773c10.001,0,18.108-9.748,18.108-21.773
						c0-12.025-8.107-21.773-18.108-21.773C177.69,253.11,171.307,262.858,171.307,274.882z"/>
					<path style="fill:#F0C9A1;" d="M201.197,276.915c-0.829,3.474,0.752,6.828,3.531,7.491c2.779,0.663,5.705-1.615,6.533-5.09
						c0.829-3.474-0.752-6.828-3.531-7.491C204.951,271.162,202.026,273.441,201.197,276.915z"/>
					<path style="fill:#F0C9A1;" d="M166.275,279.316c-0.829-3.474,0.752-6.828,3.531-7.491c2.779-0.663,5.704,1.616,6.533,5.09
						c0.829,3.474-0.752,6.828-3.531,7.491C170.029,285.069,167.104,282.791,166.275,279.316z"/>
				</g>
				<g>
					<path style="fill:#FFFFFF;" d="M196.144,270.278c-2.958,0-5.441,2.043-6.132,4.789h-3.474c-0.69-2.747-3.174-4.789-6.132-4.789
						c-3.49,0-6.329,2.839-6.329,6.329c0,3.49,2.839,6.329,6.329,6.329c3.49,0,6.329-2.839,6.329-6.329
						c0-0.058-0.007-0.114-0.009-0.171h3.096c-0.001,0.057-0.009,0.113-0.009,0.171c0,3.49,2.839,6.329,6.329,6.329
						c3.49,0,6.329-2.839,6.329-6.329C202.473,273.117,199.634,270.278,196.144,270.278z M180.407,281.567
						c-2.735,0-4.961-2.225-4.961-4.961c0-2.735,2.225-4.961,4.961-4.961c2.735,0,4.961,2.225,4.961,4.961
						C185.367,279.342,183.142,281.567,180.407,281.567z M196.144,281.567c-2.735,0-4.961-2.225-4.961-4.961
						c0-2.735,2.225-4.961,4.961-4.961c2.735,0,4.961,2.225,4.961,4.961C201.105,279.342,198.879,281.567,196.144,281.567z"/>
				</g>
				<path style="fill:#363271;" d="M172.949,270.817c7.142-1.592,12.074-8.294,14.53-15.186c3.599,5.998,8.983,10.909,15.286,13.942
					c1.348,0.649,3.26,1.077,4.094-0.165c0.305-0.454,0.364-1.026,0.386-1.573c0.258-6.371-3.689-12.71-9.521-15.29
					c-1.532-0.678-3.165-1.112-4.817-1.391c-5.737-0.97-11.932,0.02-16.655,3.418c-3.073,2.21-5.414,5.49-6.434,9.141
					C168.933,266.88,168.05,271.909,172.949,270.817z"/>
				<path style="fill:#363271;" d="M172.614,251.391c1.221,2.642,4.207,4.406,7.093,4.032c2.35-0.304,4.454-1.872,6.824-1.865
					c2.168,0.007,4.098,1.327,6.205,1.84c3.226,0.785,6.863-0.54,8.829-3.215c1.966-2.675,2.144-6.542,0.432-9.386
					c-1.712-2.844-5.213-4.497-8.497-4.012c-2.898,0.428-5.315,1.836-8.331,1.721c-1.976-0.075-3.932-0.821-5.912-0.5
					C174.141,240.833,170.341,246.473,172.614,251.391z"/>
			</g>
			<path style="fill:#FFFFFF;" d="M206.353,307.864v57.924c-1.375,0.065-2.755,0.095-4.13,0.108
				c-1.293,0.017-2.587,0.021-3.876,0.021c-7.446,0-14.887-0.013-22.333-0.039c-1.095-0.004-2.194-0.009-3.289-0.013v-58.001
				H206.353z"/>
			<path style="opacity:0.37;fill:#E4E4E4;" d="M205.28,333.585c-8.78,3.54-18.52,3.55-27.99,3.44c0.5-10.31,1.04-20.61,1.63-30.92
				c0.25,0.4,0.51,0.88,0.8,1.46c2.34,4.7,5.27,8.88,8.95,12.64C193.66,325.285,199.48,329.445,205.28,333.585z"/>
			<path style="fill:#514E92;" d="M179.47,298.615c0.05,1.36-0.31,3.05-0.37,4.21c-0.06,1.09-0.13,2.19-0.18,3.28
				c-0.59,10.31-1.13,20.61-1.63,30.92c-0.16,3.28-0.31,6.55-0.46,9.83c-0.29,6.33-0.56,12.68-0.82,19.02
				c-1.79,0-3.59-0.01-5.39-0.02c-4.4-0.02-8.83-0.05-13.14-0.89c-0.29-0.06,1.37-16.9,1.52-18.55c0.62-6.64,1.45-13.28,2.93-19.79
				c1.17-5.12,2.73-10.69,5.23-15.6C169.9,305.655,173.75,301.045,179.47,298.615z"/>
			<path style="fill:#514E92;" d="M218.46,363.801c-0.224,0.267-0.586,0.375-0.927,0.465c-4.984,1.302-10.149,1.574-15.31,1.63
				c-0.254-6.351-0.526-12.697-0.815-19.043c-0.668-14.681-1.423-29.352-2.268-44.024c-0.082-1.427-0.604-3.647-0.259-5.075
				c9.257,3.549,13.671,13.09,15.793,22.808c3.014,13.775,3.566,27.968,4.048,42.002C218.74,362.994,218.74,363.468,218.46,363.801z
				"/>
		</g>
		<g>
			<g>
				<path style="fill:#FFFFFF;" d="M201.194,290.238l-1.075-1.329c4.259-3.594,6.702-8.864,6.702-14.459v-3.789
					c0-8.965-7.142-16.258-15.92-16.258h-5.404c-8.727,0-15.827,7.251-15.827,16.163v3.884h-1.689v-3.884
					c0-9.863,7.857-17.888,17.515-17.888h5.404c9.709,0,17.608,8.067,17.608,17.983v3.789
					C208.509,280.561,205.843,286.316,201.194,290.238z"/>
			</g>
			<path style="fill:#DFA331;" d="M170.375,284.583h-2.631c-1.292,0-2.349-1.057-2.349-2.349V270.98
				c0-1.292,1.057-2.349,2.349-2.349h2.631c1.292,0,2.349,1.057,2.349,2.349v11.253
				C172.724,283.526,171.667,284.583,170.375,284.583z"/>
			<path style="fill:#DFA331;" d="M209.609,284.583h-2.631c-1.292,0-2.349-1.057-2.349-2.349V270.98
				c0-1.292,1.057-2.349,2.349-2.349h2.631c1.292,0,2.349,1.057,2.349,2.349v11.253
				C211.958,283.526,210.901,284.583,209.609,284.583z"/>
			<path style="fill:#DFA331;" d="M202.447,289.287c0,1.108-0.78,2.108-1.91,2.332l-2.539,0.5c-1.281,0.25-2.531-0.591-2.785-1.867
				c-0.03-0.151-0.043-0.306-0.043-0.457c0-0.384,0.09-0.75,0.263-1.078c0.315-0.625,0.905-1.108,1.647-1.255l2.539-0.5
				c1.022-0.198,2.022,0.293,2.514,1.151c0.129,0.216,0.22,0.457,0.272,0.716C202.434,288.98,202.447,289.136,202.447,289.287z"/>
			<path style="opacity:0.41;fill:#ECBF4C;" d="M202.132,288.114c-0.319,0.625-0.91,1.104-1.647,1.25l-2.539,0.5
				c-1.022,0.203-2.026-0.289-2.514-1.147c0.315-0.625,0.905-1.108,1.647-1.255l2.539-0.5
				C200.641,286.764,201.641,287.256,202.132,288.114z"/>
			<path style="fill:#ECBF4C;" d="M165.566,281.996h-0.774c-0.38,0-0.691-0.311-0.691-0.691v-9.828c0-0.38,0.311-0.691,0.691-0.691
				h0.774c0.38,0,0.691,0.311,0.691,0.691v9.828C166.257,281.685,165.946,281.996,165.566,281.996z"/>
			<path style="fill:#ECBF4C;" d="M212.129,281.996h-0.774c-0.38,0-0.691-0.311-0.691-0.691v-9.828c0-0.38,0.311-0.691,0.691-0.691
				h0.774c0.38,0,0.691,0.311,0.691,0.691v9.828C212.82,281.685,212.509,281.996,212.129,281.996z"/>
		</g>
	</g>
	<g>
		<path style="fill:#5F5EA5;" d="M160.83,272.955v44.61c0,0.38-0.1,0.73-0.28,1.03c-0.35,0.61-1.02,1.02-1.78,1.02h-63.6
			c-1.13,0-2.05-0.92-2.05-2.05v-44.61c0-1.14,0.92-2.06,2.05-2.06h63.6C159.91,270.895,160.83,271.815,160.83,272.955z"/>
		<path style="opacity:0.06;fill:#FFFFFF;" d="M160.55,318.595c-0.35,0.61-1.02,1.02-1.78,1.02h-63.6c-1.13,0-2.05-0.92-2.05-2.05
			v-44.61c0-1.14,0.92-2.06,2.05-2.06h3.94c0.28,0.98,0.53,1.93,0.85,2.67c2.69,6.44,6.9,12.18,11.85,17.07
			c6.62,6.56,14.54,11.67,22.66,16.24C142.78,311.555,151.45,315.765,160.55,318.595z"/>
		<g>
			<polygon style="fill:#514E92;" points="137.582,297.938 135.97,297.938 117.977,297.938 116.365,297.938 112.337,328.329 
				117.977,328.329 135.97,328.329 141.61,328.329 			"/>
			<path style="fill:#5F5EA5;" d="M132.56,310.228c0,3.085-2.501,5.587-5.587,5.587s-5.587-2.501-5.587-5.587
				c0-3.085,2.501-5.586,5.587-5.586S132.56,307.143,132.56,310.228z"/>
		</g>
	</g>
	<g>
		<polygon style="fill:#C3B7FC;" points="232.44,334.815 231.93,339.975 231.61,343.135 228.52,374.235 227.99,379.525 
			227.33,386.255 226.28,396.835 225.55,404.195 225.3,406.685 107.82,406.685 106.83,396.835 105.79,386.255 105.12,379.525 
			104.59,374.235 101.51,343.135 101.19,339.975 100.68,334.815 		"/>
		<polygon style="fill:#A797FB;" points="232.436,334.817 231.61,343.135 101.51,343.135 100.683,334.817 		"/>
		<g>
			<polygon style="fill:#5F5EA5;" points="227.33,386.256 226.281,396.835 106.834,396.835 105.786,386.256 			"/>
			<polygon style="fill:#FFFFFF;" points="228.522,374.234 227.993,379.524 105.122,379.524 104.593,374.234 			"/>
		</g>
		<path style="opacity:0.11;fill:#5F5EA5;" d="M225.55,404.195l-0.25,2.49H107.82l-0.99-9.85l-1.04-10.58l-0.67-6.73l-0.53-5.29
			l-3.08-31.1l-0.32-3.16l-0.51-5.16h18.37c0.17,0.12,0.35,0.25,0.52,0.39c8.41,6.7,15.26,16.25,23.62,23.33
			c17.51,14.82,37.2,27.06,58.23,36.21c5.83,2.54,11.76,4.84,17.78,6.89C220.68,402.145,223.01,403.175,225.55,404.195z"/>
		<path style="fill:#DFDBFC;" d="M237.603,339.974H95.517c-2.062,0-3.733-1.671-3.733-3.733v-4.18c0-2.061,1.671-3.733,3.733-3.733
			h142.086c2.062,0,3.733,1.671,3.733,3.733v4.18C241.336,338.303,239.665,339.974,237.603,339.974z"/>
	</g>
</g>
<g id="DESIGNED_BY_FREEPIK">
	<g>
		<g id="XMLID_319_">
			<g id="XMLID_338_">
				<path id="XMLID_346_" style="fill:#1D262D;" d="M260.104,465.465c-0.433,0.443-0.804,0.932-1.108,1.453l-0.465-0.241
					c-0.067-0.297-0.35-0.502-0.659-0.466c-0.331,0.039-0.567,0.339-0.529,0.67c0.039,0.331,0.339,0.567,0.67,0.528
					c0.065-0.007,0.127-0.025,0.184-0.052l0.451,0.234c-0.251,0.554-0.433,1.139-0.539,1.743l0.747,0.132
					c0.23-1.306,0.85-2.507,1.792-3.473L260.104,465.465z"/>
				<path id="XMLID_345_" style="fill:#1D262D;" d="M265.591,463.164c-0.171,0-0.341,0.006-0.509,0.017l-0.074-0.626
					c0.188-0.149,0.296-0.389,0.266-0.645c-0.046-0.393-0.402-0.674-0.795-0.628c-0.394,0.046-0.675,0.402-0.628,0.796
					c0.03,0.254,0.189,0.461,0.404,0.563l0.073,0.624c-0.714,0.116-1.402,0.332-2.06,0.646l0.327,0.685
					c0.935-0.447,1.941-0.674,2.995-0.674c0.497,0,0.993,0.053,1.476,0.158l0.16-0.741
					C266.692,463.222,266.142,463.164,265.591,463.164z"/>
				<path id="XMLID_344_" style="fill:#1D262D;" d="M272.194,465.711c0.331-0.04,0.566-0.341,0.525-0.672
					c-0.04-0.331-0.341-0.566-0.672-0.525c-0.31,0.038-0.535,0.304-0.53,0.608l-0.416,0.363c-0.418-0.43-0.89-0.813-1.407-1.14
					l-0.404,0.642c1.135,0.715,2.021,1.727,2.564,2.925l0.69-0.313c-0.251-0.554-0.567-1.071-0.942-1.545l0.402-0.351
					C272.065,465.715,272.128,465.719,272.194,465.711z"/>
				<path id="XMLID_343_" style="fill:#1D262D;" d="M265.044,473.372c-0.386,0.023-0.775,0.035-1.157,0.035
					c-0.88,0-1.733-0.061-2.479-0.18c-0.391-0.062-0.846-0.154-1.271-0.292c1.047,1.861,3.069,3.125,5.389,3.125
					c2.855,0,5.263-1.916,5.949-4.503c-0.682,0.449-1.505,0.825-2.458,1.122C267.838,473.047,266.463,473.287,265.044,473.372z"/>
				<path id="XMLID_339_" style="fill:#1D262D;" d="M265.591,464.68c-3.351,0-6.079,2.666-6.079,5.943
					c0,0.425,0.046,0.849,0.137,1.261c0.674,0.483,2.706,0.891,5.348,0.731c2.88-0.174,5.297-0.958,6.672-2.159
					c-0.005-0.194-0.021-0.39-0.045-0.581C271.244,466.914,268.65,464.68,265.591,464.68z M263.432,471.195
					c-1.02,0-1.85-0.83-1.85-1.85c0-1.021,0.83-1.851,1.85-1.851c1.02,0,1.85,0.83,1.85,1.851
					C265.282,470.365,264.452,471.195,263.432,471.195z M268.169,470.287c-0.75,0-1.36-0.61-1.36-1.36s0.61-1.36,1.36-1.36
					s1.36,0.61,1.36,1.36S268.919,470.287,268.169,470.287z"/>
			</g>
			<path id="XMLID_336_" style="fill:#1D262D;" d="M281.595,466.547c-0.295-0.116-0.806-0.31-1.383-0.238
				c-0.551,0.069-0.844,0.341-0.844,1.007v0.866h2.229v1.717h-2.229v5.455h-1.932v-5.455h-1.339v-1.717h1.339v-0.889
				c0-1.68,0.896-2.782,2.568-2.782c0.643,0,1.157,0.121,1.59,0.308V466.547z"/>
			<path id="XMLID_334_" style="fill:#1D262D;" d="M286.297,469.878c-0.177-0.029-0.357-0.046-0.525-0.046
				c-0.896,0-1.51,0.548-1.51,1.613v3.908h-1.933v-7.172h1.873v0.784c0.451-0.673,1.14-0.977,2.021-0.977
				c0.414,0,0.848,0.128,1.095,0.337L286.297,469.878z"/>
			<path id="XMLID_331_" style="fill:#1D262D;" d="M293.965,471.757c0,0.222-0.016,0.488-0.037,0.651h-5.085
				c0.207,1.036,0.933,1.487,1.843,1.487c0.622,0,1.295-0.252,1.813-0.689l1.133,1.243c-0.814,0.748-1.851,1.089-3.057,1.089
				c-2.198,0-3.724-1.496-3.724-3.753c0-2.258,1.48-3.797,3.627-3.797C292.543,467.99,293.958,469.522,293.965,471.757z
				 M288.851,471.091h3.175c-0.178-0.918-0.732-1.437-1.562-1.437C289.554,469.655,289.021,470.203,288.851,471.091z"/>
			<path id="XMLID_328_" style="fill:#1D262D;" d="M301.619,471.757c0,0.222-0.016,0.488-0.037,0.651h-5.085
				c0.207,1.036,0.933,1.487,1.843,1.487c0.622,0,1.296-0.252,1.814-0.689l1.133,1.243c-0.815,0.748-1.851,1.089-3.058,1.089
				c-2.198,0-3.723-1.496-3.723-3.753c0-2.258,1.48-3.797,3.627-3.797C300.197,467.99,301.611,469.522,301.619,471.757z
				 M296.504,471.091h3.175c-0.178-0.918-0.733-1.437-1.561-1.437C297.208,469.655,296.674,470.203,296.504,471.091z"/>
			<path id="XMLID_325_" style="fill:#1D262D;" d="M309.964,471.764c0,2.154-1.495,3.775-3.472,3.775
				c-0.962,0-1.644-0.378-2.109-0.933v3.708h-1.925v-10.133h1.888v0.792c0.467-0.585,1.154-0.984,2.139-0.984
				C308.469,467.99,309.964,469.611,309.964,471.764z M304.287,471.764c0,1.133,0.748,1.977,1.844,1.977
				c1.14,0,1.85-0.881,1.85-1.977c0-1.095-0.71-1.976-1.85-1.976C305.035,469.789,304.287,470.632,304.287,471.764z"/>
			<path id="XMLID_322_" style="fill:#1D262D;" d="M313.068,465.836c0,0.696-0.541,1.229-1.236,1.229
				c-0.696,0-1.229-0.533-1.229-1.229c0-0.695,0.532-1.243,1.229-1.243C312.527,464.592,313.068,465.14,313.068,465.836z
				 M312.808,475.354h-1.932v-7.172h1.932V475.354z"/>
			<path id="XMLID_320_" style="fill:#1D262D;" d="M316.032,470.736l2.702-2.554h2.368l-3.478,3.375l3.501,3.797h-2.376
				l-2.717-2.901v2.901H314.1v-10.658h1.932V470.736z"/>
		</g>
		<g>
			<path style="fill:#1D262D;" d="M184.412,475.29v-1.055c-0.527,0.718-1.391,1.23-2.387,1.23c-1.846,0-3.149-1.406-3.149-3.706
				c0-2.256,1.289-3.721,3.149-3.721c0.952,0,1.816,0.469,2.387,1.245v-3.765h1.099v9.771H184.412z M184.412,473.371v-3.208
				c-0.395-0.615-1.245-1.143-2.124-1.143c-1.42,0-2.27,1.172-2.27,2.739c0,1.567,0.85,2.725,2.27,2.725
				C183.167,474.484,184.017,473.986,184.412,473.371z"/>
			<path style="fill:#1D262D;" d="M186.932,471.745c0-2.051,1.465-3.706,3.486-3.706c2.139,0,3.398,1.67,3.398,3.794v0.278h-5.727
				c0.088,1.333,1.025,2.446,2.549,2.446c0.806,0,1.626-0.322,2.182-0.894l0.527,0.718c-0.703,0.703-1.655,1.084-2.812,1.084
				C188.44,475.465,186.932,473.957,186.932,471.745z M190.403,468.947c-1.509,0-2.256,1.274-2.314,2.358h4.644
				C192.718,470.25,192.015,468.947,190.403,468.947z"/>
			<path style="fill:#1D262D;" d="M194.607,474.352l0.571-0.791c0.469,0.542,1.362,1.011,2.329,1.011c1.084,0,1.67-0.513,1.67-1.216
				c0-1.714-4.38-0.659-4.38-3.281c0-1.099,0.952-2.036,2.636-2.036c1.202,0,2.051,0.454,2.623,1.025l-0.513,0.762
				c-0.424-0.513-1.201-0.894-2.109-0.894c-0.966,0-1.567,0.483-1.567,1.113c0,1.553,4.379,0.527,4.379,3.281
				c0,1.187-0.952,2.139-2.783,2.139C196.306,475.465,195.325,475.114,194.607,474.352z"/>
			<path style="fill:#1D262D;" d="M201.477,466.471c0-0.41,0.337-0.747,0.732-0.747c0.41,0,0.747,0.337,0.747,0.747
				c0,0.41-0.337,0.732-0.747,0.732C201.814,467.204,201.477,466.881,201.477,466.471z M201.667,475.29v-7.075h1.099v7.075H201.667z
				"/>
			<path style="fill:#1D262D;" d="M204.582,477.106l0.556-0.82c0.586,0.703,1.289,0.967,2.3,0.967c1.172,0,2.271-0.571,2.271-2.124
				v-1.011c-0.513,0.718-1.377,1.26-2.373,1.26c-1.846,0-3.149-1.377-3.149-3.662c0-2.271,1.289-3.677,3.149-3.677
				c0.952,0,1.802,0.469,2.373,1.245v-1.069h1.099v6.87c0,2.344-1.641,3.076-3.369,3.076
				C206.237,478.161,205.416,477.925,204.582,477.106z M209.708,473.253v-3.091c-0.381-0.615-1.23-1.143-2.109-1.143
				c-1.421,0-2.27,1.128-2.27,2.695c0,1.553,0.849,2.695,2.27,2.695C208.478,474.411,209.328,473.869,209.708,473.253z"/>
			<path style="fill:#1D262D;" d="M217.413,475.29v-4.629c0-1.245-0.63-1.641-1.582-1.641c-0.864,0-1.685,0.527-2.094,1.099v5.171
				h-1.099v-7.075h1.099v1.025c0.497-0.586,1.464-1.201,2.519-1.201c1.479,0,2.256,0.747,2.256,2.285v4.966H217.413z"/>
			<path style="fill:#1D262D;" d="M219.932,471.745c0-2.051,1.465-3.706,3.486-3.706c2.139,0,3.398,1.67,3.398,3.794v0.278h-5.727
				c0.088,1.333,1.025,2.446,2.548,2.446c0.806,0,1.626-0.322,2.183-0.894l0.527,0.718c-0.703,0.703-1.655,1.084-2.813,1.084
				C221.441,475.465,219.932,473.957,219.932,471.745z M223.404,468.947c-1.509,0-2.256,1.274-2.314,2.358h4.643
				C225.718,470.25,225.015,468.947,223.404,468.947z"/>
			<path style="fill:#1D262D;" d="M233.35,475.29v-1.055c-0.527,0.718-1.392,1.23-2.388,1.23c-1.845,0-3.149-1.406-3.149-3.706
				c0-2.256,1.289-3.721,3.149-3.721c0.952,0,1.817,0.469,2.388,1.245v-3.765h1.098v9.771H233.35z M233.35,473.371v-3.208
				c-0.396-0.615-1.245-1.143-2.124-1.143c-1.421,0-2.27,1.172-2.27,2.739c0,1.567,0.85,2.725,2.27,2.725
				C232.105,474.484,232.954,473.986,233.35,473.371z"/>
			<path style="fill:#1D262D;" d="M239.692,475.29v-9.771h1.099v3.765c0.571-0.776,1.421-1.245,2.388-1.245
				c1.845,0,3.149,1.465,3.149,3.721c0,2.3-1.304,3.706-3.149,3.706c-0.996,0-1.86-0.513-2.388-1.23v1.055H239.692z M242.9,474.484
				c1.436,0,2.285-1.157,2.285-2.725c0-1.567-0.85-2.739-2.285-2.739c-0.864,0-1.729,0.527-2.109,1.143v3.208
				C241.171,473.986,242.036,474.484,242.9,474.484z"/>
			<path style="fill:#1D262D;" d="M247.528,477.062c0.161,0.073,0.425,0.117,0.601,0.117c0.483,0,0.806-0.161,1.055-0.747
				l0.469-1.069l-2.959-7.148h1.187l2.358,5.801l2.344-5.801h1.2l-3.544,8.511c-0.425,1.024-1.143,1.421-2.08,1.436
				c-0.234,0-0.6-0.044-0.806-0.104L247.528,477.062z"/>
		</g>
	</g>
</g>
</svg>
