<?xml version="1.0" encoding="utf-8"?>
<!-- Generator: Adobe Illustrator 27.5.0, SVG Export Plug-In . SVG Version: 6.00 Build 0)  -->
<svg version="1.1" xmlns="http://www.w3.org/2000/svg" xmlns:xlink="http://www.w3.org/1999/xlink" x="0px" y="0px"
	 viewBox="0 0 500 500" style="enable-background:new 0 0 500 500;" xml:space="preserve">
<g id="BACKGROUND">
	<g>
		<g>
			<polygon style="opacity:0.21;fill:#AEA2E9;" points="58.898,420.216 169.363,136.374 244.24,305.989 319.599,101.983 
				446.331,419.83 			"/>
			<line style="fill:none;stroke:#1C00A0;stroke-miterlimit:10;" x1="95.329" y1="429.295" x2="209.519" y2="429.295"/>
			<line style="fill:none;stroke:#1C00A0;stroke-miterlimit:10;" x1="320.436" y1="429.295" x2="418.334" y2="429.295"/>
			<line style="fill:none;stroke:#1C00A0;stroke-miterlimit:10;" x1="25.312" y1="420.216" x2="456.645" y2="420.216"/>
		</g>
		<path style="fill:#FF572B;" d="M76.728,181.24L76.728,181.24c-5.46,0-10.227,2.954-12.8,7.348
			c-1.865-1.447-4.205-2.311-6.748-2.311l0,0c-6.086,0-11.02,3.789-11.02,9.876v3.572h15.743H68.2h23.353v-4.805
			C91.553,186.732,84.915,181.24,76.728,181.24z"/>
		<path style="fill:#FF572B;" d="M373.773,81.189L373.773,81.189c-5.46,0-10.227,2.954-12.8,7.349
			c-1.865-1.447-4.205-2.311-6.748-2.311l0,0c-6.086,0-11.02,3.789-11.02,9.875v3.572h15.743h6.297h23.352V94.87
			C388.598,86.682,381.961,81.189,373.773,81.189z"/>
		<path style="fill:#FF572B;" d="M167.934,55.594L167.934,55.594c-5.46,0-10.227,2.954-12.8,7.348
			c-1.865-1.447-4.205-2.311-6.748-2.311h0c-6.086,0-11.02,3.789-11.02,9.875v3.572h15.743h6.297h23.352v-4.805
			C182.759,61.087,176.121,55.594,167.934,55.594z"/>
		<path style="fill:#FF572B;" d="M432.685,201.65L432.685,201.65c-5.46,0-10.227,2.954-12.8,7.348
			c-1.865-1.447-4.205-2.311-6.748-2.311l0,0c-6.086,0-11.02,3.789-11.02,9.876v3.572h15.743h6.297h23.353v-4.805
			C447.51,207.142,440.873,201.65,432.685,201.65z"/>
		<g>
			<line style="fill:none;stroke:#1C00A0;stroke-miterlimit:10;" x1="128.851" y1="143.33" x2="133.339" y2="147.818"/>
			<line style="fill:none;stroke:#1C00A0;stroke-miterlimit:10;" x1="133.339" y1="143.33" x2="128.851" y2="147.818"/>
		</g>
		<g>
			<line style="fill:none;stroke:#1C00A0;stroke-miterlimit:10;" x1="264.355" y1="108.839" x2="268.844" y2="113.327"/>
			<line style="fill:none;stroke:#1C00A0;stroke-miterlimit:10;" x1="268.844" y1="108.839" x2="264.355" y2="113.327"/>
		</g>
		<g>
			<line style="fill:none;stroke:#1C00A0;stroke-miterlimit:10;" x1="413.845" y1="155.571" x2="418.334" y2="160.059"/>
			<line style="fill:none;stroke:#1C00A0;stroke-miterlimit:10;" x1="418.334" y1="155.571" x2="413.845" y2="160.059"/>
		</g>
		<g>
			<line style="fill:none;stroke:#1C00A0;stroke-miterlimit:10;" x1="54.41" y1="284.63" x2="58.898" y2="289.118"/>
			<line style="fill:none;stroke:#1C00A0;stroke-miterlimit:10;" x1="58.898" y1="284.63" x2="54.41" y2="289.118"/>
		</g>
		<g>
			<line style="fill:none;stroke:#1C00A0;stroke-miterlimit:10;" x1="444.087" y1="284.63" x2="448.575" y2="289.118"/>
			<line style="fill:none;stroke:#1C00A0;stroke-miterlimit:10;" x1="448.575" y1="284.63" x2="444.087" y2="289.118"/>
		</g>
		<path style="fill:none;stroke:#1C00A0;stroke-miterlimit:10;" d="M101.39,235.3c0,0.97-0.786,1.757-1.757,1.757
			c-0.97,0-1.756-0.786-1.756-1.757c0-0.97,0.786-1.756,1.756-1.756C100.603,233.544,101.39,234.33,101.39,235.3z"/>
		<path style="fill:none;stroke:#1C00A0;stroke-miterlimit:10;" d="M88.707,111.083c0,0.97-0.786,1.757-1.756,1.757
			c-0.97,0-1.757-0.786-1.757-1.757c0-0.97,0.786-1.756,1.757-1.756C87.921,109.327,88.707,110.113,88.707,111.083z"/>
		<path style="fill:none;stroke:#1C00A0;stroke-miterlimit:10;" d="M268.356,57.351c0,0.97-0.786,1.756-1.756,1.756
			c-0.97,0-1.757-0.786-1.757-1.756c0-0.97,0.786-1.757,1.757-1.757C267.569,55.594,268.356,56.381,268.356,57.351z"/>
		<path style="fill:none;stroke:#1C00A0;stroke-miterlimit:10;" d="M372.605,251.821c0,0.97-0.786,1.757-1.756,1.757
			c-0.97,0-1.757-0.786-1.757-1.757c0-0.97,0.786-1.756,1.757-1.756C371.819,250.065,372.605,250.851,372.605,251.821z"/>
		<path style="fill:none;stroke:#1C00A0;stroke-miterlimit:10;" d="M368.522,131.048c0,0.97-0.786,1.756-1.756,1.756
			c-0.97,0-1.757-0.786-1.757-1.756c0-0.97,0.786-1.756,1.757-1.756C367.736,129.292,368.522,130.079,368.522,131.048z"/>
	</g>
</g>
<g id="OBJECTS">
	<path style="opacity:0.22;fill:#AEA2E9;" d="M192.192,441.497c0,3.754-15.992,6.798-35.72,6.798c-19.728,0-35.72-3.043-35.72-6.798
		s15.992-6.798,35.72-6.798C176.2,434.699,192.192,437.742,192.192,441.497z"/>
	<path style="opacity:0.22;fill:#AEA2E9;" d="M401.275,441.497c0,3.754-15.992,6.798-35.72,6.798c-19.728,0-35.72-3.043-35.72-6.798
		s15.992-6.798,35.72-6.798C385.283,434.699,401.275,437.742,401.275,441.497z"/>
	<path style="opacity:0.22;fill:#AEA2E9;" d="M338.31,419.83c0,3.754-46.387,6.798-103.607,6.798s-103.607-3.044-103.607-6.798
		s46.387-6.798,103.607-6.798S338.31,416.075,338.31,419.83z"/>
	<g>
		<path style="fill:#FFB507;" d="M327.062,419.83H162.777c-8.19,0-14.829-6.639-14.829-14.829V196.068
			c0-8.19,6.639-14.829,14.829-14.829h164.285c8.19,0,14.829,6.639,14.829,14.829v208.933
			C341.891,413.191,335.252,419.83,327.062,419.83z"/>
		<rect x="168.679" y="201.65" style="fill:#FFFFFF;" width="151.757" height="200.393"/>
		<g>
			<rect x="179.673" y="225.509" style="opacity:0.4;fill:#8E8AFF;" width="82.174" height="29.995"/>
			<line style="fill:none;stroke:#1C00A0;stroke-miterlimit:10;" x1="186.548" y1="231.229" x2="250.711" y2="231.229"/>
			<line style="fill:none;stroke:#1C00A0;stroke-miterlimit:10;" x1="186.548" y1="246.092" x2="234.104" y2="246.092"/>
			<line style="fill:none;stroke:#1C00A0;stroke-miterlimit:10;" x1="186.548" y1="238.66" x2="220.76" y2="238.66"/>
		</g>
		<g>
			<rect x="179.673" y="266.292" style="opacity:0.4;fill:#8E8AFF;" width="82.174" height="29.995"/>
			<line style="fill:none;stroke:#1C00A0;stroke-miterlimit:10;" x1="186.548" y1="272.012" x2="250.711" y2="272.012"/>
			<line style="fill:none;stroke:#1C00A0;stroke-miterlimit:10;" x1="186.548" y1="286.874" x2="234.104" y2="286.874"/>
			<line style="fill:none;stroke:#1C00A0;stroke-miterlimit:10;" x1="186.548" y1="279.443" x2="220.76" y2="279.443"/>
		</g>
		<g>
			<rect x="179.673" y="307.075" style="opacity:0.4;fill:#8E8AFF;" width="82.174" height="29.995"/>
			
				<rect x="179.673" y="343.624" style="opacity:0.4;fill:none;stroke:#8E8AFF;stroke-miterlimit:10;" width="82.174" height="29.995"/>
			<line style="fill:none;stroke:#1C00A0;stroke-miterlimit:10;" x1="186.548" y1="312.795" x2="250.711" y2="312.795"/>
			<line style="fill:none;stroke:#1C00A0;stroke-miterlimit:10;" x1="186.548" y1="327.657" x2="234.104" y2="327.657"/>
			<line style="fill:none;stroke:#1C00A0;stroke-miterlimit:10;" x1="186.548" y1="320.226" x2="220.76" y2="320.226"/>
		</g>
		<circle style="fill:none;stroke:#8E8AFF;stroke-miterlimit:10;" cx="287.69" cy="241.137" r="9.908"/>
		<circle style="fill:none;stroke:#8E8AFF;stroke-miterlimit:10;" cx="287.69" cy="279.857" r="9.908"/>
		<polyline style="fill:none;stroke:#FFB507;stroke-width:2;stroke-linecap:round;stroke-miterlimit:10;" points="276.757,237.984 
			286.415,248.448 306.939,225.509 		"/>
		<polyline style="fill:none;stroke:#FFB507;stroke-width:2;stroke-linecap:round;stroke-miterlimit:10;" points="276.757,277.193 
			286.415,287.656 295.743,275.913 		"/>
		<circle style="fill:none;stroke:#8E8AFF;stroke-miterlimit:10;" cx="287.69" cy="320.558" r="9.908"/>
		
			<ellipse transform="matrix(0.9248 -0.3804 0.3804 0.9248 -116.1675 136.6627)" style="fill:none;stroke:#8E8AFF;stroke-miterlimit:10;" cx="287.69" cy="362.25" rx="9.908" ry="9.908"/>
		
			<polyline style="fill:none;stroke:#FF9426;stroke-width:2;stroke-linecap:round;stroke-linejoin:round;stroke-miterlimit:10;" points="
			276.757,359.628 286.415,370.091 306.939,347.152 		"/>
	</g>
	<g>
		<g>
			<g>
				<path style="fill:#1C00A0;" d="M351.704,403.611c-0.046-0.421-0.063-0.814-0.056-1.184c-0.077-0.626-0.12-1.321-0.114-2.113
					c0.023-3.186-0.376-16.779-0.593-24.898h0c-0.469-7.098-0.147-13.409-0.147-13.409l21.037-1.438
					c0.829,3.077,1.168,5.644,1.267,7.689c0.57,3.178,3.716,26.1,4.566,30.304c0.044,0.218,0.078,0.422,0.112,0.628
					c4.564,6.838,7.996,32.859,8.85,37.365c0.113,0.6-0.221,0.558-0.581,0.513c-1.052-0.131-0.68-1.132-2.157-0.939
					c-0.782,0.101-0.933,1.193-0.933,1.193c-2.046-6.033-8.896-27.26-12.018-33.627c-0.471-0.96-0.713-1.828-0.807-2.616
					c-2.511-7.008-6.497-19.08-7.622-24.291c-0.598,5.962-1.012,19.429-2.233,25.725c2.758,8.532-1.102,26.51-0.664,36.733
					c-1.207-1.723-2.259-2.089-2.739-2.019c-0.778,0.114-1.161,0.761-1.161,0.761C354.935,424.274,352.485,410.674,351.704,403.611z
					"/>
				<path style="fill:#EBAF84;" d="M362.34,319.589c-2.284-0.6-5.335,0.134-6.489,0.966c-5.75,4.14-10.152,7.509-12.362,8.892
					c-3.224-3.026-9.646-8.242-10.487-9.31c-0.678-0.862-2.054,0.372-2.069,1.334c-0.019,1.184,1.397,1.302,3.556,4.404
					c3.109,4.469,4.194,5.509,7.273,8.165c0.415,0.358,0.884,0.541,1.35,0.597c0.161,0.033,0.326,0.039,0.493,0.009
					c0.31-0.025,0.608-0.105,0.878-0.234c1.809-0.571,5.111-2,11.072-5.725c4.258-2.66,5.847-4.008,7.012-4.947
					C364.644,322.067,363.757,319.961,362.34,319.589z"/>
				<path style="fill:#EBAF84;" d="M364.834,311.685c0.04,0.226,0.734,5.062,1.054,8.789c0.156,1.826-1.044,3.652-2.358,3.785
					c-0.02,0.002-0.038,0.004-0.057,0.005c-1.291,0.088-2.922-1.431-2.931-3.233c-0.015-3.262-0.397-6.574-0.406-6.626
					L364.834,311.685z"/>
				<path style="fill:#FFB507;" d="M370.044,332.432c-0.908,3.382-1.295,6.888-1.633,10.368c-0.25,2.554,0.04,5.176,0.556,7.683
					c0.313,1.519,0.719,3.019,1.17,4.503c0.115,0.377,1.477,3.196,2.385,5.157c0.411,0.888-0.215,1.902-1.193,1.928
					c-4.744,0.125-16.554,0.439-20.404,0.566c-0.66,0.022-1.187-0.541-1.111-1.196c0.6-5.199,4.393-17.526,0.958-25.006
					c-2.597-5.656,0.314-6.035,1.966-11.003c0.405-1.217,0.708-2.545,1.441-3.62c0.707-1.039,1.902-1.81,3.084-2.194
					c0.629-0.205,1.285-0.31,1.938-0.408c3.54-0.531,11.852-2.135,12.987,2.877c0.309,1.367,0.192,2.771-0.137,4.123
					c-0.369,1.51-0.976,2.949-1.467,4.424C370.385,331.229,370.206,331.828,370.044,332.432z"/>
				<path style="fill:#EBAF84;" d="M367.125,307.991c-0.13,4.179-0.19,5.106-1.886,6.93c-1.697,1.824-4.237,2.78-6.204,2.914
					c-2.124,0.145-3.853-1.991-4.453-3.715c-0.621-1.785-1.494-6.01-1.208-10.596c0.144-2.324,2.797-5.314,5.73-5.514
					C362.036,297.809,367.445,297.781,367.125,307.991z"/>
				<path style="fill:#321144;" d="M355.449,437.97c-0.208,0.483-7.721,3.846-5.803,4.344c1.918,0.498,4.077-0.03,5.171-0.284
					c1.094-0.253,2.167-0.351,3.472-0.448c1.72-0.128,1.726-0.236,1.362-2.162C359.15,436.769,356.122,436.408,355.449,437.97z"/>
				<path style="fill:#321144;" d="M382.971,436.926c-0.209,0.484-6.744,4.967-4.826,5.465c1.918,0.498,4.077-0.03,5.171-0.284
					c1.095-0.253,4.22-1.805,3.856-3.731C386.671,435.725,383.643,435.363,382.971,436.926z"/>
				<path style="fill:#EBAF84;" d="M365.892,308.128c-0.488,1.476-0.257,2.88,0.516,3.136c0.773,0.256,1.796-0.734,2.284-2.21
					c0.489-1.475,0.257-2.879-0.516-3.135C367.403,305.663,366.381,306.652,365.892,308.128z"/>
				<g>
					<defs>
						<path id="SVGID_1_" d="M383.712,436.182c-0.114,0.053-0.22,0.118-0.317,0.195
							C383.483,436.292,383.589,436.228,383.712,436.182z"/>
					</defs>
					<use xlink:href="#SVGID_1_"  style="overflow:visible;fill:#FFC385;"/>
					<clipPath id="SVGID_00000098211433619111966700000006888809017850911891_">
						<use xlink:href="#SVGID_1_"  style="overflow:visible;"/>
					</clipPath>
				</g>
				<g>
					<g>
						
							<rect x="340.5" y="264.009" transform="matrix(-0.6703 0.7421 -0.7421 -0.6703 820.4083 280.214)" style="fill:#1C00A0;" width="14.916" height="116.687"/>
						
							<rect x="348.348" y="262.089" transform="matrix(-0.6703 0.7421 -0.7421 -0.6703 821.1904 276.4956)" style="fill:#FFFFFF;" width="1.657" height="117.145"/>
						
							<rect x="345.57" y="265.164" transform="matrix(-0.6703 0.7421 -0.7421 -0.6703 818.8317 283.6752)" style="fill:#FFFFFF;" width="1.657" height="117.145"/>
						
							<rect x="384.501" y="360.531" transform="matrix(-0.6703 0.7421 -0.7421 -0.6703 923.6364 313.6846)" style="fill:#FFFFFF;" width="15.271" height="2.974"/>
						<path style="fill:#FF572B;" d="M394.646,369.31l4.998-5.533c1.447-1.601,1.321-4.072-0.28-5.519l-1.006-0.908l-10.236,11.332
							l1.006,0.908C390.729,371.036,393.2,370.911,394.646,369.31z"/>
						<polygon style="fill:#EBAF84;" points="299.658,288.78 309.657,277.711 299.536,275.777 295.053,274.914 296.466,279.177 
													"/>
						<polygon style="fill:#FF572B;" points="296.466,279.177 299.536,275.777 295.053,274.914 						"/>
					</g>
				</g>
				<path style="fill:#EBAF84;" d="M385.462,336.097c-0.697-1.443-2.602-4.447-8.353-10.332c-3.509-3.591-5.166-4.855-6.332-5.792
					c-2.077-1.67-3.945-0.355-4.006,1.109c-0.097,2.359,1.272,5.183,2.33,6.133c4.734,4.247,8.624,7.564,10.692,9.547
					c-3.651,2.939-9.626,8.397-10.813,9.075c-0.062,0.035-0.093,0.085-0.139,0.128c-1.164,0.08-2.44,0.331-3.116,0.795
					c-0.655,0.449,0.737,0.455,1.74,0.471c-1.808,1.016-2.978,1.409-3.521,2.388c-0.612,1.105,1.753,1.26,2.599,0.908
					c0.846-0.352,3.95-1.428,4.261-2.474c0,0,0-0.001,0-0.001c0.784-0.381,1.615-1.533,4.306-2.868
					c5.069-2.516,6.306-3.474,9.507-6.235c0.592-0.511,0.868-1.176,0.905-1.828C385.624,336.775,385.618,336.421,385.462,336.097z"
					/>
				<path style="fill:#EBAF84;" d="M333.274,321.738c0.451-0.569,1.109-1.474,1.463-2.478c0.203-0.574-0.043-1.302-0.734-1.197
					c-0.605,0.092-2.292,1.069-2.599,1.94c-0.26,0.738-0.177,1.686,0.147,2.309C331.876,322.936,332.537,322.668,333.274,321.738z"
					/>
			</g>
		</g>
		<polygon style="fill:#FFB507;" points="366.766,319.028 366.407,317.745 359.103,318.541 359.2,319.21 		"/>
		<path style="fill:#321144;" d="M367.231,299.263c-1.748-1.909-6.963-3.775-10.738-1.068c-1.218,0.527-2.679,2.013-3.122,2.95
			c-0.846,1.792-0.383,5.587-0.031,4.352c0.21-0.734,0.897-1.309,1.694-1.862c1.482,1.207,4.078,2.387,6.539,3.202l1.444,9.091
			h6.592C371.193,301.426,367.231,299.263,367.231,299.263z"/>
	</g>
	<g>
		<g>
			
				<rect x="124.886" y="365.832" transform="matrix(0.9029 -0.4298 0.4298 0.9029 -147.5717 108.308)" style="opacity:0.4;fill:#8E8AFF;" width="82.174" height="29.995"/>
			<line style="fill:none;stroke:#1C00A0;stroke-miterlimit:10;" x1="131.095" y1="387.158" x2="189.029" y2="359.58"/>
			<line style="fill:none;stroke:#1C00A0;stroke-miterlimit:10;" x1="137.483" y1="400.577" x2="180.422" y2="380.137"/>
			<line style="fill:none;stroke:#1C00A0;stroke-miterlimit:10;" x1="134.289" y1="393.867" x2="165.179" y2="379.163"/>
		</g>
		<g>
			<path style="fill:#EBAF84;" d="M137.99,381.837l-11.092,7.39l5.525,17.24c0,0,4.018,1.794,4.751,3.181s2.039,3.181,1.305,3.099
				c-0.734-0.081-2.854-1.876-3.262-1.876c-0.408,0,0.652,4.893,0.652,4.893s-3.67-0.489-5.056-2.61
				c-1.387-2.12-2.218-5.872-2.218-5.872s-5.565-10.399-7.733-18.73c-0.339-1.302,0.128-2.68,1.159-3.546
				c3.508-2.949,11.649-9.635,14.746-10.836C140.763,372.621,143.21,378.93,137.99,381.837z"/>
			<path style="fill:#18008A;" d="M148.47,403.164l1.356,2.184c0,0,30.247-1.572,34.285,3.688c4.037,5.26-5.26,14.558-16.271,21.653
				s-7.218,4.893-7.218,4.893s10.521,1.468,10.399,3.059c-0.122,1.59-20.063,0-20.063,0l17.861-20.43l-25.079,1.223l-5.383-15.047
				L148.47,403.164z"/>
			<path style="fill:#1C00A0;" d="M147.594,402.185l0.876,5.872c0,0,13.987,8.931,19.492,16.638
				c5.505,7.707,10.057,16.085,7.9,19.329c-3.741,5.627-39.218-9.42-39.218-9.42l1.101,5.872c0,0,3.253,2.312,2.654,3.169
				c-0.599,0.856-9.016-1.334-9.016-1.334s-3.181-13.335-2.08-16.148c1.101-2.814,8.033,3.548,8.033,3.548l17.809,2.208
				c0,0-13.486-6.367-20.827-11.995c-5.413-4.15-6.661-11.377-3.269-17.739H147.594z"/>
			<path style="fill:#EBAF84;" d="M137.337,429.711l13.064,1.619c-0.526,1.106-1.411,3.895-0.092,8.543
				c-7.476-2.646-13.665-5.269-13.665-5.269l1.101,5.872c0,0,3.253,2.312,2.654,3.169c-0.599,0.856-9.016-1.334-9.016-1.334
				s-3.181-13.335-2.08-16.148C130.405,423.35,137.337,429.711,137.337,429.711z"/>
			<path style="fill:#FFC385;" d="M135.512,428.178l1.825,1.533l-0.364,6.65l0.771,4.115c0,0,3.253,2.312,2.654,3.169
				c-0.402,0.575-3.241,0.32-6.365-0.56c-1.645-0.463-2.896-1.796-3.252-3.467c-0.863-4.048-2.266-11.442-1.478-13.455
				C130.04,424.282,133.377,426.5,135.512,428.178z"/>
			<path style="fill:#FFB507;" d="M163.13,356.677c0,0,6.361,8.38-5.689,10.888c-12.05,2.508-9.997-4.263-9.199-5.913
				C149.039,360.001,158.971,355.086,163.13,356.677z"/>
			<path style="fill:#EBAF84;" d="M161.907,359.851c0,0-1.178,5.172,0,7.071h-1.833c0,0-1.048,2.03-1.768,3.405
				c-0.72,1.375-3.077-0.589-3.994,0c-0.917,0.589-2.641,5.587-2.641,5.587l-9.013-2.706l7.529-15.582L161.907,359.851z"/>
			<path style="fill:#FF572B;" d="M154.137,372.403c0,0-3.18,0.545-7.747-2.228l-1.631,1.631l-5.791,0.619
				c0,0-5.22,6.476-6.117,14.387c-0.897,7.911-4.746,18.595-3.197,18.921c1.55,0.326,16.187,0.747,18.815,0
				c1.356-0.385-0.693-10.195,1.427-12.234c2.12-2.039,4.96-3.478,5.954-6.688c1.427-4.608-2.447-11.826-2.447-11.826
				L154.137,372.403z"/>
			<path style="fill:#EBAF84;" d="M169.537,393.042c0,0-8.365-8.534-10.567-11.47c-2.202-2.936-6.056-5.659-8.502-2.642
				c-2.111,2.603,1.59,6.556,2.386,7.78c0.609,0.937,9.452,8.94,13.563,12.639c1.242,1.118,3.051,1.321,4.513,0.513l16.224-8.965
				c0,0,1.51,0.791,3.528,0.546c2.019-0.245,1.726-0.211,2.582-1.006c0.856-0.795,3.67-2.728,3.67-3.891
				c0,0-6.239,0.908-7.157,0.052c-0.918-0.857,1.04-3.487,0.061-4.343l-3.418,4.291L169.537,393.042z"/>
			<path style="fill:#321144;" d="M164.496,356.555c-0.36-4.742-8.156-6.117-12.723-4.323s-5.138,5.791-9.134,7.585
				c-3.996,1.794-4.078,5.383-6.198,7.503c-2.121,2.12-5.546,5.79-3.262,10.031c2.284,4.241,8.074-1.305,11.418-2.202
				c3.344-0.897,2.283-3.099,4.241-5.872c1.957-2.773,7.34-2.447,8.156-7.259C156.993,362.019,164.985,362.997,164.496,356.555z"/>
		</g>
	</g>
	<g>
		<path style="fill:#25232A;" d="M217.488,230.445c0,0,9.105,2.791,9.876,4.855l-14.89-1.299l2.286-3.794L217.488,230.445z"/>
		<path style="fill:#25232A;" d="M223.942,230.445c0,0,9.105,2.791,9.876,4.855l-14.89-1.299l2.286-3.794L223.942,230.445z"/>
		<g>
			<path style="fill:#18008A;" d="M210.31,167.859l0.991,6.818c0,0,23.928,12.112,24.671,19.134
				c0.694,6.561-10.43,37.234-10.43,37.234h-3.716l0.743-35.226c0,0-9.149-2.425-23.205-10.649
				c-5.925-3.467-6.778-11.103-3.327-17.311H210.31z"/>
			<path style="fill:#1C00A0;" d="M203.303,167.859l0.991,6.818c0,0,23.928,12.112,24.671,19.134
				c0.694,6.561-10.43,37.234-10.43,37.234h-3.716l0.743-35.226c0,0-9.149-2.425-23.205-10.649
				c-5.925-3.467-6.778-11.103-3.327-17.311H203.303z"/>
			<g>
				<path style="fill:#321144;" d="M223.714,119.13c0.915,0.455,1.34-3.012,1.421-4.207c0.081-1.195-0.673-2.214-1.591-2.663
					c-0.917-0.448-2.086-1.188-3.112-1.177c-2.413,0.025-2.413,0.025-4.826,0.05c-1.009,0.01-2.052,0.029-3.008,0.506
					c-1.749,0.872-2.814,3.132-3.027,5.282c-0.213,2.149,0.264,4.233,0.738,6.258c0.316,1.352,0.763,2.873,1.904,3.311
					c1.108,0.425,2.386-0.402,3.266-1.434c1.423-1.67,2.926-0.779,4.128-2.664c1.203-1.884,0.895-3.548,2.773-3.16"/>
			</g>
			<path style="fill:#EBAF84;" d="M220.994,154.273l-0.266,7.984l11.767,8.352l2.501,0.629c0.733,0.184,1.322,0.728,1.565,1.443
				l0.069,0.203l-2.69,0.117l2.214,3.269c0.434,0.64,0.207,1.515-0.483,1.864l-1.382,0.7c-0.518,0.262-1.148,0.144-1.535-0.289
				l-5.46-6.097l-12.429-6.957c-0.795-0.445-1.264-1.306-1.206-2.215l0.66-10.454L220.994,154.273z"/>
			<polygon style="fill:#FFB507;" points="220.805,139.738 223.146,155.88 212.969,157.815 214.114,144.743 			"/>
			<path style="fill:#FFB507;" d="M213.636,131.371c-3.738-0.996-11.006,0.178-14.611,5.425
				c-3.605,5.247-11.962,25.447-12.022,35.284c0,0,12.826,2.298,24.273-0.837c0,0,2.279-12.067,4.46-17.082
				c2.181-5.015,2.034-4.847,5.069-14.423C220.805,139.738,219.616,132.964,213.636,131.371z"/>
			<path style="fill:#EBAF84;" d="M222.604,118.173l0.542,5.391l-1.566-0.137c0,0-0.032,2.648-0.139,3.774
				c-0.107,1.127-0.866,2.196-3.64,1.618l-1.321,7.205c0,0-3.845,1.221-6.609-4.784l2.101-6.885c0,0-1.93-0.463-1.918-2.439
				c0.012-1.976,2.488-0.793,2.488-0.793l0.253,3.809l1.792,0.535l0.428-6.358c0,0,4.173,1.203,5.463,0.224
				c0.677-0.514,1.171-1.244,1.171-1.244L222.604,118.173z"/>
			<g>
				<polygon style="fill:#AEA2E9;" points="198.585,178.802 214.881,185.196 241.534,185.732 254.517,165.241 227.078,163.534 
					215.207,183.342 198.687,177.376 				"/>
				<path style="fill:#F3F0D8;" d="M237.972,175.065c-0.351,0.925-1.225,1.482-1.951,1.244c-0.726-0.238-1.031-1.182-0.68-2.107
					c0.351-0.925,1.225-1.482,1.951-1.243C238.018,173.196,238.323,174.14,237.972,175.065z"/>
			</g>
			<path style="fill:#EBAF84;" d="M201.584,151.923l-1.135,10.29l13.269,12.102c0,0,7.275,1.382,7.346,2.106
				c0.071,0.724-3.504,0.83-3.504,0.83l2.899,4.675l0.144,0.14c1.092,1.063,0.632,2.909-0.832,3.335l-0.865,0.252
				c-0.648,0.188-1.347,0.036-1.857-0.405l-2.111-1.826c-0.208-0.18-0.392-0.386-0.546-0.613l-3.494-5.117L194.58,166.52
				c-0.704-0.482-1.137-1.27-1.167-2.122l-0.463-13.224L201.584,151.923z"/>
			<path style="fill:#FFB507;" d="M202.259,134.078c3.642,1.09,4.107,5.061,3.725,8.787c-0.382,3.726,0.11,9.959,0.11,9.959
				l-13.901-2.404c0,0,2.084-10.913,3.257-13.003C197.221,134.263,199.768,133.333,202.259,134.078z"/>
		</g>
	</g>
</g>
<g id="DESIGNED_BY_FREEPIK">
	<g>
		<g id="XMLID_24_">
			<g id="XMLID_210_">
				<path id="XMLID_278_" style="fill:#1D262D;" d="M259.231,470.525c-0.395,0.405-0.734,0.85-1.013,1.327l-0.425-0.22
					c-0.061-0.272-0.319-0.459-0.602-0.426c-0.302,0.036-0.519,0.31-0.483,0.612c0.036,0.302,0.31,0.519,0.612,0.483
					c0.06-0.007,0.116-0.024,0.168-0.048l0.413,0.214c-0.229,0.506-0.395,1.04-0.493,1.593l0.682,0.12
					c0.21-1.193,0.776-2.29,1.637-3.172L259.231,470.525z"/>
				<path id="XMLID_277_" style="fill:#1D262D;" d="M264.244,468.422c-0.156,0-0.311,0.005-0.466,0.015l-0.067-0.572
					c0.171-0.136,0.27-0.355,0.243-0.589c-0.042-0.359-0.368-0.616-0.727-0.574s-0.616,0.368-0.574,0.727
					c0.027,0.232,0.173,0.421,0.37,0.515l0.067,0.57c-0.652,0.106-1.282,0.303-1.882,0.59l0.299,0.625
					c0.853-0.408,1.774-0.615,2.736-0.615c0.454,0,0.907,0.048,1.348,0.144l0.147-0.677
					C265.25,468.476,264.747,468.422,264.244,468.422z"/>
				<path id="XMLID_265_" style="fill:#1D262D;" d="M270.276,470.749c0.302-0.037,0.517-0.312,0.48-0.614
					c-0.037-0.302-0.312-0.517-0.614-0.48c-0.283,0.035-0.489,0.278-0.484,0.556l-0.38,0.332c-0.382-0.393-0.813-0.742-1.286-1.041
					l-0.369,0.586c1.036,0.653,1.846,1.577,2.342,2.672l0.631-0.286c-0.229-0.506-0.518-0.979-0.861-1.411l0.367-0.321
					C270.158,470.754,270.216,470.757,270.276,470.749z"/>
				<path id="XMLID_264_" style="fill:#1D262D;" d="M263.744,477.748c-0.353,0.021-0.708,0.032-1.057,0.032
					c-0.804,0-1.583-0.056-2.264-0.164c-0.357-0.057-0.773-0.142-1.16-0.267c0.956,1.7,2.804,2.855,4.923,2.855
					c2.609,0,4.807-1.751,5.435-4.114c-0.623,0.41-1.375,0.754-2.246,1.025C266.297,477.452,265.04,477.67,263.744,477.748z"/>
				<path id="XMLID_233_" style="fill:#1D262D;" d="M264.244,469.807c-3.063,0-5.554,2.436-5.554,5.43
					c0,0.389,0.042,0.776,0.125,1.152c0.615,0.441,2.472,0.813,4.885,0.668c2.63-0.158,4.839-0.875,6.095-1.972
					c-0.005-0.178-0.019-0.356-0.041-0.532C269.407,471.848,267.038,469.807,264.244,469.807z M262.271,475.759
					c-0.932,0-1.69-0.758-1.69-1.69s0.758-1.69,1.69-1.69c0.932,0,1.69,0.758,1.69,1.69S263.203,475.759,262.271,475.759z
					 M266.599,474.929c-0.685,0-1.243-0.557-1.243-1.243c0-0.685,0.557-1.243,1.243-1.243c0.685,0,1.243,0.558,1.243,1.243
					C267.842,474.372,267.285,474.929,266.599,474.929z"/>
			</g>
			<path id="XMLID_209_" style="fill:#1D262D;" d="M278.864,471.513c-0.269-0.106-0.736-0.282-1.263-0.217
				c-0.503,0.063-0.771,0.311-0.771,0.92v0.791h2.035v1.569h-2.035v4.983h-1.765v-4.983h-1.224v-1.569h1.224v-0.811
				c0-1.535,0.818-2.542,2.346-2.542c0.587,0,1.057,0.111,1.453,0.281L278.864,471.513z"/>
			<path id="XMLID_180_" style="fill:#1D262D;" d="M283.16,474.557c-0.161-0.027-0.327-0.042-0.481-0.042
				c-0.818,0-1.379,0.5-1.379,1.474v3.57h-1.765v-6.552h1.711v0.717c0.412-0.615,1.041-0.893,1.846-0.893
				c0.379,0,0.774,0.117,1,0.308L283.16,474.557z"/>
			<path id="XMLID_141_" style="fill:#1D262D;" d="M290.165,476.273c0,0.203-0.014,0.446-0.034,0.595h-4.645
				c0.189,0.947,0.852,1.359,1.684,1.359c0.568,0,1.183-0.23,1.657-0.629l1.035,1.136c-0.744,0.683-1.691,0.994-2.793,0.994
				c-2.008,0-3.401-1.366-3.401-3.428c0-2.062,1.352-3.469,3.313-3.469C288.867,472.831,290.158,474.231,290.165,476.273z
				 M285.493,475.664h2.901c-0.162-0.839-0.669-1.312-1.427-1.312C286.135,474.353,285.648,474.853,285.493,475.664z"/>
			<path id="XMLID_69_" style="fill:#1D262D;" d="M297.157,476.273c0,0.203-0.014,0.446-0.034,0.595h-4.645
				c0.189,0.947,0.852,1.359,1.684,1.359c0.568,0,1.183-0.23,1.657-0.629l1.035,1.136c-0.744,0.683-1.69,0.994-2.793,0.994
				c-2.008,0-3.401-1.366-3.401-3.428c0-2.062,1.352-3.469,3.313-3.469C295.858,472.831,297.15,474.231,297.157,476.273z
				 M292.484,475.664h2.901c-0.162-0.839-0.67-1.312-1.427-1.312C293.127,474.353,292.64,474.853,292.484,475.664z"/>
			<path id="XMLID_325_" style="fill:#1D262D;" d="M304.781,476.28c0,1.968-1.366,3.448-3.171,3.448
				c-0.879,0-1.501-0.345-1.927-0.852v3.388h-1.758v-9.257h1.724v0.724c0.426-0.534,1.055-0.899,1.954-0.899
				C303.415,472.831,304.781,474.312,304.781,476.28z M299.595,476.28c0,1.034,0.683,1.805,1.684,1.805
				c1.041,0,1.69-0.805,1.69-1.805s-0.649-1.805-1.69-1.805C300.278,474.474,299.595,475.245,299.595,476.28z"/>
			<path id="XMLID_35_" style="fill:#1D262D;" d="M307.616,470.863c0,0.636-0.494,1.122-1.129,1.122s-1.122-0.487-1.122-1.122
				c0-0.636,0.487-1.136,1.122-1.136S307.616,470.228,307.616,470.863z M307.379,479.559h-1.765v-6.552h1.765V479.559z"/>
			<path id="XMLID_25_" style="fill:#1D262D;" d="M310.324,475.34l2.468-2.333h2.164l-3.178,3.083l3.198,3.469h-2.171l-2.482-2.651
				v2.651h-1.765v-9.737h1.765V475.34z"/>
		</g>
		<g>
			<path style="fill:#1D262D;" d="M190.082,479.5v-0.964c-0.482,0.656-1.271,1.124-2.181,1.124c-1.686,0-2.877-1.285-2.877-3.385
				c0-2.061,1.178-3.399,2.877-3.399c0.87,0,1.659,0.428,2.181,1.138v-3.439h1.004v8.926H190.082z M190.082,477.747v-2.931
				c-0.361-0.562-1.137-1.044-1.94-1.044c-1.298,0-2.074,1.071-2.074,2.503c0,1.432,0.776,2.489,2.074,2.489
				C188.944,478.764,189.72,478.309,190.082,477.747z"/>
			<path style="fill:#1D262D;" d="M192.383,476.261c0-1.874,1.338-3.386,3.185-3.386c1.954,0,3.105,1.526,3.105,3.466v0.255h-5.232
				c0.08,1.218,0.937,2.235,2.329,2.235c0.736,0,1.485-0.295,1.994-0.816l0.482,0.656c-0.642,0.642-1.512,0.99-2.569,0.99
				C193.761,479.66,192.383,478.282,192.383,476.261z M195.555,473.706c-1.379,0-2.061,1.164-2.115,2.154h4.242
				C197.669,474.896,197.027,473.706,195.555,473.706z"/>
			<path style="fill:#1D262D;" d="M199.395,478.643l0.522-0.722c0.428,0.495,1.245,0.923,2.128,0.923
				c0.99,0,1.526-0.469,1.526-1.111c0-1.565-4.001-0.602-4.001-2.998c0-1.003,0.87-1.86,2.408-1.86c1.097,0,1.874,0.415,2.396,0.937
				l-0.469,0.696c-0.388-0.469-1.097-0.816-1.927-0.816c-0.883,0-1.432,0.442-1.432,1.017c0,1.418,4.001,0.482,4.001,2.997
				c0,1.084-0.87,1.954-2.542,1.954C200.947,479.66,200.051,479.339,199.395,478.643z"/>
			<path style="fill:#1D262D;" d="M205.671,471.444c0-0.375,0.308-0.682,0.669-0.682c0.375,0,0.682,0.308,0.682,0.682
				s-0.308,0.669-0.682,0.669C205.979,472.113,205.671,471.819,205.671,471.444z M205.845,479.5v-6.463h1.004v6.463H205.845z"/>
			<path style="fill:#1D262D;" d="M208.508,481.159l0.508-0.749c0.535,0.642,1.178,0.883,2.101,0.883
				c1.071,0,2.074-0.522,2.074-1.94v-0.924c-0.468,0.656-1.258,1.151-2.168,1.151c-1.686,0-2.877-1.258-2.877-3.346
				c0-2.074,1.178-3.359,2.877-3.359c0.87,0,1.646,0.428,2.168,1.138v-0.977h1.003v6.276c0,2.141-1.499,2.81-3.078,2.81
				C210.02,482.122,209.27,481.908,208.508,481.159z M213.191,477.64v-2.824c-0.348-0.562-1.124-1.044-1.927-1.044
				c-1.298,0-2.074,1.031-2.074,2.462c0,1.419,0.776,2.462,2.074,2.462C212.067,478.697,212.843,478.202,213.191,477.64z"/>
			<path style="fill:#1D262D;" d="M220.23,479.5v-4.229c0-1.137-0.575-1.499-1.445-1.499c-0.79,0-1.539,0.482-1.913,1.004v4.724
				h-1.004v-6.463h1.004v0.937c0.455-0.535,1.338-1.097,2.301-1.097c1.352,0,2.061,0.682,2.061,2.087v4.536H220.23z"/>
			<path style="fill:#1D262D;" d="M222.531,476.261c0-1.874,1.338-3.386,3.185-3.386c1.954,0,3.105,1.526,3.105,3.466v0.255h-5.232
				c0.08,1.218,0.937,2.235,2.328,2.235c0.736,0,1.485-0.295,1.994-0.816l0.482,0.656c-0.642,0.642-1.512,0.99-2.569,0.99
				C223.91,479.66,222.531,478.282,222.531,476.261z M225.703,473.706c-1.378,0-2.061,1.164-2.114,2.154h4.242
				C227.817,474.896,227.175,473.706,225.703,473.706z"/>
			<path style="fill:#1D262D;" d="M234.789,479.5v-0.964c-0.482,0.656-1.271,1.124-2.181,1.124c-1.686,0-2.877-1.285-2.877-3.385
				c0-2.061,1.177-3.399,2.877-3.399c0.87,0,1.66,0.428,2.181,1.138v-3.439h1.004v8.926H234.789z M234.789,477.747v-2.931
				c-0.362-0.562-1.137-1.044-1.94-1.044c-1.298,0-2.074,1.071-2.074,2.503c0,1.432,0.776,2.489,2.074,2.489
				C233.652,478.764,234.428,478.309,234.789,477.747z"/>
			<path style="fill:#1D262D;" d="M240.583,479.5v-8.926h1.003v3.439c0.522-0.709,1.298-1.138,2.182-1.138
				c1.686,0,2.877,1.338,2.877,3.399c0,2.101-1.191,3.385-2.877,3.385c-0.91,0-1.699-0.468-2.182-1.124v0.964H240.583z
				 M243.513,478.764c1.312,0,2.088-1.057,2.088-2.489c0-1.432-0.776-2.503-2.088-2.503c-0.789,0-1.579,0.482-1.927,1.044v2.931
				C241.935,478.309,242.724,478.764,243.513,478.764z"/>
			<path style="fill:#1D262D;" d="M247.742,481.119c0.147,0.067,0.388,0.107,0.549,0.107c0.441,0,0.736-0.147,0.964-0.682
				l0.428-0.977l-2.703-6.53h1.084l2.154,5.299l2.141-5.299h1.097l-3.238,7.775c-0.388,0.937-1.044,1.298-1.9,1.311
				c-0.214,0-0.549-0.04-0.736-0.094L247.742,481.119z"/>
		</g>
	</g>
</g>
</svg>
