<?xml version="1.0" encoding="utf-8"?>
<!-- Generator: Adobe Illustrator 27.5.0, SVG Export Plug-In . SVG Version: 6.00 Build 0)  -->
<svg version="1.1" xmlns="http://www.w3.org/2000/svg" xmlns:xlink="http://www.w3.org/1999/xlink" x="0px" y="0px"
	 viewBox="0 0 499.999 500" style="enable-background:new 0 0 499.999 500;" xml:space="preserve">
<g id="BACKGROUND">
</g>
<g id="OBJECTS">
	<g>
		<path style="opacity:0.29;fill:#C3B7FC;" d="M454.304,248.915c-7.99,19.58,2.73,38.69,8.79,57.39
			c8.31,25.59,12.1,59.11-4.52,82.32c-0.8,1.11-1.64,2.2-2.53,3.26c-17.56,20.94-45.67,23.01-70.94,24.66
			c-12.79,0.83-25.58,1.54-38.38,2.12c-20.87,0.96-41.75,1.58-62.64,1.87c-2.31,0.03-4.62,0.06-6.93,0.09
			c-16.99,0.16-33.97,0.06-50.95-0.17c-22.86-0.31-45.71-0.87-68.57-1.36c-6.58-0.14-13.15-0.28-19.73-0.4
			c-15.56-0.29-31.34-1.68-46.32-5.4c-16.77-4.18-32.54-11.28-45.89-23.07c-1.39-1.23-2.75-2.5-4.08-3.83
			c-26.14-26.05-35.51-64.99-20.89-99.34c6.54-15.36,17.52-30.18,15.89-46.8c-0.87-8.98-5.4-17.11-8.81-25.47
			c-13.18-32.31-12.88-82.06,19.35-103.6c14.38-9.61,32.44-11.26,49.6-13.43c47.29-5.97,78.26-46.66,121.51-63.24
			c26.12-10.02,56.25-12.59,81.69-0.97c23.29,10.64,38.66,33.45,62.41,42.75c21.08,8.25,44.76,4.69,65.98,13.2
			c20.61,8.28,38.37,23.96,48.38,43.88c11.05,21.99,12.32,48.47,4.3,71.66C475.324,221.525,460.834,232.905,454.304,248.915z"/>
		<g>
			<path style="opacity:0.48;fill:#FFFFFF;" d="M226.204,420.455c-22.86-0.31-45.71-0.87-68.57-1.36
				c-6.58-0.14-13.15-0.28-19.73-0.4c-15.56-0.29-31.34-1.68-46.32-5.4c-16.77-4.18-32.54-11.28-45.89-23.07l83.83-267.17h16
				l48.69,179.46L226.204,420.455z"/>
			<path style="opacity:0.48;fill:#FFFFFF;" d="M346.724,418.665c-20.87,0.96-41.75,1.58-62.64,1.87c-2.31,0.03-4.62,0.06-6.93,0.09
				c-16.99,0.16-33.97,0.06-50.95-0.17c-22.86-0.31-45.71-0.87-68.57-1.36l36.58-116.58l56.31-179.46h16l48.22,177.75
				L346.724,418.665z"/>
			<path style="opacity:0.48;fill:#FFFFFF;" d="M458.574,388.625c-0.8,1.11-1.64,2.2-2.53,3.26
				c-17.56,20.94-45.67,23.01-70.94,24.66c-12.79,0.83-25.58,1.54-38.38,2.12c-20.87,0.96-41.75,1.58-62.64,1.87
				c-2.31,0.03-4.62,0.06-6.93,0.09l37.59-119.82l55.78-177.75h16L458.574,388.625z"/>
		</g>
	</g>
	<g>
		<g>
			<path style="fill:#FFFFFF;" d="M436.516,163.185h-37.987c-8.645,0-15.719,7.074-15.719,15.719v18.339
				c0,6.807,4.394,12.624,10.479,14.797v11.493c0,1.9,2.297,2.851,3.64,1.508l12.079-12.079h27.508
				c8.645,0,15.719-7.074,15.719-15.719v-18.339C452.235,170.259,445.161,163.185,436.516,163.185z"/>
			<g>
				<path style="fill:#A797FB;" d="M403.416,187.928c0,2.877-2.332,5.209-5.209,5.209c-2.877,0-5.209-2.332-5.209-5.209
					c0-2.877,2.332-5.209,5.209-5.209C401.084,182.719,403.416,185.051,403.416,187.928z"/>
				<path style="fill:#A797FB;" d="M422.95,187.928c0,2.877-2.332,5.209-5.209,5.209s-5.209-2.332-5.209-5.209
					c0-2.877,2.332-5.209,5.209-5.209S422.95,185.051,422.95,187.928z"/>
				<path style="fill:#A797FB;" d="M442.483,187.928c0,2.877-2.332,5.209-5.209,5.209c-2.877,0-5.209-2.332-5.209-5.209
					c0-2.877,2.332-5.209,5.209-5.209C440.151,182.719,442.483,185.051,442.483,187.928z"/>
			</g>
		</g>
		<g>
			<path style="fill:#FFFFFF;" d="M68.658,179.998h36.702c8.353,0,15.187,6.834,15.187,15.187v17.718
				c0,6.577-4.245,12.197-10.125,14.296v11.104c0,1.835-2.219,2.755-3.517,1.457l-11.67-11.67H68.658
				c-8.353,0-15.187-6.834-15.187-15.187v-17.718C53.471,186.832,60.305,179.998,68.658,179.998z"/>
			<g>
				<path style="fill:#A797FB;" d="M100.638,203.904c0,2.78,2.253,5.033,5.033,5.033c2.78,0,5.033-2.253,5.033-5.033
					c0-2.779-2.253-5.033-5.033-5.033C102.891,198.871,100.638,201.124,100.638,203.904z"/>
				<path style="fill:#A797FB;" d="M81.765,203.904c0,2.78,2.253,5.033,5.033,5.033c2.779,0,5.033-2.253,5.033-5.033
					c0-2.779-2.253-5.033-5.033-5.033C84.018,198.871,81.765,201.124,81.765,203.904z"/>
				<path style="fill:#A797FB;" d="M62.892,203.904c0,2.78,2.253,5.033,5.033,5.033c2.78,0,5.033-2.253,5.033-5.033
					c0-2.779-2.253-5.033-5.033-5.033C65.145,198.871,62.892,201.124,62.892,203.904z"/>
			</g>
		</g>
		<g>
			<path style="fill:#FFFFFF;" d="M191.753,149.064h32.839c7.474,0,13.588,6.115,13.588,13.589v15.853
				c0,5.885-3.798,10.913-9.059,12.791v9.936c0,1.642-1.985,2.465-3.147,1.303l-10.442-10.442h-23.78
				c-7.474,0-13.588-6.115-13.588-13.588v-15.853C178.164,155.179,184.279,149.064,191.753,149.064z"/>
			<g>
				<path style="fill:#A797FB;" d="M220.366,170.454c0,2.487,2.016,4.503,4.503,4.503c2.487,0,4.503-2.016,4.503-4.503
					c0-2.487-2.016-4.503-4.503-4.503C222.382,165.951,220.366,167.967,220.366,170.454z"/>
				<path style="fill:#A797FB;" d="M203.48,170.454c0,2.487,2.016,4.503,4.503,4.503s4.503-2.016,4.503-4.503
					c0-2.487-2.016-4.503-4.503-4.503S203.48,167.967,203.48,170.454z"/>
				<path style="fill:#A797FB;" d="M186.594,170.454c0,2.487,2.016,4.503,4.503,4.503c2.487,0,4.503-2.016,4.503-4.503
					c0-2.487-2.016-4.503-4.503-4.503C188.61,165.951,186.594,167.967,186.594,170.454z"/>
			</g>
		</g>
	</g>
	<g>
		<g>
			<g>
				<rect x="376.623" y="44.088" style="fill:#A797FB;" width="2.247" height="69.655"/>
				<g>
					<g>
						<path style="fill:#E7AA36;" d="M377.559,112.994v21.211H353.18c-1.138,0-1.693-1.393-0.869-2.179l19.833-18.927l0.112-0.105
							H377.559z"/>
						<path style="fill:#ECBF4C;" d="M402.313,134.205h-24.754v-21.211h5.677l0.112,0.105l19.833,18.927
							C404.006,132.812,403.452,134.205,402.313,134.205z"/>
						<path style="fill:#C3B7FC;" d="M383.349,113.099l-0.112-0.105h-5.677v-8.239h1.812c1.813,0,3.303,1.431,3.385,3.235
							L383.349,113.099z"/>
					</g>
					<path style="fill:#A797FB;" d="M377.559,104.756v8.239h-5.303l-0.112,0.105l0.592-5.108c0.082-1.805,1.573-3.235,3.385-3.235
						H377.559z"/>
				</g>
			</g>
			<path style="fill:#C3B7FC;" d="M371.756,41.055h11.981c-0.455,3.443-2.965,6.066-5.99,6.066S372.211,44.498,371.756,41.055z"/>
		</g>
		<g>
			<g>
				<rect x="256.702" y="44.088" style="fill:#A797FB;" width="2.247" height="69.655"/>
				<g>
					<g>
						<path style="fill:#E7AA36;" d="M257.638,112.994v21.211h-24.379c-1.139,0-1.693-1.393-0.869-2.179l19.833-18.927l0.112-0.105
							H257.638z"/>
						<path style="fill:#ECBF4C;" d="M282.391,134.205h-24.754v-21.211h5.677l0.112,0.105l19.833,18.927
							C284.084,132.812,283.53,134.205,282.391,134.205z"/>
						<path style="fill:#C3B7FC;" d="M263.427,113.099l-0.112-0.105h-5.677v-8.239h1.813c1.813,0,3.303,1.431,3.385,3.235
							L263.427,113.099z"/>
					</g>
					<path style="fill:#A797FB;" d="M257.638,104.756v8.239h-5.303l-0.112,0.105l0.592-5.108c0.082-1.805,1.573-3.235,3.386-3.235
						H257.638z"/>
				</g>
			</g>
			<path style="fill:#C3B7FC;" d="M251.835,41.055h11.981c-0.455,3.443-2.965,6.066-5.99,6.066
				C254.799,47.121,252.29,44.498,251.835,41.055z"/>
		</g>
		<g>
			<g>
				<rect x="135.942" y="44.088" style="fill:#A797FB;" width="2.247" height="69.655"/>
				<g>
					<g>
						<path style="fill:#E7AA36;" d="M136.879,112.994v21.211h-24.379c-1.138,0-1.693-1.393-0.869-2.179l19.833-18.927l0.112-0.105
							H136.879z"/>
						<path style="fill:#ECBF4C;" d="M161.632,134.205h-24.754v-21.211h5.677l0.112,0.105l19.833,18.927
							C163.325,132.812,162.771,134.205,161.632,134.205z"/>
						<path style="fill:#C3B7FC;" d="M142.668,113.099l-0.112-0.105h-5.677v-8.239h1.812c1.813,0,3.303,1.431,3.385,3.235
							L142.668,113.099z"/>
					</g>
					<path style="fill:#A797FB;" d="M136.879,104.756v8.239h-5.303l-0.112,0.105l0.592-5.108c0.082-1.805,1.573-3.235,3.385-3.235
						H136.879z"/>
				</g>
			</g>
			<path style="fill:#C3B7FC;" d="M131.076,41.055h11.981c-0.455,3.443-2.965,6.066-5.99,6.066
				C134.04,47.121,131.53,44.498,131.076,41.055z"/>
		</g>
	</g>
	<g>
		<g>
			<g>
				<path style="fill:#FFFFFF;" d="M286.667,316.061c-7.351,1.002-14.302,1.648-20.801,2.028c-8.247,0.471-15.769,0.511-22.474,0.29
					c-10.095-0.34-18.338-1.272-24.387-2.203c0.25-2.314,0.681-5.483,1.207-8.983c0.205-1.357,0.421-2.764,0.646-4.191
					c0.536-3.395,1.117-6.89,1.668-10.06c0.255-1.472,0.506-2.879,0.741-4.166c0.486-2.669,0.906-4.847,1.202-6.169
					c0.195-0.876,0.405-1.747,0.631-2.619c0.351-1.332,0.736-2.654,1.167-3.966c1.067-3.27,2.409-6.455,4.101-9.434
					c0.776-1.362,1.622-2.684,2.549-3.946c1.167-1.582,2.454-3.074,3.886-4.462c1.643-1.592,3.5-3.01,5.503-4.196
					c6.2-3.7,13.786-5.248,20.656-3.095c1.492,0.471,2.91,1.092,4.251,1.848c3.616,2.043,6.655,5.043,9.004,8.468
					c0.821,1.192,1.557,2.439,2.203,3.71c0.15,0.301,0.301,0.601,0.446,0.906c1.177,2.484,2.078,5.063,2.799,7.702
					c0.456,1.657,0.836,3.335,1.172,5.023c0.436,2.178,0.791,4.376,1.117,6.57c0.09,0.611,0.181,1.252,0.271,1.908
					c0.215,1.607,0.416,3.34,0.606,5.148c0.3,2.819,0.576,5.834,0.816,8.863c0.14,1.727,0.27,3.465,0.391,5.178
					C286.286,309.682,286.496,313.057,286.667,316.061z"/>
				<path style="fill:#C3B7FC;" d="M278.865,265.82c-7.406,2.133-15.178,3.235-22.719,3.521c-6.059,0.23-12.133-0.135-18.127-1.092
					c-2.574-0.411-5.143-0.931-7.652-1.663c0.776-1.362,1.622-2.684,2.549-3.946c2.028,0.386,4.066,0.746,6.114,1.047
					c5.428,0.786,10.927,1.076,16.41,0.886c7.171-0.25,14.041-1.472,20.777-3.37c0.821,1.192,1.557,2.439,2.203,3.71
					C278.569,265.214,278.72,265.515,278.865,265.82z"/>
				<path style="fill:#C3B7FC;" d="M282.836,278.544c-8.978,3.33-18.763,4.962-28.193,5.318c-6.059,0.23-12.133-0.135-18.128-1.092
					c-2.904-0.461-5.804-1.067-8.613-1.953c-0.831-0.26-1.828-0.506-2.804-0.831c0.351-1.332,0.736-2.654,1.167-3.966
					c0.861,0.22,1.703,0.471,2.484,0.626c2.914,0.571,5.834,1.132,8.778,1.562c5.428,0.786,10.926,1.077,16.41,0.886
					c9.65-0.335,18.763-2.429,27.727-5.573C282.12,275.179,282.5,276.857,282.836,278.544z"/>
				<path style="fill:#C3B7FC;" d="M284.829,292.17c-10.436,3.595-21.958,5.088-32.98,5.083c-6.505-0.005-13-0.606-19.389-1.793
					c-3.1-0.571-6.189-1.287-9.169-2.278c-0.24-0.08-0.501-0.16-0.766-0.24c0.255-1.472,0.506-2.879,0.741-4.166
					c0.365,0.095,0.716,0.19,1.061,0.265c3.11,0.686,6.219,1.357,9.359,1.898c5.789,0.996,11.673,1.502,17.552,1.517
					c11.452,0.035,22.269-2.098,32.985-5.433C284.438,288.63,284.639,290.362,284.829,292.17z"/>
				<path style="fill:#C3B7FC;" d="M286.036,306.211c-11.057,3.921-23.415,5.518-35.213,5.493c-6.68-0.015-13.35-0.626-19.91-1.823
					c-3.185-0.581-6.359-1.302-9.419-2.299c-0.396-0.13-0.826-0.255-1.282-0.391c0.205-1.357,0.421-2.764,0.646-4.191
					c0.581,0.165,1.152,0.326,1.693,0.441c3.19,0.691,6.385,1.372,9.61,1.918c5.949,1.007,11.993,1.522,18.027,1.548
					c12.334,0.065,23.941-2.273,35.459-5.874C285.785,302.761,285.916,304.499,286.036,306.211z"/>
				<path style="fill:#DD6E5C;" d="M243.391,318.38c-10.095-0.34-18.338-1.272-24.387-2.203c0.901-8.403,4.256-28.178,5.463-33.571
					c2.003-8.969,5.603-17.912,12.333-24.427c1.643-1.592,3.5-3.01,5.503-4.196c0.391,3.015-0.265,7.747-0.215,9.84
					c0.09,3.871,0.185,7.736,0.275,11.607C242.71,289.746,243.056,304.063,243.391,318.38z"/>
				<path style="fill:#DD6E5C;" d="M267.167,263.822c0.06-2.409-0.831-8.333,0.045-11.087c4.877,2.754,8.703,7.251,11.207,12.178
					c3.19,6.285,4.502,13.28,5.533,20.201c1.267,8.493,2.173,21.507,2.714,30.947c-7.351,1.002-14.302,1.648-20.801,2.028
					c0.34-14.222,0.686-28.438,1.027-42.66C266.982,271.559,267.077,267.693,267.167,263.822z"/>
			</g>
			<g>
				<g>
					<path style="fill:#363271;" d="M229.883,236.096c-2.169-3.277-2.7-7.291-3.243-11.113c-1.75-12.324,3.233-25.942,15.847-30.668
						c6.874-2.575,14.869-3.09,21.735-0.221c13.142,5.492,15.719,19.204,15.015,31.698c-0.317,5.63-2.257,11.068-6.111,15.441
						c-3.047,3.458-6.624,6.035-11.377,6.822C250.074,249.988,238.003,248.366,229.883,236.096z"/>
					<g>
						<path style="fill:#F0C9A1;" d="M262.355,231.714v21.783c0,4.287-3.475,7.762-7.762,7.762c-4.287,0-7.762-3.475-7.762-7.762
							v-21.783H262.355z"/>
						<path style="fill:#E9B588;" d="M262.355,235.84v15.028c-3.305,1.002-6.7,1.723-10.14,1.653
							c-1.773-0.035-3.63-0.29-5.383-0.826v-13.38c0.881-0.421,1.808-0.756,2.729-1.037
							C253.687,236.02,258.048,235.529,262.355,235.84z"/>
						<path style="fill:#F0C9A1;" d="M233.668,224.452c0,13.966,7.413,25.288,19.029,25.288c11.616,0,21.032-11.322,21.032-25.288
							s-9.416-25.288-21.032-25.288C241.081,199.164,233.668,210.486,233.668,224.452z"/>
						<path style="fill:#F0C9A1;" d="M268.384,226.814c-0.963,4.035,0.874,7.931,4.102,8.701c3.228,0.77,6.626-1.876,7.589-5.912
							c0.963-4.035-0.874-7.931-4.102-8.701C272.745,220.132,269.347,222.778,268.384,226.814z"/>
						<path style="fill:#F0C9A1;" d="M226.821,229.603c-0.963-4.035,0.873-7.931,4.102-8.701c3.228-0.77,6.625,1.876,7.588,5.912
							c0.963,4.035-0.873,7.931-4.102,8.701C231.182,236.285,227.784,233.638,226.821,229.603z"/>
					</g>
				</g>
				<path style="fill:#FFFFFF;" d="M268.13,221.735h-8.212c-2.315,0-4.2,1.866-4.237,4.173h-4.18
					c-0.036-2.307-1.921-4.173-4.237-4.173h-8.212c-2.338,0-4.24,1.902-4.24,4.24v4.966c0,2.338,1.902,4.24,4.24,4.24h8.212
					c2.338,0,4.24-1.902,4.24-4.24v-2.715h4.173v2.715c0,2.338,1.902,4.24,4.24,4.24h8.212c2.338,0,4.24-1.902,4.24-4.24v-4.966
					C272.37,223.637,270.468,221.735,268.13,221.735z M249.65,230.942c0,1.315-1.07,2.385-2.385,2.385h-8.212
					c-1.315,0-2.385-1.07-2.385-2.385v-4.966c0-1.315,1.07-2.385,2.385-2.385h8.212c1.315,0,2.385,1.07,2.385,2.385V230.942z
					 M270.515,230.942c0,1.315-1.07,2.385-2.385,2.385h-8.212c-1.315,0-2.385-1.07-2.385-2.385v-4.966
					c0-1.315,1.07-2.385,2.385-2.385h8.212c1.315,0,2.385,1.07,2.385,2.385V230.942z"/>
				<path style="fill:#363271;" d="M246.959,219.003c7.201,0.454,14.78,0.34,21.136-3.021c6.356-3.362,10.96-10.897,8.699-17.642
					c-2.346,1.286-5.192-0.181-7.555-1.438c-5.38-2.862-11.389-4.764-17.504-4.747c-6.116,0.017-12.337,2.079-16.726,6.271
					c-3.488,3.332-7.019,10.678-3.904,15.293C234.05,218.082,242.254,218.706,246.959,219.003z"/>
			</g>
		</g>
		<g>
			<path style="fill:#363271;" d="M322.25,213.954c-1.398,5.847-1.274,11.933-1.733,17.927c-0.459,5.994-1.607,12.179-5.142,17.042
				c-1.01,1.39-2.209,2.662-2.973,4.201c-0.764,1.54-1.022,3.477-0.105,4.93c1.023,1.62,3.106,2.134,4.983,2.513
				c1.631,0.329,3.262,0.658,4.893,0.987c0.75,0.151,1.499,0.302,2.249,0.454c0.953,0.192,1.907,0.385,2.872,0.501
				c2.396,0.289,4.848,0.101,7.172-0.549c0.906-0.253,1.822-0.579,2.759-0.5c0.663,0.056,1.29,0.313,1.932,0.491
				c2.997,0.833,6.173-0.056,9.155-0.942c1.175-0.349,2.404-0.73,3.26-1.606c0.916-0.938,1.252-2.288,1.463-3.582
				c0.42-2.581,0.488-5.205,0.555-7.819c0.142-5.559,0.284-11.118,0.298-16.679c0.013-4.942-0.076-9.902-0.793-14.791
				c-0.566-3.855-1.576-7.77-3.931-10.873c-3.915-5.159-10.312-6.117-16.373-5.548C326.847,200.668,323.439,208.98,322.25,213.954z"
				/>
			<path style="fill:#363271;" d="M375.899,212.953c1.398,5.847,1.274,11.933,1.733,17.927c0.46,5.994,1.608,12.179,5.142,17.042
				c1.011,1.39,2.209,2.662,2.973,4.201c0.763,1.539,1.022,3.477,0.104,4.93c-1.022,1.62-3.105,2.134-4.983,2.513
				c-1.631,0.329-3.262,0.658-4.893,0.987c-0.75,0.151-1.499,0.302-2.248,0.454c-0.953,0.192-1.907,0.385-2.872,0.501
				c-2.396,0.289-4.848,0.101-7.171-0.549c-0.906-0.253-1.822-0.579-2.759-0.5c-0.663,0.056-1.29,0.313-1.932,0.491
				c-2.997,0.833-6.173-0.056-9.155-0.942c-1.175-0.349-2.404-0.73-3.26-1.606c-0.916-0.938-1.252-2.288-1.463-3.582
				c-0.42-2.581-0.488-5.205-0.555-7.819c-0.142-5.559-0.284-11.118-0.298-16.679c-0.013-4.942,0.076-9.902,0.793-14.791
				c0.566-3.855,1.576-7.77,3.931-10.873c3.915-5.159,10.312-6.117,16.373-5.548C371.302,199.666,374.709,207.979,375.899,212.953z"
				/>
			<path style="fill:#514E92;" d="M356.365,296.435c-0.015,5.183,0.02,10.371,0.14,15.549c0.085,4.041,0.225,8.082,0.426,12.118
				c-0.295,0.005-0.591,0.01-0.886,0.005c-0.295,0.005-0.591,0.005-0.886,0.005c-1.517,0-3.035-0.01-4.552-0.035
				c-0.441-0.005-0.876-0.015-1.312-0.02c-2.173-0.045-4.327-0.11-6.425-0.195c-1.052-0.045-2.083-0.09-3.1-0.14
				c-0.035,0-0.07,0-0.105-0.005c-0.345-0.02-0.691-0.035-1.031-0.055c-0.436-0.02-0.866-0.045-1.292-0.07
				c-0.681-0.04-1.352-0.085-2.008-0.125c-0.08-0.005-0.155-0.01-0.235-0.015c-0.366-0.025-0.731-0.05-1.087-0.075
				c-3.41-0.235-6.47-0.516-8.958-0.816c-0.13-0.015-0.26-0.03-0.386-0.05c-0.936-0.115-1.788-0.23-2.544-0.35
				c-0.27-0.045-0.521-0.085-0.761-0.125c-0.195-0.035-0.381-0.07-0.561-0.105c-0.145-0.025-0.286-0.055-0.421-0.08
				c-0.18-0.04-0.35-0.075-0.506-0.115c-0.07-0.015-0.135-0.03-0.2-0.05c-0.546-0.135-0.942-0.27-1.172-0.401
				c-0.035-0.02-0.065-0.04-0.09-0.06c-0.03-0.02-0.05-0.04-0.07-0.06c-1.873-1.963-0.15-7.191,0.155-9.534
				c1.047-7.992,2.368-15.969,4.457-23.776c1.873-7.015,4.372-13.891,7.787-20.326c0.676-1.282,1.392-2.544,2.143-3.786
				c1.688-2.779,3.585-5.483,6.084-7.597c0.125-0.105,0.255-0.215,0.385-0.31c0.351-0.275,0.711-0.541,1.082-0.791
				c0.035-0.025,0.075-0.05,0.11-0.075c5.138-3.44,12.063-4.221,17.897-2.103c-1.427,4.647-1.632,9.74-1.713,14.662
				c-0.015,1.197-0.03,2.384-0.05,3.55C356.53,279.525,356.38,287.983,356.365,296.435z"/>
			<path style="fill:#F0C9A1;" d="M362.714,269.179c-0.32,0.306-0.791,0.371-1.232,0.411c-6.69,0.646-13.455,0.431-20.09-0.646
				c-0.18-3.686-0.355-7.376-0.536-11.062c-0.045-0.947-0.2-1.948-0.31-2.915c6.049-4.051,14.577-4.417,20.887-0.701
				c0.501,0.295,0.987,0.611,1.452,0.947c0.07,4.146,0.145,8.292,0.22,12.439C363.115,268.193,363.1,268.803,362.714,269.179z"/>
			<path style="fill:#F0C9A1;" d="M357.682,234.477v21.783c0,4.287-3.475,7.762-7.762,7.762c-4.287,0-7.762-3.475-7.762-7.762
				v-21.783H357.682z"/>
			<path style="fill:#E9B588;" d="M357.682,239.694v16.024c-3.325-0.596-7.632-1.377-8.268-1.567
				c-2.514-0.756-4.957-1.718-7.256-2.954c-1.437-0.771-2.819-1.648-4.126-2.639c-4.882-3.716,0.13-5.704,4.126-7.311
				c0.005-0.005,0.015-0.005,0.02-0.01c4.206-1.692,8.738-2.589,13.27-2.599c0.446,0,0.901,0.005,1.307,0.185
				C357.156,239.003,357.451,239.314,357.682,239.694z"/>
			<path style="fill:#F0C9A1;" d="M324.132,226.214c0,13.966,7.413,25.288,19.029,25.288c11.616,0,21.032-11.322,21.032-25.288
				c0-13.966-9.416-25.288-21.032-25.288C331.546,200.926,324.132,212.248,324.132,226.214z"/>
			<path style="fill:#F0C9A1;" d="M358.849,228.575c-0.963,4.035,0.874,7.931,4.102,8.701c3.228,0.77,6.626-1.876,7.589-5.912
				c0.963-4.035-0.874-7.931-4.102-8.701C363.209,221.893,359.811,224.54,358.849,228.575z"/>
			<path style="fill:#363271;" d="M324.865,199.329c-5.138,3.469-9.261,9.006-9.476,15.202c-0.075,2.145,0.419,4.483,2.06,5.868
				c0.911,0.769,2.083,1.163,3.254,1.389c6.521,1.264,12.941-2.144,18.711-5.434c-0.206,2.577,2.979,3.943,5.546,4.252
				c6.464,0.777,13.121-0.117,19.151-2.57c3.208-1.305,6.472-3.309,7.641-6.569c1.706-4.758-1.814-9.843-5.876-12.852
				C353.906,189.753,336.834,191.247,324.865,199.329z"/>
			<path style="fill:#FFFFFF;" d="M348.85,223.501c-2.669,0-8.047,0.001-8.691,4.534h-2.943c-0.644-4.533-6.022-4.534-8.691-4.534
				c-2.842,0-8.755,0-8.755,5.472c0,4.397,3.928,7.974,8.755,7.974c4.479,0,8.181-3.08,8.693-7.036h2.94
				c0.512,3.956,4.214,7.036,8.693,7.036c4.828,0,8.755-3.577,8.755-7.974C357.606,223.501,351.692,223.501,348.85,223.501z
				 M328.525,235.071c-3.793,0-6.879-2.735-6.879-6.098c0-2.621,1.865-3.596,6.879-3.596c5.015,0,6.88,0.975,6.88,3.596
				C335.404,232.336,332.318,235.071,328.525,235.071z M348.85,235.071c-3.793,0-6.879-2.735-6.879-6.098
				c0-2.621,1.864-3.596,6.879-3.596c5.015,0,6.879,0.975,6.879,3.596C355.729,232.336,352.643,235.071,348.85,235.071z"/>
			<path style="fill:#FFFFFF;" d="M369.314,221.849l-13.372,4.897c-0.328,0.12-0.692-0.048-0.813-0.377l-0.349-0.953
				c-0.12-0.328,0.048-0.692,0.377-0.813l13.372-4.897c0.329-0.12,0.692,0.049,0.813,0.377l0.349,0.953
				C369.811,221.365,369.643,221.729,369.314,221.849z"/>
			<path style="fill:#FFFFFF;" d="M357.101,324.107c-0.055-0.005-0.115,0-0.17,0h-0.886c-0.295,0.005-0.591,0.005-0.886,0.005
				c-1.517,0-3.035-0.01-4.552-0.035c-0.441-0.005-0.876-0.015-1.312-0.02c-2.173-0.045-4.327-0.11-6.425-0.195
				c-1.047-0.04-2.083-0.09-3.1-0.14c-0.035,0-0.07,0-0.105-0.005c-0.345-0.02-0.691-0.035-1.031-0.055
				c-0.436-0.02-0.866-0.045-1.292-0.07c-0.681-0.04-1.352-0.085-2.008-0.125c-0.08-0.005-0.155-0.01-0.235-0.015
				c-0.366-0.025-0.731-0.05-1.087-0.075c-3.41-0.235-6.47-0.516-8.958-0.816c-0.13-0.015-0.26-0.03-0.386-0.05
				c-0.936-0.115-1.788-0.23-2.544-0.35c-0.266-0.04-0.516-0.085-0.761-0.125c-0.195-0.035-0.381-0.07-0.561-0.105
				c-0.145-0.025-0.286-0.055-0.421-0.08c-0.18-0.04-0.35-0.075-0.506-0.115c-0.07-0.015-0.135-0.03-0.2-0.05
				c-0.546-0.135-0.942-0.27-1.172-0.401c-0.035-0.02-0.065-0.04-0.09-0.06c-0.03-0.02-0.05-0.04-0.07-0.06
				c-1.873-1.963-0.15-7.191,0.155-9.534c1.047-7.992,2.368-15.969,4.457-23.776c1.873-7.015,4.372-13.891,7.787-20.326h25.99
				c-0.015,1.197-0.03,2.384-0.05,3.55c-0.15,8.448-0.3,16.906-0.315,25.358c-0.015,5.183,0.02,10.371,0.14,15.549
				c0.085,4.041,0.225,8.082,0.426,12.118C356.986,324.102,357.046,324.102,357.101,324.107z"/>
			<path style="fill:#514E92;" d="M343.265,323.877c-13.02-0.506-23.986-1.733-24.923-2.714c-1.873-1.963-0.15-7.191,0.155-9.534
				c1.047-7.992,2.368-15.969,4.457-23.776c1.873-7.015,4.372-13.891,7.787-20.326c0.676-1.282,1.392-2.544,2.143-3.786
				c1.688-2.779,3.585-5.483,6.084-7.597c0.125-0.105,0.255-0.215,0.385-0.31c0.351-0.275,0.711-0.541,1.082-0.791
				c0.961,2.048,1.012,5.764,1.292,7.667c0.436,2.944,0.741,5.909,0.966,8.878c0.506,6.75,0.561,13.531,0.586,20.301
				C343.33,302.549,343.325,313.211,343.265,323.877z"/>
			<path style="fill:#FFFFFF;" d="M366.84,234.477c0,0.83-0.672,1.502-1.502,1.502s-1.502-0.673-1.502-1.502
				s0.673-1.502,1.502-1.502S366.84,233.647,366.84,234.477z"/>
			<path style="fill:#FFFFFF;" d="M332.435,311.593h-32.487c-0.935,0-1.738-0.664-1.914-1.582l-8.367-43.675
				c-0.23-1.201,0.69-2.315,1.914-2.315h32.487c0.935,0,1.738,0.664,1.914,1.582l8.367,43.675
				C334.579,310.479,333.658,311.593,332.435,311.593z"/>
			<path style="fill:#F0C9A1;" d="M290.762,293.98c0.065,0.141,0.135,0.279,0.211,0.415c1.488,2.651,6.214,3.119,8.539,1.313
				c0.829-0.644,1.023-1.998,0.1-2.532c0.709-0.407,1.063-1.247,0.83-1.968c-0.233-0.721-1.035-1.266-1.879-1.276
				c0.691-0.384,1.175-1.102,1.076-1.821c-0.099-0.718-0.878-1.349-1.685-1.25c3.12-0.382-1.423-3.359-2.187-3.573
				c-2.09-0.585-4.214-0.148-5.302,1.941c-0.926,1.779-0.769,3.914-0.457,5.895C290.161,292.1,290.352,293.087,290.762,293.98z"/>
			<path style="fill:#F0C9A1;" d="M331.34,283.85c-1.033,0.177-1.308,1.51-1.349,2.557c-0.368-0.76-0.463-1.62-0.714-2.426
				c-0.251-0.806-0.733-1.624-1.531-1.9c-1.342-0.465-2.621,0.791-3.453,1.943c-1.531,2.119-2.974,4.79-2.032,7.229
				c0.389,1.008,1.145,1.825,1.903,2.595c1.364,1.384,2.795,2.702,4.286,3.948c0.756,0.632,1.623,1.278,2.607,1.238
				c1.082-0.044,1.953-0.913,2.525-1.833c1.415-2.279,1.178-4.635,0.417-7.068C333.542,288.672,333.707,283.445,331.34,283.85z"/>
			<path style="fill:#514E92;" d="M382.394,321.829c-0.426,0.11-0.871,0.215-1.332,0.32c-0.19,0.04-0.38,0.08-0.581,0.12
				c-0.22,0.05-0.446,0.095-0.676,0.135c-0.23,0.045-0.466,0.09-0.701,0.13c-0.506,0.095-1.032,0.18-1.567,0.26
				c-0.336,0.05-0.681,0.1-1.026,0.15c-1.162,0.16-2.389,0.3-3.656,0.426c-0.28,0.03-0.566,0.055-0.856,0.08
				c-0.571,0.055-1.152,0.1-1.743,0.145c-0.791,0.06-1.592,0.115-2.414,0.165c-0.401,0.025-0.806,0.05-1.212,0.07h-0.045
				c-0.296,0.015-0.591,0.03-0.886,0.045c-0.025,0-0.055,0.005-0.08,0.005c-0.596,0.025-1.197,0.05-1.803,0.075
				c-0.005,0-0.005,0-0.005,0c-0.32,0.01-0.636,0.025-0.956,0.035c-0.075,0-0.145,0.005-0.22,0.005
				c-0.401,0.015-0.801,0.025-1.202,0.035c-0.415,0.015-0.831,0.025-1.247,0.03c-0.906,0.015-1.828,0.03-2.749,0.04
				c-0.11,0-0.22,0-0.336,0.005c-0.055-0.005-0.115-0.005-0.17-0.005c-0.2-4.036-0.34-8.077-0.426-12.118
				c-0.12-5.178-0.155-10.366-0.14-15.549c0.015-8.453,0.165-16.911,0.315-25.358c0.02-1.167,0.035-2.354,0.05-3.55
				c0.08-4.922,0.285-10.015,1.713-14.662c1.037,0.376,2.038,0.841,2.989,1.402c0.406,0.24,0.801,0.491,1.182,0.761
				c0.09,0.055,0.18,0.12,0.271,0.185c0.691,0.491,1.347,1.026,1.968,1.597c3.195,2.914,5.538,6.745,7.321,10.716
				c0.16,0.355,0.316,0.711,0.466,1.067c3.741,8.843,5.343,18.383,6.921,27.827C380.967,304.838,382.374,313.301,382.394,321.829z"
				/>
			<path style="fill:#514E92;" d="M356.93,324.102c0.055,0,0.115,0,0.17,0.005c-0.055-0.005-0.115,0-0.17,0
				C356.93,324.102,356.93,324.102,356.93,324.102z"/>
			<g>
				<path style="fill:#49498F;" d="M372.885,270.751c-0.456,9.605-2.058,19.124-4.782,28.368c-0.891,3.03-2.083,6.49-4.953,9.269
					c-2.764,2.674-6.625,4.086-10.721,4.086c-2.158,0-4.387-0.396-6.55-1.202c-4.782-1.778-8.498-5.118-11.487-7.802l-7.376-6.625
					c0.361-0.766,0.676-1.552,1.017-2.063c1.813-2.764,4.267-5.113,7.121-6.78l7.271,6.53c2.459,2.208,5.008,4.497,7.652,5.478
					c1.803,0.671,3.871,0.556,4.717-0.26c0.831-0.806,1.452-2.9,1.783-4.026c2.449-8.318,3.891-16.88,4.302-25.524
					c0.155-3.21,2.759-5.749,5.969-5.769h0.035C370.321,264.432,373.045,267.311,372.885,270.751z"/>
			</g>
		</g>
		<g>
			<path style="fill:#363271;" d="M135.556,208.522c-3.885,6.04-5.499,13.307-5.828,20.481c-0.241,5.238,0.117,10.73-2.144,15.462
				c-3.483,7.29-12.605,11.494-13.88,19.472c-0.467,2.926,0.267,5.958,1.649,8.579c1.55,2.939,3.995,5.492,7.087,6.711
				c3.091,1.219,6.844,0.944,9.462-1.102c1.639,2.892,4.716,4.679,7.836,5.827c3.613,1.33,7.626,1.977,11.314,0.875
				c3.689-1.102,6.924-4.256,7.27-8.09c2.754,2.87,7.871,2.393,10.727-0.375c2.856-2.769,3.672-7.145,3.016-11.068
				c-0.36-2.155-1.121-4.252-2.304-6.09c-5.065-7.87-16.907-9.973-20.518-18.607c-2.534-6.058,0.058-12.949,2.887-18.874
				c2.623-5.494,9.459-19.283,1.479-23.787C147.638,194.563,138.355,204.17,135.556,208.522z"/>
			<path style="fill:#ECBF4C;" d="M189.907,320.389c-16.741,4.356-60.768,1.343-62.669-0.652c-1.832-1.921-0.147-7.036,0.152-9.329
				c1.024-7.82,2.317-15.624,4.36-23.263c2.195-8.226,5.277-16.261,9.716-23.591c1.651-2.719,3.508-5.365,5.953-7.432
				c0.122-0.103,0.25-0.211,0.377-0.304c5.953-4.748,15.012-5.414,21.602-1.534c1.21,0.715,2.327,1.553,3.346,2.489
				c3.405,3.106,5.821,7.281,7.619,11.528c3.66,8.653,5.228,17.986,6.771,27.227C188.511,303.765,189.888,312.046,189.907,320.389z"
				/>
			<path style="fill:#F0C9A1;" d="M151.748,234.923v21.313c0,4.194,3.4,7.594,7.594,7.594c4.194,0,7.594-3.4,7.594-7.594v-21.313
				H151.748z"/>
			<path style="fill:#E9B588;" d="M151.748,240.028v15.678c3.253-0.583,7.467-1.347,8.089-1.533c2.46-0.74,4.85-1.681,7.099-2.891
				c1.406-0.755,2.758-1.612,4.037-2.582c4.777-3.635-0.127-5.58-4.037-7.153c-0.005-0.005-0.015-0.005-0.02-0.01
				c-4.116-1.656-8.55-2.533-12.984-2.543c-0.436,0-0.882,0.005-1.279,0.181C152.262,239.352,151.973,239.656,151.748,240.028z"/>
			<path style="fill:#F0C9A1;" d="M184.573,226.839c0,13.665-7.253,24.742-18.618,24.742c-11.365,0-20.578-11.077-20.578-24.742
				c0-13.665,9.213-24.742,20.578-24.742C177.32,202.096,184.573,213.174,184.573,226.839z"/>
			<path style="fill:#F0C9A1;" d="M150.606,229.149c0.942,3.948-0.854,7.759-4.013,8.513c-3.158,0.754-6.483-1.836-7.425-5.784
				c-0.942-3.948,0.855-7.76,4.013-8.513C146.34,222.611,149.664,225.201,150.606,229.149z"/>
			<path style="fill:#363271;" d="M183.856,200.534c5.027,3.395,9.061,8.812,9.272,14.873c0.073,2.099-0.411,4.386-2.015,5.741
				c-0.891,0.753-2.038,1.137-3.183,1.359c-6.38,1.236-12.661-2.098-18.307-5.316c0.201,2.522-2.915,3.858-5.426,4.16
				c-6.324,0.76-12.838-0.114-18.738-2.514c-3.138-1.277-6.332-3.238-7.475-6.427c-1.669-4.656,1.774-9.631,5.749-12.574
				C155.441,191.165,172.145,192.626,183.856,200.534z"/>
			<path style="fill:#F0C9A1;" d="M218.179,260.795c-0.16-1.618-0.328-3.271-1.141-4.707c-0.255-0.451-0.655-0.82-1.146-0.987
				c-0.973-0.331-1.592,0.31-2.12,0.912c-2.027,2.316-3.874,4.789-5.521,7.389c-0.436-1.54-1.056-3.027-1.844-4.421
				c-0.23-0.406-0.644-0.7-1.11-0.723c-0.932-0.047-1.233,0.875-1.398,1.641c-0.41,1.904-0.811,3.809-1.229,5.711
				c-0.084,0.385-0.2,0.734-0.329,1.069c-10.502,11.099-15.325,14.256-24.849,19.778c-2.619,1.518-5.597,3.023-7.826,2.667
				c-2.728-0.435-5.277-3.746-6.956-6.198c-3.317-4.844-6.107-10.022-8.326-15.447c-1.15-2.812-4.296-4.236-7.176-3.271l0,0
				c-3.158,1.059-4.787,4.566-3.526,7.649c2.529,6.181,5.708,12.081,9.488,17.601c2.885,4.213,7.545,9.946,14.675,11.083
				c0.854,0.136,1.695,0.199,2.524,0.199c4.811,0,9.188-2.116,12.922-4.281c11.381-6.599,16.037-11.101,27.479-23.311
				c0,0,3.613-3.852,5.368-5.824c0.782-0.879,1.557-1.812,1.91-2.934C218.412,263.239,218.298,261.997,218.179,260.795z"/>
		</g>
	</g>
	<g>
		<g>
			<path style="fill:#5F5EA5;" d="M288.193,319.447h-78.299v-51.159c0-2.455,1.99-4.445,4.444-4.445h69.41
				c2.455,0,4.445,1.99,4.445,4.445V319.447z"/>
			<g>
				<path style="fill:#DFDBFC;" d="M249.043,303.578c-1.587,1.305-3.632,2.084-5.842,2.084c-5.112,0-9.25-4.138-9.25-9.25
					c0-5.112,4.138-9.25,9.25-9.25c2.21,0,4.255,0.779,5.842,2.084c-2.084,1.694-3.408,4.275-3.408,7.166
					C245.635,299.303,246.96,301.884,249.043,303.578z"/>
				<path style="fill:#C3B7FC;" d="M252.451,296.411c0,2.892-1.324,5.472-3.408,7.166c-2.084-1.694-3.408-4.275-3.408-7.166
					c0-2.892,1.324-5.472,3.408-7.166C251.127,290.939,252.451,293.52,252.451,296.411z"/>
				<path style="fill:#A797FB;" d="M264.136,296.411c0,5.112-4.138,9.25-9.25,9.25c-2.21,0-4.255-0.779-5.842-2.084
					c2.084-1.694,3.408-4.275,3.408-7.166c0-2.892-1.324-5.472-3.408-7.166c1.587-1.305,3.632-2.084,5.842-2.084
					C259.997,287.161,264.136,291.299,264.136,296.411z"/>
			</g>
		</g>
		<g>
			<g>
				<path style="fill:#514E92;" d="M183.901,319.447h-52.579c-1.711,0-3.23-1.095-3.772-2.718l0,0
					c-0.858-2.574,1.058-5.233,3.772-5.233h52.579c1.711,0,3.23,1.095,3.771,2.718l0,0
					C188.53,316.789,186.614,319.447,183.901,319.447z"/>
				<path style="fill:#5F5EA5;" d="M156.807,319.447H97.452c-1.355,0-2.53-0.936-2.832-2.257l-9.274-40.573
					c-0.416-1.819,0.966-3.552,2.832-3.552h59.355c1.355,0,2.53,0.937,2.832,2.257l9.274,40.573
					C160.055,317.714,158.673,319.447,156.807,319.447z"/>
			</g>
			<g>
				<path style="fill:#DFDBFC;" d="M121.949,302.069c-1.253,1.03-2.867,1.645-4.612,1.645c-4.036,0-7.303-3.267-7.303-7.303
					c0-4.036,3.267-7.303,7.303-7.303c1.745,0,3.359,0.615,4.612,1.645c-1.645,1.337-2.691,3.375-2.691,5.658
					C119.259,298.694,120.304,300.732,121.949,302.069z"/>
				<path style="fill:#C3B7FC;" d="M124.64,296.411c0,2.283-1.045,4.32-2.69,5.658c-1.645-1.337-2.691-3.375-2.691-5.658
					c0-2.283,1.045-4.32,2.691-5.658C123.594,292.091,124.64,294.128,124.64,296.411z"/>
				<path style="fill:#A797FB;" d="M133.864,296.411c0,4.036-3.267,7.303-7.303,7.303c-1.745,0-3.359-0.615-4.612-1.645
					c1.645-1.337,2.69-3.375,2.69-5.658c0-2.283-1.045-4.32-2.69-5.658c1.253-1.03,2.867-1.645,4.612-1.645
					C130.597,289.108,133.864,292.375,133.864,296.411z"/>
			</g>
		</g>
		<g>
			<rect x="321.328" y="309.095" style="fill:#ECBF4C;" width="66.724" height="10.762"/>
			<rect x="321.328" y="306.943" style="fill:#E58F31;" width="66.724" height="4.305"/>
			<rect x="321.328" y="298.333" style="fill:#ECBF4C;" width="66.724" height="10.762"/>
			<rect x="321.328" y="296.181" style="fill:#E58F31;" width="66.724" height="4.305"/>
			<rect x="321.328" y="287.571" style="fill:#ECBF4C;" width="66.724" height="10.762"/>
			<rect x="321.328" y="285.419" style="fill:#E58F31;" width="66.724" height="4.305"/>
			<rect x="321.328" y="276.809" style="fill:#ECBF4C;" width="66.724" height="10.762"/>
			<rect x="321.328" y="274.657" style="fill:#E58F31;" width="66.724" height="4.305"/>
		</g>
		<g>
			<g>
				<ellipse style="fill:#D5CFFF;" cx="251.911" cy="428.995" rx="197.823" ry="25.396"/>
				<g>
					<polygon style="fill:#A797FB;" points="392.024,325.834 391.5,333.666 390.436,349.33 386.083,398.881 385.384,406.824 
						384.844,412.845 383.318,430.273 116.992,430.273 115.42,412.464 114.927,406.824 114.228,398.881 109.875,349.33 
						108.302,325.834 					"/>
					<polygon style="opacity:0.19;fill:#514E92;" points="392.018,325.838 390.434,349.337 109.879,349.337 108.295,325.838 					
						"/>
					<path style="fill:#DFDBFC;" d="M405.508,333.671H97.416c-4.086,0-7.398-3.312-7.398-7.398l0,0c0-4.086,3.312-7.398,7.398-7.398
						h308.092c4.086,0,7.398,3.312,7.398,7.398l0,0C412.905,330.359,409.594,333.671,405.508,333.671z"/>
				</g>
			</g>
			<polygon style="fill:#5F5EA5;" points="386.083,398.881 385.384,406.824 114.927,406.824 114.228,398.881 			"/>
		</g>
		<g>
			<path style="fill:#464689;" d="M50.649,362.489c-0.878-4.108-0.436-9.284,3.278-11.245c4.189-2.212,9.029,1.239,12.498,4.467
				c-6.274-9.652-9.619-21.181-9.484-32.693c0.046-3.913,1.024-8.578,4.673-9.991c3.488-1.351,7.348,1.239,9.393,4.372
				c2.045,3.132,3.065,6.882,5.356,9.84c-2.162-13.251-4.024-27.991,3.509-39.106c0.967-1.427,2.23-2.853,3.932-3.125
				c2.583-0.413,4.712,1.952,6.084,4.179c4.491,7.289,6.887,15.852,6.832,24.414c1.063-3.203,3.19-6.042,5.965-7.963
				c1.73-1.198,3.832-2.061,5.911-1.733c4.435,0.7,6.303,6.017,6.826,10.477c1.553,13.245-0.981,26.941-7.17,38.753
				c3.287-3.008,8.214-6.144,11.755-3.44c2.227,1.7,2.538,4.911,2.341,7.706c-0.794,11.312-7.069,22.112-16.502,28.405
				c-8.599,5.736-25.466,9.963-34.723,3.196c-3.803-2.78-8.11-7.212-11.571-10.594C55.145,374.1,51.94,368.529,50.649,362.489z"/>
			<path style="fill:#A797FB;" d="M110.235,362.43c-5.997,7.647-11.621,15.052-20.767,18.905c0.268-9.655,0.287-19.447-0.09-29.217
				c0.05-0.035,0.103-0.047,0.151-0.091c8.049-7.297,13.236-17.683,15.893-28.11c0.264-1.037-1.168-1.36-1.556-0.429
				c-3.883,9.313-7.907,17.729-14.648,25.164c-0.655-13.573-2.087-27.067-4.681-40.047c-0.194-0.967-1.794-0.759-1.731,0.234
				c0.914,14.471,2.829,28.834,3.455,43.342c0.037,0.861,0.046,1.721,0.077,2.581c-3.342-3.312-7.077-6.246-10.13-9.908
				c-3.67-4.402-6.325-9.462-9.877-13.907c-0.3-0.376-0.875,0.036-0.768,0.447c1.39,5.329,4.929,10.306,8.314,14.578
				c3.455,4.361,7.63,9.365,12.562,12.169c0.207,7.276,0.243,14.546,0.152,21.818c-3.391-2.474-7.085-4.58-10.377-7.221
				c-3.976-3.19-7.724-6.662-11.586-9.984c-0.31-0.267-0.866,0.082-0.604,0.466c5.159,7.594,13.799,15.874,22.536,19.542
				c-0.07,4.309-0.164,8.62-0.291,12.934c-0.05,1.7,2.544,1.684,2.631,0c0.202-3.925,0.369-7.89,0.497-11.879
				c9.42-3.747,17.385-11.503,21.951-20.529C111.685,362.617,110.759,361.762,110.235,362.43z"/>
			<g>
				<g>
					<polygon style="fill:#E08675;" points="109.621,384.583 108.858,389.349 108.08,394.115 107.111,400.151 106.571,403.488 
						104.632,415.499 104.092,418.867 102.202,430.654 72.557,430.654 70.746,419.423 70.19,415.944 68.284,404.14 67.744,400.708 
						66.679,394.115 65.917,389.349 65.138,384.583 					"/>
					<polygon style="fill:#DD6E5C;" points="109.621,384.583 108.08,394.115 66.679,394.115 65.138,384.583 					"/>
					<path style="fill:#5F5EA5;" d="M110.415,389.349H64.344c-2.184,0-3.972-1.787-3.972-3.972l0,0c0-2.184,1.787-3.972,3.972-3.972
						h46.072c2.185,0,3.972,1.787,3.972,3.972l0,0C114.387,387.562,112.6,389.349,110.415,389.349z"/>
				</g>
				<path style="fill:#FFFFFF;" d="M107.111,400.151l-0.54,3.336c-3.495-1.175-7.387-0.413-11.248,1.78
					c-2.113,1.208-3.606,2.827-6.132,3.194c-2.939,0.413-5.386-0.81-7.88-2.161c-4.496-2.415-8.976-3.702-13.027-2.16l-0.54-3.432
					c1.62-0.603,3.368-0.905,5.211-0.858c7.102,0.207,11.327,6.546,19.064,3.924c4.702-1.589,6.339-4.702,11.868-4.242
					C105.014,399.627,106.094,399.834,107.111,400.151z"/>
				<path style="fill:#FFFFFF;" d="M104.632,415.499l-0.54,3.368c-2.812-0.238-5.799,0.604-8.77,2.288
					c-2.113,1.208-3.606,2.827-6.132,3.194c-2.939,0.413-5.386-0.811-7.88-2.161c-3.606-1.938-7.197-3.146-10.564-2.764
					l-0.556-3.479c0.89-0.159,1.811-0.239,2.764-0.207c7.102,0.207,11.327,6.546,19.064,3.924c4.702-1.589,6.339-4.702,11.868-4.242
					C104.14,415.435,104.378,415.467,104.632,415.499z"/>
			</g>
		</g>
		<g>
			<g>
				<path style="fill:#E08675;" d="M382.522,379.765c-4.431-1.546-8.566-4.407-10.778-8.546c-2.212-4.139-2.146-9.639,0.872-13.234
					c3.017-3.595,9.11-4.421,12.507-1.183c-3.096-3.22-5.734-7.098-6.462-11.505c-0.727-4.407,0.823-9.383,4.582-11.794
					c3.76-2.411,9.647-1.243,11.447,2.845c0.432-11.081,5.901-22.869,16.232-26.898c1.558-0.607,3.285-1.026,4.893-0.567
					c1.43,0.408,2.587,1.463,3.538,2.607c5.706,6.869,5.276,16.782,4.546,25.681c1.786-3.989,5.48-7.167,9.78-7.948
					c4.3-0.781,9.062,1.046,11.427,4.721c2.4,3.729,2.11,8.696,0.364,12.773c-1.746,4.076-4.754,7.459-7.712,10.763
					c2.909-2.213,7.541-0.335,9.088,2.976c1.547,3.311,0.667,7.298-1.08,10.509c-3.35,6.158-9.606,10.359-16.288,12.482
					c-6.681,2.123-13.809,2.372-20.817,2.185c-4.86-0.13-7.942-1.674-12.304-3.2C391.961,380.894,387.039,381.341,382.522,379.765z"
					/>
				<path style="fill:#DD6E5C;" d="M436.544,365.893c-4.237,2.791-8.235,5.934-12.435,8.785c-1.892,1.284-3.792,2.714-5.82,3.785
					c-0.977,0.789-2.051,1.35-3.199,1.733c0.152-3.927,0.196-7.876,0.093-11.822c3.255-2.188,6.6-6.749,8.576-8.801
					c4.9-5.086,9.354-10.586,13.046-16.608c0.993-1.619-1.54-3.089-2.54-1.485c-2.928,4.702-6.299,8.94-10.228,12.845
					c-2.07,2.057-5.937,7.04-9.059,9.02c-0.639-11.457-2.459-22.75-5.778-33.114c-0.327-1.021-2.095-0.915-1.975,0.268
					c1.147,11.225,2.976,22.293,3.618,33.55c-7.065-1.771-16.017-16.019-19.45-19.817c-0.93-1.028-2.272,0.28-1.784,1.376
					c2.628,5.901,6.936,11.004,11.485,15.538c1.943,1.937,6.368,7.408,9.953,8.308c0.083,4.02,0.021,8.016-0.155,12
					c-1.264,0.182-2.468-0.226-3.61-1.251c-9.193-2.737-17.036-10.106-25.956-13.669c-0.925-0.369-1.662,1.018-0.96,1.649
					c5.098,4.586,11.395,7.793,17.399,11.042c3.705,2.005,8.565,5.815,12.908,6.31c-0.422,6.823-1.114,13.627-1.894,20.477
					c-0.226,1.986,3.162,2.457,3.51,0.475c1.224-6.954,2.1-14.261,2.567-21.697c2.768-1.192,5.566-3.433,7.57-4.748
					c5.507-3.611,11.001-7.47,15.673-12.131C439.11,366.903,437.789,365.073,436.544,365.893z"/>
			</g>
			<g>
				<g>
					<g>
						<polygon style="fill:#ECBF4C;" points="433.711,384.583 432.949,389.349 432.17,394.115 431.201,400.151 430.661,403.488 
							428.722,415.499 428.183,418.867 426.292,430.654 396.647,430.654 394.836,419.423 394.28,415.944 392.374,404.14 
							391.834,400.708 390.769,394.115 390.007,389.349 389.228,384.583 						"/>
						<polygon style="fill:#E7AA36;" points="433.711,384.583 432.17,394.115 390.769,394.115 389.228,384.583 						"/>
						<path style="fill:#5F5EA5;" d="M434.506,389.349h-46.072c-2.185,0-3.972-1.787-3.972-3.972l0,0
							c0-2.184,1.787-3.972,3.972-3.972h46.072c2.185,0,3.972,1.787,3.972,3.972l0,0
							C438.477,387.562,436.69,389.349,434.506,389.349z"/>
					</g>
					<path style="fill:#FFFFFF;" d="M431.201,400.151l-0.54,3.336c-3.495-1.175-7.387-0.413-11.248,1.78
						c-2.113,1.208-3.606,2.827-6.132,3.194c-2.939,0.413-5.386-0.81-7.88-2.161c-4.496-2.415-8.976-3.702-13.027-2.16l-0.54-3.432
						c1.62-0.603,3.368-0.905,5.211-0.858c7.102,0.207,11.327,6.546,19.064,3.924c4.702-1.589,6.339-4.702,11.868-4.242
						C429.104,399.627,430.184,399.834,431.201,400.151z"/>
					<path style="fill:#FFFFFF;" d="M428.722,415.499l-0.54,3.368c-2.812-0.238-5.798,0.604-8.77,2.288
						c-2.113,1.208-3.606,2.827-6.132,3.194c-2.939,0.413-5.386-0.811-7.88-2.161c-3.606-1.938-7.197-3.146-10.565-2.764
						l-0.556-3.479c0.89-0.159,1.811-0.239,2.764-0.207c7.102,0.207,11.327,6.546,19.064,3.924
						c4.702-1.589,6.339-4.702,11.868-4.242C428.23,415.435,428.468,415.467,428.722,415.499z"/>
				</g>
			</g>
		</g>
	</g>
</g>
<g id="DESIGNED_BY_FREEPIK">
	<g>
		<g id="XMLID_319_">
			<g id="XMLID_338_">
				<path id="XMLID_346_" style="fill:#1D262D;" d="M260.104,465.465c-0.433,0.443-0.804,0.932-1.108,1.453l-0.465-0.241
					c-0.067-0.297-0.35-0.502-0.659-0.466c-0.331,0.039-0.567,0.339-0.529,0.67c0.039,0.331,0.339,0.567,0.67,0.528
					c0.065-0.007,0.127-0.025,0.184-0.052l0.451,0.234c-0.251,0.554-0.433,1.139-0.539,1.743l0.747,0.132
					c0.23-1.306,0.85-2.507,1.792-3.473L260.104,465.465z"/>
				<path id="XMLID_345_" style="fill:#1D262D;" d="M265.591,463.164c-0.171,0-0.341,0.006-0.509,0.017l-0.074-0.626
					c0.188-0.149,0.296-0.389,0.266-0.645c-0.046-0.393-0.402-0.674-0.795-0.628c-0.394,0.046-0.675,0.402-0.628,0.796
					c0.03,0.254,0.189,0.461,0.404,0.563l0.073,0.624c-0.714,0.116-1.402,0.332-2.06,0.646l0.327,0.685
					c0.935-0.447,1.941-0.674,2.995-0.674c0.497,0,0.993,0.053,1.476,0.158l0.16-0.741
					C266.692,463.222,266.142,463.164,265.591,463.164z"/>
				<path id="XMLID_344_" style="fill:#1D262D;" d="M272.194,465.711c0.331-0.04,0.566-0.341,0.525-0.672
					c-0.04-0.331-0.341-0.566-0.672-0.525c-0.31,0.038-0.535,0.304-0.53,0.608l-0.416,0.363c-0.418-0.43-0.89-0.813-1.407-1.14
					l-0.404,0.642c1.135,0.715,2.021,1.727,2.564,2.925l0.69-0.313c-0.251-0.554-0.567-1.071-0.942-1.545l0.402-0.351
					C272.065,465.715,272.128,465.719,272.194,465.711z"/>
				<path id="XMLID_343_" style="fill:#1D262D;" d="M265.044,473.372c-0.386,0.023-0.775,0.035-1.157,0.035
					c-0.88,0-1.733-0.061-2.479-0.18c-0.391-0.062-0.846-0.154-1.271-0.292c1.047,1.861,3.069,3.125,5.389,3.125
					c2.855,0,5.263-1.916,5.949-4.503c-0.682,0.449-1.505,0.825-2.458,1.122C267.838,473.047,266.463,473.287,265.044,473.372z"/>
				<path id="XMLID_339_" style="fill:#1D262D;" d="M265.591,464.68c-3.351,0-6.079,2.666-6.079,5.943
					c0,0.425,0.046,0.849,0.137,1.261c0.674,0.483,2.706,0.891,5.348,0.731c2.88-0.174,5.297-0.958,6.672-2.159
					c-0.005-0.194-0.021-0.39-0.045-0.581C271.244,466.914,268.65,464.68,265.591,464.68z M263.432,471.195
					c-1.02,0-1.85-0.83-1.85-1.85c0-1.021,0.83-1.851,1.85-1.851c1.02,0,1.85,0.83,1.85,1.851
					C265.282,470.365,264.452,471.195,263.432,471.195z M268.169,470.287c-0.75,0-1.36-0.61-1.36-1.36s0.61-1.36,1.36-1.36
					s1.36,0.61,1.36,1.36S268.919,470.287,268.169,470.287z"/>
			</g>
			<path id="XMLID_336_" style="fill:#1D262D;" d="M281.595,466.547c-0.295-0.116-0.806-0.31-1.383-0.238
				c-0.551,0.069-0.844,0.341-0.844,1.007v0.866h2.229v1.717h-2.229v5.455h-1.932v-5.455h-1.339v-1.717h1.339v-0.889
				c0-1.68,0.896-2.782,2.568-2.782c0.643,0,1.157,0.121,1.59,0.308V466.547z"/>
			<path id="XMLID_334_" style="fill:#1D262D;" d="M286.297,469.878c-0.177-0.029-0.357-0.046-0.525-0.046
				c-0.896,0-1.51,0.548-1.51,1.613v3.908h-1.933v-7.172h1.873v0.784c0.451-0.673,1.14-0.977,2.021-0.977
				c0.414,0,0.848,0.128,1.095,0.337L286.297,469.878z"/>
			<path id="XMLID_331_" style="fill:#1D262D;" d="M293.965,471.757c0,0.222-0.016,0.488-0.037,0.651h-5.085
				c0.207,1.036,0.933,1.487,1.843,1.487c0.622,0,1.295-0.252,1.813-0.689l1.133,1.243c-0.814,0.748-1.851,1.089-3.057,1.089
				c-2.198,0-3.724-1.496-3.724-3.753c0-2.258,1.48-3.797,3.627-3.797C292.543,467.99,293.958,469.522,293.965,471.757z
				 M288.851,471.091h3.175c-0.178-0.918-0.732-1.437-1.562-1.437C289.554,469.655,289.021,470.203,288.851,471.091z"/>
			<path id="XMLID_328_" style="fill:#1D262D;" d="M301.619,471.757c0,0.222-0.016,0.488-0.037,0.651h-5.085
				c0.207,1.036,0.933,1.487,1.843,1.487c0.622,0,1.296-0.252,1.814-0.689l1.133,1.243c-0.815,0.748-1.851,1.089-3.058,1.089
				c-2.198,0-3.723-1.496-3.723-3.753c0-2.258,1.48-3.797,3.627-3.797C300.197,467.99,301.611,469.522,301.619,471.757z
				 M296.504,471.091h3.175c-0.178-0.918-0.733-1.437-1.561-1.437C297.208,469.655,296.674,470.203,296.504,471.091z"/>
			<path id="XMLID_325_" style="fill:#1D262D;" d="M309.964,471.764c0,2.154-1.495,3.775-3.472,3.775
				c-0.962,0-1.644-0.378-2.109-0.933v3.708h-1.925v-10.133h1.888v0.792c0.467-0.585,1.154-0.984,2.139-0.984
				C308.469,467.99,309.964,469.611,309.964,471.764z M304.287,471.764c0,1.133,0.748,1.977,1.844,1.977
				c1.14,0,1.85-0.881,1.85-1.977c0-1.095-0.71-1.976-1.85-1.976C305.035,469.789,304.287,470.632,304.287,471.764z"/>
			<path id="XMLID_322_" style="fill:#1D262D;" d="M313.068,465.836c0,0.696-0.541,1.229-1.236,1.229
				c-0.696,0-1.229-0.533-1.229-1.229c0-0.695,0.532-1.243,1.229-1.243C312.527,464.592,313.068,465.14,313.068,465.836z
				 M312.808,475.354h-1.932v-7.172h1.932V475.354z"/>
			<path id="XMLID_320_" style="fill:#1D262D;" d="M316.032,470.736l2.702-2.554h2.368l-3.478,3.375l3.501,3.797h-2.376
				l-2.717-2.901v2.901H314.1v-10.658h1.932V470.736z"/>
		</g>
		<g>
			<path style="fill:#1D262D;" d="M184.412,475.29v-1.055c-0.527,0.718-1.391,1.23-2.387,1.23c-1.846,0-3.149-1.406-3.149-3.706
				c0-2.256,1.289-3.721,3.149-3.721c0.952,0,1.816,0.469,2.387,1.245v-3.765h1.099v9.771H184.412z M184.412,473.371v-3.208
				c-0.395-0.615-1.245-1.143-2.124-1.143c-1.42,0-2.27,1.172-2.27,2.739c0,1.567,0.85,2.725,2.27,2.725
				C183.167,474.484,184.017,473.986,184.412,473.371z"/>
			<path style="fill:#1D262D;" d="M186.932,471.745c0-2.051,1.465-3.706,3.486-3.706c2.139,0,3.398,1.67,3.398,3.794v0.278h-5.727
				c0.088,1.333,1.025,2.446,2.549,2.446c0.806,0,1.626-0.322,2.182-0.894l0.527,0.718c-0.703,0.703-1.655,1.084-2.812,1.084
				C188.44,475.465,186.932,473.957,186.932,471.745z M190.403,468.947c-1.509,0-2.256,1.274-2.314,2.358h4.644
				C192.718,470.25,192.015,468.947,190.403,468.947z"/>
			<path style="fill:#1D262D;" d="M194.607,474.352l0.571-0.791c0.469,0.542,1.362,1.011,2.329,1.011c1.084,0,1.67-0.513,1.67-1.216
				c0-1.714-4.38-0.659-4.38-3.281c0-1.099,0.952-2.036,2.636-2.036c1.202,0,2.051,0.454,2.623,1.025l-0.513,0.762
				c-0.424-0.513-1.201-0.894-2.109-0.894c-0.966,0-1.567,0.483-1.567,1.113c0,1.553,4.379,0.527,4.379,3.281
				c0,1.187-0.952,2.139-2.783,2.139C196.306,475.465,195.325,475.114,194.607,474.352z"/>
			<path style="fill:#1D262D;" d="M201.477,466.471c0-0.41,0.337-0.747,0.732-0.747c0.41,0,0.747,0.337,0.747,0.747
				c0,0.41-0.337,0.732-0.747,0.732C201.814,467.204,201.477,466.881,201.477,466.471z M201.667,475.29v-7.075h1.099v7.075H201.667z
				"/>
			<path style="fill:#1D262D;" d="M204.582,477.106l0.556-0.82c0.586,0.703,1.289,0.967,2.3,0.967c1.172,0,2.271-0.571,2.271-2.124
				v-1.011c-0.513,0.718-1.377,1.26-2.373,1.26c-1.846,0-3.149-1.377-3.149-3.662c0-2.271,1.289-3.677,3.149-3.677
				c0.952,0,1.802,0.469,2.373,1.245v-1.069h1.099v6.87c0,2.344-1.641,3.076-3.369,3.076
				C206.237,478.161,205.416,477.925,204.582,477.106z M209.708,473.253v-3.091c-0.381-0.615-1.23-1.143-2.109-1.143
				c-1.421,0-2.27,1.128-2.27,2.695c0,1.553,0.849,2.695,2.27,2.695C208.478,474.411,209.328,473.869,209.708,473.253z"/>
			<path style="fill:#1D262D;" d="M217.413,475.29v-4.629c0-1.245-0.63-1.641-1.582-1.641c-0.864,0-1.685,0.527-2.094,1.099v5.171
				h-1.099v-7.075h1.099v1.025c0.497-0.586,1.464-1.201,2.519-1.201c1.479,0,2.256,0.747,2.256,2.285v4.966H217.413z"/>
			<path style="fill:#1D262D;" d="M219.932,471.745c0-2.051,1.465-3.706,3.486-3.706c2.139,0,3.398,1.67,3.398,3.794v0.278h-5.727
				c0.088,1.333,1.025,2.446,2.548,2.446c0.806,0,1.626-0.322,2.183-0.894l0.527,0.718c-0.703,0.703-1.655,1.084-2.813,1.084
				C221.441,475.465,219.932,473.957,219.932,471.745z M223.404,468.947c-1.509,0-2.256,1.274-2.314,2.358h4.643
				C225.718,470.25,225.015,468.947,223.404,468.947z"/>
			<path style="fill:#1D262D;" d="M233.35,475.29v-1.055c-0.527,0.718-1.392,1.23-2.388,1.23c-1.845,0-3.149-1.406-3.149-3.706
				c0-2.256,1.289-3.721,3.149-3.721c0.952,0,1.817,0.469,2.388,1.245v-3.765h1.098v9.771H233.35z M233.35,473.371v-3.208
				c-0.396-0.615-1.245-1.143-2.124-1.143c-1.421,0-2.27,1.172-2.27,2.739c0,1.567,0.85,2.725,2.27,2.725
				C232.105,474.484,232.954,473.986,233.35,473.371z"/>
			<path style="fill:#1D262D;" d="M239.692,475.29v-9.771h1.099v3.765c0.571-0.776,1.421-1.245,2.388-1.245
				c1.845,0,3.149,1.465,3.149,3.721c0,2.3-1.304,3.706-3.149,3.706c-0.996,0-1.86-0.513-2.388-1.23v1.055H239.692z M242.9,474.484
				c1.436,0,2.285-1.157,2.285-2.725c0-1.567-0.85-2.739-2.285-2.739c-0.864,0-1.729,0.527-2.109,1.143v3.208
				C241.171,473.986,242.036,474.484,242.9,474.484z"/>
			<path style="fill:#1D262D;" d="M247.528,477.062c0.161,0.073,0.425,0.117,0.601,0.117c0.483,0,0.806-0.161,1.055-0.747
				l0.469-1.069l-2.959-7.148h1.187l2.358,5.801l2.344-5.801h1.2l-3.544,8.511c-0.425,1.024-1.143,1.421-2.08,1.436
				c-0.234,0-0.6-0.044-0.806-0.104L247.528,477.062z"/>
		</g>
	</g>
</g>
</svg>
