<?xml version="1.0" encoding="utf-8"?>
<!-- Generator: Adobe Illustrator 27.5.0, SVG Export Plug-In . SVG Version: 6.00 Build 0)  -->
<svg version="1.1" xmlns="http://www.w3.org/2000/svg" xmlns:xlink="http://www.w3.org/1999/xlink" x="0px" y="0px"
	 viewBox="0 0 499.999 500" style="enable-background:new 0 0 499.999 500;" xml:space="preserve">
<g id="BACKGROUND">
	<path style="fill:#C7C3FE;" d="M259.773,118.691h-19.546c-41.116,0-74.447,33.331-74.447,74.447v220.427H334.22V193.139
		C334.22,152.022,300.889,118.691,259.773,118.691z"/>
	<g>
		
			<ellipse transform="matrix(0.7071 -0.7071 0.7071 0.7071 -13.6721 212.7697)" style="fill:#FFFFFF;stroke:#1C1D62;stroke-width:2;stroke-linecap:round;stroke-miterlimit:10;" cx="250" cy="122.889" rx="15.124" ry="15.124"/>
		
			<line style="fill:#B9F3DD;stroke:#1C1D62;stroke-width:2;stroke-linecap:round;stroke-miterlimit:10;" x1="250" y1="0" x2="250" y2="111.222"/>
		<polygon style="fill:#7056F3;stroke:#1C1D62;stroke-width:2;stroke-linecap:round;stroke-miterlimit:10;" points="250,89.167 
			189.9,120.049 310.099,120.049 		"/>
	</g>
	<g>
		<path style="fill:none;stroke:#C7C3FE;stroke-width:2;stroke-miterlimit:10;" d="M363.995,111.291h-25.034
			c-2.825,0-5.115-2.29-5.115-5.115l0,0c0-2.825,2.29-5.115,5.115-5.115h25.034c2.825,0,5.115,2.29,5.115,5.115l0,0
			C369.111,109.001,366.82,111.291,363.995,111.291z"/>
		<path style="fill:none;stroke:#C7C3FE;stroke-width:2;stroke-miterlimit:10;" d="M383.662,124.321h-25.034
			c-2.825,0-5.115-2.29-5.115-5.115l0,0c0-2.825,2.29-5.115,5.115-5.115h25.034c2.825,0,5.115,2.29,5.115,5.115l0,0
			C388.777,122.031,386.487,124.321,383.662,124.321z"/>
		<path style="fill:none;stroke:#C7C3FE;stroke-width:2;stroke-miterlimit:10;" d="M422.961,124.321h-25.034
			c-2.825,0-5.115-2.29-5.115-5.115l0,0c0-2.825,2.29-5.115,5.115-5.115h25.034c2.825,0,5.115,2.29,5.115,5.115l0,0
			C428.076,122.031,425.786,124.321,422.961,124.321z"/>
		<path style="fill:none;stroke:#C7C3FE;stroke-width:2;stroke-miterlimit:10;" d="M387.697,98.261h-25.034
			c-2.825,0-5.115-2.29-5.115-5.115l0,0c0-2.825,2.29-5.115,5.115-5.115h25.034c2.825,0,5.115,2.29,5.115,5.115l0,0
			C392.812,95.971,390.522,98.261,387.697,98.261z"/>
		<path style="fill:none;stroke:#C7C3FE;stroke-width:2;stroke-miterlimit:10;" d="M352.214,137.351h-7.402
			c-2.825,0-5.115-2.29-5.115-5.115v0c0-2.825,2.29-5.115,5.115-5.115h7.402c2.825,0,5.115,2.29,5.115,5.115v0
			C357.329,135.061,355.039,137.351,352.214,137.351z"/>
	</g>
	<g>
		<path style="fill:none;stroke:#C7C3FE;stroke-width:2;stroke-miterlimit:10;" d="M412.37,367.238h25.034
			c2.825,0,5.115,2.29,5.115,5.115l0,0c0,2.825-2.29,5.115-5.115,5.115H412.37c-2.825,0-5.115-2.29-5.115-5.115l0,0
			C407.255,369.528,409.546,367.238,412.37,367.238z"/>
		<path style="fill:none;stroke:#C7C3FE;stroke-width:2;stroke-miterlimit:10;" d="M392.704,354.208h25.034
			c2.825,0,5.115,2.29,5.115,5.115l0,0c0,2.825-2.29,5.115-5.115,5.115h-25.034c-2.825,0-5.115-2.29-5.115-5.115l0,0
			C387.589,356.498,389.879,354.208,392.704,354.208z"/>
		<path style="fill:none;stroke:#C7C3FE;stroke-width:2;stroke-miterlimit:10;" d="M424.152,341.178h7.402
			c2.825,0,5.115,2.29,5.115,5.115l0,0c0,2.825-2.29,5.115-5.115,5.115h-7.402c-2.825,0-5.115-2.29-5.115-5.115l0,0
			C419.037,343.468,421.327,341.178,424.152,341.178z"/>
		<path style="fill:none;stroke:#C7C3FE;stroke-width:2;stroke-miterlimit:10;" d="M438.818,387.47h7.402
			c2.825,0,5.115,2.29,5.115,5.115v0c0,2.825-2.29,5.115-5.115,5.115h-7.402c-2.825,0-5.115-2.29-5.115-5.115v0
			C433.703,389.76,435.993,387.47,438.818,387.47z"/>
		<path style="fill:none;stroke:#C7C3FE;stroke-width:2;stroke-miterlimit:10;" d="M459.721,387.47h7.402
			c2.825,0,5.115,2.29,5.115,5.115v0c0,2.825-2.29,5.115-5.115,5.115h-7.402c-2.825,0-5.115-2.29-5.115-5.115v0
			C454.607,389.76,456.897,387.47,459.721,387.47z"/>
		<path style="fill:none;stroke:#C7C3FE;stroke-width:2;stroke-miterlimit:10;" d="M449.388,400.526h7.402
			c2.825,0,5.115,2.29,5.115,5.115l0,0c0,2.825-2.29,5.115-5.115,5.115h-7.402c-2.825,0-5.115-2.29-5.115-5.115l0,0
			C444.273,402.816,446.563,400.526,449.388,400.526z"/>
	</g>
	<g>
		<path style="fill:none;stroke:#C7C3FE;stroke-width:2;stroke-miterlimit:10;" d="M63.034,362.937H38
			c-2.825,0-5.115-2.29-5.115-5.115l0,0c0-2.825,2.29-5.115,5.115-5.115h25.034c2.825,0,5.115,2.29,5.115,5.115l0,0
			C68.149,360.647,65.859,362.937,63.034,362.937z"/>
		<path style="fill:none;stroke:#C7C3FE;stroke-width:2;stroke-miterlimit:10;" d="M82.701,375.967H57.667
			c-2.825,0-5.115-2.29-5.115-5.115v0c0-2.825,2.29-5.115,5.115-5.115h25.034c2.825,0,5.115,2.29,5.115,5.115v0
			C87.816,373.677,85.526,375.967,82.701,375.967z"/>
		<path style="fill:none;stroke:#C7C3FE;stroke-width:2;stroke-miterlimit:10;" d="M51.253,388.997h-7.402
			c-2.825,0-5.115-2.29-5.115-5.115l0,0c0-2.825,2.29-5.115,5.115-5.115h7.402c2.825,0,5.115,2.29,5.115,5.115l0,0
			C56.368,386.707,54.078,388.997,51.253,388.997z"/>
		<path style="fill:none;stroke:#C7C3FE;stroke-width:2;stroke-miterlimit:10;" d="M91.88,349.204h-7.402
			c-2.825,0-5.115-2.29-5.115-5.115l0,0c0-2.825,2.29-5.115,5.115-5.115h7.402c2.825,0,5.115,2.29,5.115,5.115l0,0
			C96.995,346.914,94.705,349.204,91.88,349.204z"/>
		<path style="fill:none;stroke:#C7C3FE;stroke-width:2;stroke-miterlimit:10;" d="M112.476,349.204h-7.402
			c-2.825,0-5.115-2.29-5.115-5.115l0,0c0-2.825,2.29-5.115,5.115-5.115h7.402c2.825,0,5.115,2.29,5.115,5.115l0,0
			C117.591,346.914,115.301,349.204,112.476,349.204z"/>
		<path style="fill:none;stroke:#C7C3FE;stroke-width:2;stroke-miterlimit:10;" d="M102.853,336.877h-7.402
			c-2.825,0-5.115-2.29-5.115-5.115l0,0c0-2.825,2.29-5.115,5.115-5.115h7.402c2.825,0,5.115,2.29,5.115,5.115l0,0
			C107.968,334.587,105.678,336.877,102.853,336.877z"/>
	</g>
	<g>
		<path style="fill:none;stroke:#C7C3FE;stroke-width:2;stroke-miterlimit:10;" d="M141.018,82.618h-25.034
			c-2.825,0-5.115-2.29-5.115-5.115l0,0c0-2.825,2.29-5.115,5.115-5.115h25.034c2.825,0,5.115,2.29,5.115,5.115l0,0
			C146.133,80.328,143.843,82.618,141.018,82.618z"/>
		<path style="fill:none;stroke:#C7C3FE;stroke-width:2;stroke-miterlimit:10;" d="M114.803,95.191H89.769
			c-2.825,0-5.115-2.29-5.115-5.115l0,0c0-2.825,2.29-5.115,5.115-5.115h25.034c2.825,0,5.115,2.29,5.115,5.115l0,0
			C119.918,92.901,117.628,95.191,114.803,95.191z"/>
		<path style="fill:none;stroke:#C7C3FE;stroke-width:2;stroke-miterlimit:10;" d="M114.803,69.841h-7.402
			c-2.825,0-5.115-2.29-5.115-5.115l0,0c0-2.825,2.29-5.115,5.115-5.115h7.402c2.825,0,5.115,2.29,5.115,5.115l0,0
			C119.918,67.551,117.628,69.841,114.803,69.841z"/>
	</g>
	<g>
		<path style="fill:none;stroke:#C7C3FE;stroke-width:2;stroke-miterlimit:10;" d="M116.323,240.019H91.29
			c-2.825,0-5.115-2.29-5.115-5.115l0,0c0-2.825,2.29-5.115,5.115-5.115h25.034c2.825,0,5.115,2.29,5.115,5.115l0,0
			C121.438,237.729,119.148,240.019,116.323,240.019z"/>
		<path style="fill:none;stroke:#C7C3FE;stroke-width:2;stroke-miterlimit:10;" d="M134.762,253.421h-25.034
			c-2.825,0-5.115-2.29-5.115-5.115l0,0c0-2.825,2.29-5.115,5.115-5.115h25.034c2.825,0,5.115,2.29,5.115,5.115l0,0
			C139.877,251.131,137.587,253.421,134.762,253.421z"/>
		<path style="fill:none;stroke:#C7C3FE;stroke-width:2;stroke-miterlimit:10;" d="M130.108,267.682h-25.034
			c-2.825,0-5.115-2.29-5.115-5.115l0,0c0-2.825,2.29-5.115,5.115-5.115h25.034c2.825,0,5.115,2.29,5.115,5.115l0,0
			C135.223,265.392,132.933,267.682,130.108,267.682z"/>
		<path style="fill:none;stroke:#C7C3FE;stroke-width:2;stroke-miterlimit:10;" d="M94.844,253.421H69.81
			c-2.825,0-5.115-2.29-5.115-5.115l0,0c0-2.825,2.29-5.115,5.115-5.115h25.034c2.825,0,5.115,2.29,5.115,5.115l0,0
			C99.959,251.131,97.669,253.421,94.844,253.421z"/>
		<path style="fill:none;stroke:#C7C3FE;stroke-width:2;stroke-miterlimit:10;" d="M134.762,227.913h-7.402
			c-2.825,0-5.115-2.29-5.115-5.115l0,0c0-2.825,2.29-5.115,5.115-5.115h7.402c2.825,0,5.115,2.29,5.115,5.115l0,0
			C139.877,225.623,137.587,227.913,134.762,227.913z"/>
	</g>
	<g>
		<path style="fill:none;stroke:#C7C3FE;stroke-width:2;stroke-miterlimit:10;" d="M382.229,247.58h25.034
			c2.825,0,5.115,2.29,5.115,5.115l0,0c0,2.825-2.29,5.115-5.115,5.115h-25.034c-2.825,0-5.115-2.29-5.115-5.115l0,0
			C377.114,249.87,379.404,247.58,382.229,247.58z"/>
		<path style="fill:none;stroke:#C7C3FE;stroke-width:2;stroke-miterlimit:10;" d="M393.765,205.656h25.034
			c2.825,0,5.115,2.29,5.115,5.115l0,0c0,2.825-2.29,5.115-5.115,5.115h-25.034c-2.825,0-5.115-2.29-5.115-5.115l0,0
			C388.65,207.946,390.94,205.656,393.765,205.656z"/>
		<path style="fill:none;stroke:#C7C3FE;stroke-width:2;stroke-miterlimit:10;" d="M352.52,205.656h25.034
			c2.825,0,5.115,2.29,5.115,5.115l0,0c0,2.825-2.29,5.115-5.115,5.115H352.52c-2.825,0-5.115-2.29-5.115-5.115l0,0
			C347.405,207.946,349.695,205.656,352.52,205.656z"/>
		<path style="fill:none;stroke:#C7C3FE;stroke-width:2;stroke-miterlimit:10;" d="M368.444,219.917h25.034
			c2.825,0,5.115,2.29,5.115,5.115v0c0,2.825-2.29,5.115-5.115,5.115h-25.034c-2.825,0-5.115-2.29-5.115-5.115v0
			C363.329,222.207,365.619,219.917,368.444,219.917z"/>
		<path style="fill:none;stroke:#C7C3FE;stroke-width:2;stroke-miterlimit:10;" d="M403.708,234.178h25.034
			c2.825,0,5.115,2.29,5.115,5.115l0,0c0,2.825-2.29,5.115-5.115,5.115h-25.034c-2.825,0-5.115-2.29-5.115-5.115l0,0
			C398.593,236.468,400.883,234.178,403.708,234.178z"/>
		<path style="fill:none;stroke:#C7C3FE;stroke-width:2;stroke-miterlimit:10;" d="M411.397,262.643h7.402
			c2.825,0,5.115,2.29,5.115,5.115l0,0c0,2.825-2.29,5.115-5.115,5.115h-7.402c-2.825,0-5.115-2.29-5.115-5.115l0,0
			C406.282,264.934,408.572,262.643,411.397,262.643z"/>
	</g>
</g>
<g id="OBJECTS">
	<g>
		<g>
			<g>
				
					<ellipse transform="matrix(0.381 -0.9246 0.9246 0.381 -23.3197 394.8648)" style="fill:#FFFFFF;stroke:#1C1D62;stroke-width:2;stroke-miterlimit:10;" cx="283.222" cy="214.847" rx="7.431" ry="7.431"/>
				<path style="fill:#7056F3;" d="M287.842,213.311c0-1.9-1.54-3.441-3.441-3.441c-1.9,0-3.441,1.541-3.441,3.441
					c0,1.9,1.54,3.441,3.441,3.441C286.301,216.752,287.842,215.212,287.842,213.311z"/>
				<path style="fill:none;stroke:#7056F3;stroke-width:3;stroke-linecap:round;stroke-miterlimit:10;" d="M278.04,186.633
					c0,0,8.613,10.131,6.88,25.055"/>
			</g>
			<g>
				<g>
					<path style="fill:#FFFFFF;" d="M282.985,219.874c0-8.323-0.135-45.907-21.408-45.907c-21.273,0-29.136,18.92-29.136,45.907
						c0,1.345,0.031,2.779,0.103,4.272l-2.991,55.403l15.804,11.195l17.778-11.195l-1.008-18.679
						C286.973,260.398,282.985,228.136,282.985,219.874z"/>
					<path style="fill:#C7C3FE;" d="M271.411,177.458c-4.507-1.553-11.957-2.041-18.989-2.094
						c-12.911,4.326-18.718,18.401-19.791,37.59l1.921-1.721c0.584,0.195,9.888-8.506,9.624-17.075c0,0,24.946,5.586,29.906-9.603
						c0.359-1.098,1.206-1.668,1.41-2.39C274.322,180.35,272.972,178.751,271.411,177.458z"/>
					<path style="fill:#C7C3FE;" d="M259.012,282.146l4.123-2.596l-0.989-18.32c-5.876-1.775-13.019-4.514-16.789-8.13
						c-7.105-6.815-7.612-15.245-7.612-15.245s-2.482,12.325,2.128,18.751c4.61,6.426,6.527,14.215,4.303,21.225L259.012,282.146z"
						/>
				</g>
				<g>
					<path style="fill:none;stroke:#1C1D62;stroke-width:2;stroke-miterlimit:10;" d="M282.985,219.874
						c0-8.323-0.135-45.907-21.408-45.907c-21.273,0-29.136,18.92-29.136,45.907c0,1.345,0.031,2.779,0.103,4.272l-2.991,55.403
						l15.804,11.195l17.778-11.195l-1.008-18.679C286.973,260.398,282.985,228.136,282.985,219.874z"/>
				</g>
			</g>
			<g>
				<path style="fill:#1C1D62;" d="M270.262,206.852c0-1.667-1.351-3.018-3.018-3.018c-1.667,0-3.018,1.351-3.018,3.018
					s1.351,3.018,3.018,3.018C268.911,209.871,270.262,208.519,270.262,206.852z"/>
				<path style="fill:#1C1D62;" d="M259.405,206.852c0-1.667-1.351-3.018-3.018-3.018c-1.667,0-3.018,1.351-3.018,3.018
					s1.351,3.018,3.018,3.018C258.054,209.871,259.405,208.519,259.405,206.852z"/>
				<path style="fill:none;stroke:#1C1D62;stroke-width:2;stroke-linecap:round;stroke-miterlimit:10;" d="M261.424,204.808
					c0,11.419,5.063,15.858,6.815,17.471c1.753,1.612,1.126,5.896-4.013,5.312l3.018,8.373c0,0-10.35,3.7-16.361-2.532"/>
				<path style="fill:none;stroke:#1C1D62;stroke-width:2;stroke-linecap:round;stroke-miterlimit:10;" d="M250.883,237.854
					c1.947,1.753,5.063,2.531,7.01,2.142"/>
			</g>
			<path style="fill:#1C1D62;" d="M232.441,211.948c0,0,10.808-14.02,8.471-24.665c0,0,8.049,5.193,27.262,3.635
				c19.213-1.558,35.288-32.454,15.047-37.128s-15.427,10.644-33.931,13.111c-18.504,2.467-47.913,23.446-17.155,70.227
				L232.441,211.948z"/>
			<g>
				
					<ellipse transform="matrix(0.7071 -0.7071 0.7071 0.7071 -83.8395 227.2882)" style="fill:#FFFFFF;stroke:#1C1D62;stroke-width:2;stroke-miterlimit:10;" cx="232.441" cy="214.847" rx="7.431" ry="7.431"/>
				<path style="fill:#7056F3;" d="M233.838,216.395c0-1.9-1.54-3.441-3.441-3.441c-1.9,0-3.441,1.54-3.441,3.441
					c0,1.9,1.54,3.441,3.441,3.441C232.298,219.836,233.838,218.296,233.838,216.395z"/>
				<path style="fill:none;stroke:#7056F3;stroke-width:3;stroke-linecap:round;stroke-miterlimit:10;" d="M230.397,215.583
					c-1.947-4.544-11.036-29.541-1.623-38.851"/>
			</g>
			<g>
				<path style="fill:none;stroke:#7056F3;stroke-width:3;stroke-linecap:round;stroke-miterlimit:10;" d="M271.679,246.219
					c12.008,6.101,26.483-0.13,13.472-23.941"/>
				<path style="fill:#1C1D62;" d="M274.016,246.123c0-1.9-1.54-3.441-3.441-3.441c-1.9,0-3.441,1.54-3.441,3.441
					c0,1.9,1.54,3.441,3.441,3.441C272.475,249.564,274.016,248.024,274.016,246.123z"/>
			</g>
		</g>
		<g>
			<path style="fill:#1C1D62;" d="M296.642,404.114H196.046l-9.347-110.225c0-11.097,8.996-20.092,20.093-20.092h79.104
				c11.097,0,20.092,8.996,20.092,20.092L296.642,404.114z"/>
			<g>
				<polygon style="fill:#FFFFFF;" points="246.344,274.811 265.123,284.286 265.085,268.344 227.602,268.344 227.541,284.286 				
					"/>
				<polygon style="fill:none;stroke:#1C1D62;stroke-width:2;stroke-miterlimit:10;" points="246.344,274.811 265.123,284.286 
					265.085,268.344 227.602,268.344 227.541,284.286 				"/>
			</g>
			<g>
				<path style="fill:#FFFFFF;" d="M248.49,285.792c0-1.191-0.966-2.157-2.157-2.157c-1.191,0-2.157,0.966-2.157,2.157
					s0.966,2.157,2.157,2.157C247.524,287.949,248.49,286.984,248.49,285.792z"/>
				<path style="fill:#FFFFFF;" d="M248.49,295.865c0-1.191-0.966-2.157-2.157-2.157c-1.191,0-2.157,0.966-2.157,2.157
					c0,1.191,0.966,2.157,2.157,2.157C247.524,298.022,248.49,297.056,248.49,295.865z"/>
				<path style="fill:#FFFFFF;" d="M248.49,306.38c0-1.191-0.966-2.157-2.157-2.157c-1.191,0-2.157,0.966-2.157,2.157
					c0,1.191,0.966,2.157,2.157,2.157C247.524,308.537,248.49,307.571,248.49,306.38z"/>
			</g>
		</g>
		<g>
			<g>
				<path style="fill:#FFFFFF;" d="M206.134,277.932l-0.152-0.101c-4.702-3.131-11.053-1.857-14.184,2.845l-58.9,88.464
					c-3.131,4.703-1.857,11.053,2.845,14.184l0.152,0.101c4.702,3.131,11.053,1.857,14.184-2.845l58.9-88.464
					C212.11,287.413,210.836,281.063,206.134,277.932z"/>
				<path style="fill:#C7C3FE;" d="M179.639,330.628c-7.06,11.451-12.982,20.483-28.04,21.278c-3.208,0.169-6.295,1.283-9.172,2.923
					l-9.478,14.236c-3.159,4.744-1.874,11.151,2.871,14.31c4.744,3.159,11.151,1.874,14.31-2.871l47.994-72.083
					C192.676,314.028,184.195,323.238,179.639,330.628z"/>
				<path style="fill:none;stroke:#1C1D62;stroke-width:2;stroke-miterlimit:10;" d="M206.134,277.932l-0.152-0.101
					c-4.702-3.131-11.053-1.857-14.184,2.845l-58.9,88.464c-3.131,4.703-1.857,11.053,2.845,14.184l0.152,0.101
					c4.702,3.131,11.053,1.857,14.184-2.845l58.9-88.464C212.11,287.413,210.836,281.063,206.134,277.932z"/>
			</g>
			<g>
				<g>
					<path style="fill:#FFFFFF;" d="M220.531,363.444h11.424c0,0,2.207-13.371-4.024-18.044S225.246,357.602,220.531,363.444z"/>
					<path style="fill:none;stroke:#1C1D62;stroke-width:2;stroke-miterlimit:10;" d="M220.531,363.444h11.424
						c0,0,2.207-13.371-4.024-18.044S225.246,357.602,220.531,363.444z"/>
				</g>
				<path style="fill:#FFFFFF;" d="M147.552,357.822h81.279c9.127,0,16.526,7.399,16.526,16.526l0,0
					c0,9.127-7.399,16.526-16.526,16.526h-81.279c-9.127,0-16.526-7.399-16.526-16.526l0,0
					C131.026,365.221,138.425,357.822,147.552,357.822z"/>
				<path style="fill:#C7C3FE;" d="M147.552,390.874h81.279c6.699,0,12.455-3.994,15.049-9.724c-29.974,0-76.174,0-92.177,0
					c-13.901,0-16.176-10.061-15.269-19.004c-3.316,3.022-5.409,7.362-5.409,12.203l0,0
					C131.026,383.475,138.425,390.874,147.552,390.874z"/>
				<path style="fill:none;stroke:#1C1D62;stroke-width:2;stroke-miterlimit:10;" d="M147.552,357.822h81.279
					c9.127,0,16.526,7.399,16.526,16.526l0,0c0,9.127-7.399,16.526-16.526,16.526h-81.279c-9.127,0-16.526-7.399-16.526-16.526l0,0
					C131.026,365.221,138.425,357.822,147.552,357.822z"/>
				<g>
					
						<rect x="202.582" y="357.822" style="fill:none;stroke:#1C1D62;stroke-width:2;stroke-miterlimit:10;" width="13.234" height="32.742"/>
					<circle style="fill:#1C1D62;" cx="209.2" cy="365.553" r="2.109"/>
					
						<line style="fill:none;stroke:#1C1D62;stroke-width:2;stroke-miterlimit:10;" x1="209.2" y1="374.193" x2="209.2" y2="390.874"/>
				</g>
			</g>
		</g>
		<g>
			<g>
				<path style="fill:#FFFFFF;" d="M287.713,277.932l0.152-0.101c4.703-3.131,11.053-1.857,14.184,2.845l58.9,88.464
					c3.131,4.703,1.857,11.053-2.846,14.184l-0.152,0.101c-4.702,3.131-11.053,1.857-14.184-2.845l-58.9-88.464
					C281.736,287.413,283.01,281.063,287.713,277.932z"/>
				<path style="fill:#C7C3FE;" d="M314.207,330.628c7.06,11.451,12.982,20.483,28.04,21.278c3.208,0.169,6.295,1.283,9.172,2.923
					l9.478,14.236c3.159,4.744,1.874,11.151-2.871,14.31c-4.744,3.159-11.151,1.874-14.31-2.871l-47.994-72.083
					C301.17,314.028,309.651,323.238,314.207,330.628z"/>
				<path style="fill:none;stroke:#1C1D62;stroke-width:2;stroke-miterlimit:10;" d="M287.713,277.932l0.152-0.101
					c4.703-3.131,11.053-1.857,14.184,2.845l58.9,88.464c3.131,4.703,1.857,11.053-2.846,14.184l-0.152,0.101
					c-4.702,3.131-11.053,1.857-14.184-2.845l-58.9-88.464C281.736,287.413,283.01,281.063,287.713,277.932z"/>
			</g>
			<g>
				<path style="fill:#FFFFFF;" d="M346.295,357.822h-81.279c-9.127,0-16.526,7.399-16.526,16.526l0,0
					c0,9.127,7.399,16.526,16.526,16.526h81.279c9.127,0,16.526-7.399,16.526-16.526l0,0
					C362.821,365.221,355.422,357.822,346.295,357.822z"/>
				<path style="fill:#C7C3FE;" d="M346.295,390.874h-81.279c-6.699,0-12.455-3.994-15.049-9.724c29.974,0,76.174,0,92.177,0
					c13.901,0,16.176-10.061,15.269-19.004c3.316,3.022,5.409,7.362,5.409,12.203l0,0
					C362.821,383.475,355.422,390.874,346.295,390.874z"/>
				<path style="fill:none;stroke:#1C1D62;stroke-width:2;stroke-miterlimit:10;" d="M346.295,357.822h-81.279
					c-9.127,0-16.526,7.399-16.526,16.526l0,0c0,9.127,7.399,16.526,16.526,16.526h81.279c9.127,0,16.526-7.399,16.526-16.526l0,0
					C362.821,365.221,355.422,357.822,346.295,357.822z"/>
				<g>
					
						<rect x="278.029" y="357.822" transform="matrix(-1 -1.224647e-16 1.224647e-16 -1 569.2934 748.3859)" style="fill:none;stroke:#1C1D62;stroke-width:2;stroke-miterlimit:10;" width="13.234" height="32.742"/>
					<circle style="fill:#1C1D62;" cx="284.647" cy="365.553" r="2.109"/>
					
						<line style="fill:none;stroke:#1C1D62;stroke-width:2;stroke-miterlimit:10;" x1="284.647" y1="374.193" x2="284.647" y2="390.874"/>
				</g>
			</g>
		</g>
	</g>
	<g>
		<g>
			<rect x="92.833" y="390.564" style="fill:#7056F3;" width="314.333" height="36.275"/>
			
				<line style="fill:none;stroke:#1C1D62;stroke-width:2;stroke-miterlimit:10;" x1="92.833" y1="404.864" x2="290.093" y2="404.864"/>
			
				<line style="fill:none;stroke:#1C1D62;stroke-width:2;stroke-miterlimit:10;" x1="407.166" y1="410.306" x2="328.583" y2="410.306"/>
			
				<line style="fill:none;stroke:#1C1D62;stroke-width:2;stroke-miterlimit:10;" x1="373.529" y1="419.829" x2="212.075" y2="419.829"/>
			
				<line style="fill:none;stroke:#1C1D62;stroke-width:2;stroke-miterlimit:10;" x1="232.889" y1="410.306" x2="121.2" y2="410.306"/>
			
				<line style="fill:none;stroke:#1C1D62;stroke-width:2;stroke-miterlimit:10;" x1="407.166" y1="399.762" x2="359.696" y2="399.762"/>
		</g>
		<g>
			
				<rect x="258.324" y="387.5" style="fill:#F07AAB;stroke:#1C1D62;stroke-width:2;stroke-miterlimit:10;" width="114.423" height="6.258"/>
			<path style="fill:#F07AAB;stroke:#1C1D62;stroke-width:2;stroke-miterlimit:10;" d="M365.211,312.342h-99.351
				c-4.162,0-7.536,3.374-7.536,7.536v64.493h114.423v-64.493C372.747,315.716,369.374,312.342,365.211,312.342z"/>
			<g>
				<path style="fill:#FFFFFF;" d="M323.131,348.822c-0.601,0.168-1.221,0.286-1.872,0.286c-3.748-0.001-6.709-2.979-6.612-6.651
					c0.029-1.12,0.366-2.159,0.89-3.084c-4.021,0.238-7.296,3.471-7.401,7.464c-0.036,1.365,0.331,2.627,0.951,3.731
					c-1.716,1.651-2.81,3.923-2.876,6.433c-0.133,5.046,3.935,9.138,9.086,9.139c5.151,0.002,9.433-4.088,9.566-9.134
					c0.066-2.51-0.909-4.783-2.538-6.435C322.66,350.025,322.934,349.44,323.131,348.822z"/>
				<path style="fill:#FFFFFF;" d="M324.371,330.573L324.371,330.573c-4.211-0.001-7.713,3.342-7.822,7.468l0,0l0,0
					C320.761,338.043,324.263,334.699,324.371,330.573L324.371,330.573z"/>
			</g>
		</g>
		<g>
			<g>
				<path style="fill:#1C1D62;" d="M133.151,356.049v4.873c-6.815,0-17.94-4.135-17.94,12.339c0,16.474,11.126,12.339,17.94,12.339
					v4.873c-9.506,0-22.813,4.21-22.813-17.212S123.645,356.049,133.151,356.049z"/>
			</g>
			<path style="fill:#1C1D62;" d="M128.883,351.84h28.361c1.468,0,2.658,1.19,2.658,2.658v39.261h-33.677v-39.261
				C126.225,353.03,127.415,351.84,128.883,351.84z"/>
			<path style="fill:#F07AAB;" d="M135.19,335.992c-17.589,1.82-6.975-10.614,7.582-12.737c14.557-2.123,6.217-4.549,6.217-4.549
				c6.217,0.758,9.553,5.155,0,5.459c-9.553,0.303-16.983,6.52-10.424,6.823c6.558,0.303,20.584-1.668,21.493,2.275
				c0.91,3.942-10.766,4.246-17.286,5.004c-6.52,0.758-10.917,3.791-2.123,3.942c8.795,0.152,6.849,7.127,6.849,7.127
				c-2.4-6.672-15.795-2.881-16.25-7.582C130.792,337.054,152.779,334.173,135.19,335.992z"/>
			
				<rect x="155.878" y="355.065" transform="matrix(-1 -1.224647e-16 1.224647e-16 -1 313.7143 745.8726)" style="fill:#FFFFFF;" width="1.959" height="35.744"/>
		</g>
	</g>
	<g>
		
			<ellipse transform="matrix(0.9994 -0.0351 0.0351 0.9994 -4.9402 5.7803)" style="fill:#F07AAB;stroke:#1C1D62;stroke-width:2;stroke-miterlimit:10;" cx="162.162" cy="143.594" rx="50.054" ry="50.054"/>
		
			<line style="fill:#B9F3DD;stroke:#1C1D62;stroke-width:2;stroke-linecap:round;stroke-miterlimit:10;" x1="188.393" y1="186.236" x2="211.419" y2="203.834"/>
		<path style="fill:#FFFFFF;stroke:#1C1D62;stroke-width:2;stroke-miterlimit:10;" d="M182.682,153.132
			c-2.712-0.792-10.548-4.637-11.442-3.84c-0.895,0.796-4.694,4.181-4.694,4.181c-2.512-0.568-6.87-4.109-9.157-6.678
			c-2.287-2.567-5.304-7.303-5.58-9.865c0,0,3.801-3.386,4.695-4.182c0.895-0.796-2.024-9.022-2.499-11.806
			c-0.475-2.784-4.95-2.406-6.888-1.882c-1.94,0.525-10.238,14.733,5.295,32.17c15.535,17.436,30.605,10.827,31.35,8.961
			C184.502,158.327,185.393,153.924,182.682,153.132z"/>
	</g>
</g>
<g id="DESIGNED_BY_FREEPIK">
	<g>
		<g id="XMLID_319_">
			<g id="XMLID_338_">
				<path id="XMLID_346_" style="fill:#1D262D;" d="M260.104,465.465c-0.433,0.443-0.804,0.932-1.108,1.453l-0.465-0.241
					c-0.067-0.297-0.35-0.502-0.659-0.466c-0.331,0.039-0.567,0.339-0.529,0.67c0.039,0.331,0.339,0.567,0.67,0.528
					c0.065-0.007,0.127-0.025,0.184-0.052l0.451,0.234c-0.251,0.554-0.433,1.139-0.539,1.743l0.747,0.132
					c0.23-1.306,0.85-2.507,1.792-3.473L260.104,465.465z"/>
				<path id="XMLID_345_" style="fill:#1D262D;" d="M265.591,463.164c-0.171,0-0.341,0.006-0.509,0.017l-0.074-0.626
					c0.188-0.149,0.296-0.389,0.266-0.645c-0.046-0.393-0.402-0.674-0.795-0.628c-0.394,0.046-0.675,0.402-0.628,0.796
					c0.03,0.254,0.189,0.461,0.404,0.563l0.073,0.624c-0.714,0.116-1.402,0.332-2.06,0.646l0.327,0.685
					c0.935-0.447,1.941-0.674,2.995-0.674c0.497,0,0.993,0.053,1.476,0.158l0.16-0.741
					C266.692,463.222,266.142,463.164,265.591,463.164z"/>
				<path id="XMLID_344_" style="fill:#1D262D;" d="M272.194,465.711c0.331-0.04,0.566-0.341,0.525-0.672
					c-0.04-0.331-0.341-0.566-0.672-0.525c-0.31,0.038-0.535,0.304-0.53,0.608l-0.416,0.363c-0.418-0.43-0.89-0.813-1.407-1.14
					l-0.404,0.642c1.135,0.715,2.021,1.727,2.564,2.925l0.69-0.313c-0.251-0.554-0.567-1.071-0.942-1.545l0.402-0.351
					C272.065,465.715,272.128,465.719,272.194,465.711z"/>
				<path id="XMLID_343_" style="fill:#1D262D;" d="M265.044,473.372c-0.386,0.023-0.775,0.035-1.157,0.035
					c-0.88,0-1.733-0.061-2.479-0.18c-0.391-0.062-0.846-0.154-1.271-0.292c1.047,1.861,3.069,3.125,5.389,3.125
					c2.855,0,5.263-1.916,5.949-4.503c-0.682,0.449-1.505,0.825-2.458,1.122C267.838,473.047,266.463,473.287,265.044,473.372z"/>
				<path id="XMLID_339_" style="fill:#1D262D;" d="M265.591,464.68c-3.351,0-6.079,2.666-6.079,5.943
					c0,0.425,0.046,0.849,0.137,1.261c0.674,0.483,2.706,0.891,5.348,0.731c2.88-0.174,5.297-0.958,6.672-2.159
					c-0.005-0.194-0.021-0.39-0.045-0.581C271.244,466.914,268.65,464.68,265.591,464.68z M263.432,471.195
					c-1.02,0-1.85-0.83-1.85-1.85c0-1.021,0.83-1.851,1.85-1.851c1.02,0,1.85,0.83,1.85,1.851
					C265.282,470.365,264.452,471.195,263.432,471.195z M268.169,470.287c-0.75,0-1.36-0.61-1.36-1.36s0.61-1.36,1.36-1.36
					s1.36,0.61,1.36,1.36S268.919,470.287,268.169,470.287z"/>
			</g>
			<path id="XMLID_336_" style="fill:#1D262D;" d="M281.595,466.547c-0.295-0.116-0.806-0.31-1.383-0.238
				c-0.551,0.069-0.844,0.341-0.844,1.007v0.866h2.229v1.717h-2.229v5.455h-1.932v-5.455h-1.339v-1.717h1.339v-0.889
				c0-1.68,0.896-2.782,2.568-2.782c0.643,0,1.157,0.121,1.59,0.308V466.547z"/>
			<path id="XMLID_334_" style="fill:#1D262D;" d="M286.297,469.878c-0.177-0.029-0.357-0.046-0.525-0.046
				c-0.896,0-1.51,0.548-1.51,1.613v3.908h-1.933v-7.172h1.873v0.784c0.451-0.673,1.14-0.977,2.021-0.977
				c0.414,0,0.848,0.128,1.095,0.337L286.297,469.878z"/>
			<path id="XMLID_331_" style="fill:#1D262D;" d="M293.965,471.757c0,0.222-0.016,0.488-0.037,0.651h-5.085
				c0.207,1.036,0.933,1.487,1.843,1.487c0.622,0,1.295-0.252,1.813-0.689l1.133,1.243c-0.814,0.748-1.851,1.089-3.057,1.089
				c-2.198,0-3.724-1.496-3.724-3.753c0-2.258,1.48-3.797,3.627-3.797C292.543,467.99,293.958,469.522,293.965,471.757z
				 M288.851,471.091h3.175c-0.178-0.918-0.732-1.437-1.562-1.437C289.554,469.655,289.021,470.203,288.851,471.091z"/>
			<path id="XMLID_328_" style="fill:#1D262D;" d="M301.619,471.757c0,0.222-0.016,0.488-0.037,0.651h-5.085
				c0.207,1.036,0.933,1.487,1.843,1.487c0.622,0,1.296-0.252,1.814-0.689l1.133,1.243c-0.815,0.748-1.851,1.089-3.058,1.089
				c-2.198,0-3.723-1.496-3.723-3.753c0-2.258,1.48-3.797,3.627-3.797C300.197,467.99,301.611,469.522,301.619,471.757z
				 M296.504,471.091h3.175c-0.178-0.918-0.733-1.437-1.561-1.437C297.208,469.655,296.674,470.203,296.504,471.091z"/>
			<path id="XMLID_325_" style="fill:#1D262D;" d="M309.964,471.764c0,2.154-1.495,3.775-3.472,3.775
				c-0.962,0-1.644-0.378-2.109-0.933v3.708h-1.925v-10.133h1.888v0.792c0.467-0.585,1.154-0.984,2.139-0.984
				C308.469,467.99,309.964,469.611,309.964,471.764z M304.287,471.764c0,1.133,0.748,1.977,1.844,1.977
				c1.14,0,1.85-0.881,1.85-1.977c0-1.095-0.71-1.976-1.85-1.976C305.035,469.789,304.287,470.632,304.287,471.764z"/>
			<path id="XMLID_322_" style="fill:#1D262D;" d="M313.068,465.836c0,0.696-0.541,1.229-1.236,1.229
				c-0.696,0-1.229-0.533-1.229-1.229c0-0.695,0.532-1.243,1.229-1.243C312.527,464.592,313.068,465.14,313.068,465.836z
				 M312.808,475.354h-1.932v-7.172h1.932V475.354z"/>
			<path id="XMLID_320_" style="fill:#1D262D;" d="M316.032,470.736l2.702-2.554h2.368l-3.478,3.375l3.501,3.797h-2.376
				l-2.717-2.901v2.901H314.1v-10.658h1.932V470.736z"/>
		</g>
		<g>
			<path style="fill:#1D262D;" d="M184.412,475.29v-1.055c-0.527,0.718-1.391,1.23-2.387,1.23c-1.846,0-3.149-1.406-3.149-3.706
				c0-2.256,1.289-3.721,3.149-3.721c0.952,0,1.816,0.469,2.387,1.245v-3.765h1.099v9.771H184.412z M184.412,473.371v-3.208
				c-0.395-0.615-1.245-1.143-2.124-1.143c-1.42,0-2.27,1.172-2.27,2.739c0,1.567,0.85,2.725,2.27,2.725
				C183.167,474.484,184.017,473.986,184.412,473.371z"/>
			<path style="fill:#1D262D;" d="M186.932,471.745c0-2.051,1.465-3.706,3.486-3.706c2.139,0,3.398,1.67,3.398,3.794v0.278h-5.727
				c0.088,1.333,1.025,2.446,2.549,2.446c0.806,0,1.626-0.322,2.182-0.894l0.527,0.718c-0.703,0.703-1.655,1.084-2.812,1.084
				C188.44,475.465,186.932,473.957,186.932,471.745z M190.403,468.947c-1.509,0-2.256,1.274-2.314,2.358h4.644
				C192.718,470.25,192.015,468.947,190.403,468.947z"/>
			<path style="fill:#1D262D;" d="M194.607,474.352l0.571-0.791c0.469,0.542,1.362,1.011,2.329,1.011c1.084,0,1.67-0.513,1.67-1.216
				c0-1.714-4.38-0.659-4.38-3.281c0-1.099,0.952-2.036,2.636-2.036c1.202,0,2.051,0.454,2.623,1.025l-0.513,0.762
				c-0.424-0.513-1.201-0.894-2.109-0.894c-0.966,0-1.567,0.483-1.567,1.113c0,1.553,4.379,0.527,4.379,3.281
				c0,1.187-0.952,2.139-2.783,2.139C196.306,475.465,195.325,475.114,194.607,474.352z"/>
			<path style="fill:#1D262D;" d="M201.477,466.471c0-0.41,0.337-0.747,0.732-0.747c0.41,0,0.747,0.337,0.747,0.747
				c0,0.41-0.337,0.732-0.747,0.732C201.814,467.204,201.477,466.881,201.477,466.471z M201.667,475.29v-7.075h1.099v7.075H201.667z
				"/>
			<path style="fill:#1D262D;" d="M204.582,477.106l0.556-0.82c0.586,0.703,1.289,0.967,2.3,0.967c1.172,0,2.271-0.571,2.271-2.124
				v-1.011c-0.513,0.718-1.377,1.26-2.373,1.26c-1.846,0-3.149-1.377-3.149-3.662c0-2.271,1.289-3.677,3.149-3.677
				c0.952,0,1.802,0.469,2.373,1.245v-1.069h1.099v6.87c0,2.344-1.641,3.076-3.369,3.076
				C206.237,478.161,205.416,477.925,204.582,477.106z M209.708,473.253v-3.091c-0.381-0.615-1.23-1.143-2.109-1.143
				c-1.421,0-2.27,1.128-2.27,2.695c0,1.553,0.849,2.695,2.27,2.695C208.478,474.411,209.328,473.869,209.708,473.253z"/>
			<path style="fill:#1D262D;" d="M217.413,475.29v-4.629c0-1.245-0.63-1.641-1.582-1.641c-0.864,0-1.685,0.527-2.094,1.099v5.171
				h-1.099v-7.075h1.099v1.025c0.497-0.586,1.464-1.201,2.519-1.201c1.479,0,2.256,0.747,2.256,2.285v4.966H217.413z"/>
			<path style="fill:#1D262D;" d="M219.932,471.745c0-2.051,1.465-3.706,3.486-3.706c2.139,0,3.398,1.67,3.398,3.794v0.278h-5.727
				c0.088,1.333,1.025,2.446,2.548,2.446c0.806,0,1.626-0.322,2.183-0.894l0.527,0.718c-0.703,0.703-1.655,1.084-2.813,1.084
				C221.441,475.465,219.932,473.957,219.932,471.745z M223.404,468.947c-1.509,0-2.256,1.274-2.314,2.358h4.643
				C225.718,470.25,225.015,468.947,223.404,468.947z"/>
			<path style="fill:#1D262D;" d="M233.35,475.29v-1.055c-0.527,0.718-1.392,1.23-2.388,1.23c-1.845,0-3.149-1.406-3.149-3.706
				c0-2.256,1.289-3.721,3.149-3.721c0.952,0,1.817,0.469,2.388,1.245v-3.765h1.098v9.771H233.35z M233.35,473.371v-3.208
				c-0.396-0.615-1.245-1.143-2.124-1.143c-1.421,0-2.27,1.172-2.27,2.739c0,1.567,0.85,2.725,2.27,2.725
				C232.105,474.484,232.954,473.986,233.35,473.371z"/>
			<path style="fill:#1D262D;" d="M239.692,475.29v-9.771h1.099v3.765c0.571-0.776,1.421-1.245,2.388-1.245
				c1.845,0,3.149,1.465,3.149,3.721c0,2.3-1.304,3.706-3.149,3.706c-0.996,0-1.86-0.513-2.388-1.23v1.055H239.692z M242.9,474.484
				c1.436,0,2.285-1.157,2.285-2.725c0-1.567-0.85-2.739-2.285-2.739c-0.864,0-1.729,0.527-2.109,1.143v3.208
				C241.171,473.986,242.036,474.484,242.9,474.484z"/>
			<path style="fill:#1D262D;" d="M247.528,477.062c0.161,0.073,0.425,0.117,0.601,0.117c0.483,0,0.806-0.161,1.055-0.747
				l0.469-1.069l-2.959-7.148h1.187l2.358,5.801l2.344-5.801h1.2l-3.544,8.511c-0.425,1.024-1.143,1.421-2.08,1.436
				c-0.234,0-0.6-0.044-0.806-0.104L247.528,477.062z"/>
		</g>
	</g>
</g>
</svg>
