<svg width="636" height="383" viewBox="0 0 636 383" fill="none" xmlns="http://www.w3.org/2000/svg">
<path d="M502.17 63.6819C516.501 61.3367 526.218 47.818 523.873 33.487C521.528 19.156 508.009 9.43959 493.678 11.7848C479.347 14.1299 469.63 27.6486 471.976 41.9796C474.321 56.3106 487.839 66.0271 502.17 63.6819Z" fill="#0D004F"/>
<path d="M496.021 59.771C510.542 59.771 522.314 47.9992 522.314 33.478C522.314 18.9568 510.542 7.185 496.021 7.185C481.5 7.185 469.728 18.9568 469.728 33.478C469.728 47.9992 481.5 59.771 496.021 59.771Z" fill="white"/>
<path d="M502.37 60.0152C517.037 56.5092 526.084 41.7776 522.578 27.1112C519.072 12.4448 504.34 3.39748 489.674 6.90348C475.007 10.4095 465.96 25.1411 469.466 39.8075C472.972 54.4739 487.704 63.5212 502.37 60.0152Z" fill="#3041B0"/>
<path d="M501.959 54.4849C513.556 51.2109 520.303 39.1559 517.029 27.5592C513.755 15.9626 501.7 9.21565 490.104 12.4896C478.507 15.7635 471.76 27.8185 475.034 39.4152C478.308 51.0118 490.363 57.7588 501.959 54.4849Z" fill="#D4E2FF"/>
<path opacity="0.62" d="M481.791 35.611C489.06 28.062 496.325 20.504 503.695 13.053C501.307 12.155 498.722 11.661 496.02 11.661C483.97 11.661 474.202 21.429 474.202 33.478C474.202 36.416 474.787 39.218 475.84 41.776C477.827 39.723 479.81 37.668 481.791 35.611Z" fill="white"/>
<path opacity="0.62" d="M484.202 48.534C485.413 47.346 486.659 46.196 487.867 45.006C496.308 36.693 504.8 28.432 513.344 20.226C512.21 18.747 510.892 17.417 509.422 16.271C499.146 26.399 488.974 36.634 478.776 46.84C479.804 48.164 480.981 49.366 482.281 50.422C482.9 49.745 483.606 49.119 484.202 48.534Z" fill="white"/>
<path d="M497.959 33.478C497.959 32.407 497.091 31.539 496.02 31.539C494.949 31.539 494.081 32.407 494.081 33.478C494.081 34.549 494.949 35.417 496.02 35.417C497.091 35.417 497.959 34.549 497.959 33.478Z" fill="black"/>
<path d="M505.565 38.882L495.374 33.872L495.736 15.647C495.739 15.51 495.847 15.399 495.983 15.392C496.13 15.384 496.254 15.499 496.257 15.646L496.666 33.085L505.855 38.335C505.998 38.417 506.052 38.595 505.978 38.742C505.903 38.894 505.718 38.957 505.565 38.882Z" fill="black"/>
<g opacity="0.73">
<path d="M412.658 53.373L410.206 49.87C409.523 48.894 408.208 48.614 407.173 49.204C403.944 51.045 401.083 53.366 398.63 56.135C397.844 57.023 397.843 58.36 398.65 59.23L401.591 62.403C402.277 63.143 402.404 64.251 401.878 65.112C400.981 66.581 400.234 68.134 399.644 69.743C399.332 70.594 398.514 71.156 397.608 71.191L392.664 71.381C391.567 71.423 390.66 72.242 390.486 73.326C389.886 77.065 389.914 80.911 390.567 84.631C390.766 85.76 391.761 86.575 392.906 86.535L397.472 86.378C398.439 86.345 399.334 86.918 399.671 87.824C399.972 88.633 400.316 89.434 400.705 90.225C401.071 90.967 401.467 91.685 401.892 92.376C402.382 93.174 402.308 94.196 401.734 94.936L398.816 98.696C398.129 99.581 398.188 100.831 398.944 101.658C401.488 104.441 404.512 106.806 407.833 108.612C408.829 109.154 410.073 108.896 410.761 107.994L413.591 104.285C414.172 103.523 415.169 103.2 416.081 103.494C417.814 104.053 419.606 104.432 421.425 104.62C422.453 104.726 423.278 105.514 423.435 106.536L424.078 110.716C424.26 111.902 425.33 112.738 426.527 112.653C430.277 112.386 433.922 111.5 437.415 110.005C438.406 109.58 438.995 108.549 438.807 107.487L437.912 102.421C437.76 101.559 438.101 100.67 438.822 100.174C440.206 99.224 441.476 98.156 442.624 96.989C443.336 96.265 444.444 96.115 445.332 96.605L449.104 98.687C450.139 99.258 451.439 98.946 452.107 97.971C454.217 94.885 455.824 91.437 456.83 87.829C457.127 86.762 456.633 85.631 455.639 85.141L451.279 82.993C450.454 82.586 449.937 81.724 450.012 80.807C450.148 79.133 450.121 77.439 449.926 75.747C449.814 74.772 450.365 73.841 451.261 73.44L455.353 71.609C456.409 71.136 456.945 69.948 456.608 68.841C456.072 67.082 455.391 65.361 454.575 63.704C453.744 62.017 452.776 60.4 451.684 58.877C451.006 57.931 449.727 57.637 448.708 58.199L444.818 60.346C443.948 60.826 442.865 60.691 442.15 60.001C440.818 58.716 439.362 57.588 437.811 56.627C436.959 56.099 436.561 55.074 436.821 54.106L437.971 49.841C438.275 48.713 437.68 47.538 436.594 47.109C433.137 45.743 429.45 44.942 425.745 44.753C424.585 44.694 423.56 45.506 423.362 46.651L422.6 51.045C422.431 52.023 421.649 52.782 420.665 52.91C418.853 53.146 417.047 53.577 415.276 54.213C414.318 54.558 413.244 54.211 412.658 53.373ZM430.018 62.338C449.866 72.457 440.696 99.419 418.792 95.339C418.557 95.295 418.319 95.214 418.107 95.105C398.271 84.98 407.439 58.033 429.333 62.104C429.568 62.149 429.805 62.23 430.018 62.338Z" fill="#EDF5FF"/>
<path d="M360.221 85.09L358.245 82.267C357.694 81.481 356.635 81.255 355.801 81.73C353.199 83.213 350.893 85.084 348.916 87.316C348.282 88.031 348.282 89.109 348.932 89.81L351.302 92.367C351.855 92.964 351.957 93.856 351.533 94.551C350.81 95.735 350.209 96.986 349.733 98.283C349.481 98.969 348.823 99.421 348.092 99.45L344.108 99.603C343.224 99.637 342.493 100.296 342.353 101.17C341.869 104.183 341.892 107.283 342.418 110.28C342.578 111.19 343.38 111.846 344.303 111.815L347.982 111.688C348.761 111.661 349.482 112.123 349.754 112.854C349.996 113.506 350.273 114.151 350.587 114.789C350.882 115.387 351.201 115.965 351.544 116.523C351.939 117.166 351.879 117.989 351.416 118.586L349.065 121.616C348.511 122.329 348.559 123.337 349.169 124.003C351.219 126.246 353.656 128.152 356.332 129.607C357.135 130.043 358.137 129.836 358.691 129.109L360.972 126.12C361.44 125.506 362.243 125.246 362.979 125.483C364.376 125.934 365.82 126.239 367.286 126.39C368.115 126.476 368.779 127.111 368.906 127.934L369.424 131.302C369.571 132.258 370.433 132.932 371.397 132.863C374.419 132.648 377.356 131.934 380.171 130.729C380.97 130.387 381.444 129.556 381.293 128.7L380.572 124.617C380.449 123.923 380.724 123.205 381.306 122.806C382.421 122.04 383.445 121.18 384.37 120.239C384.943 119.656 385.837 119.534 386.553 119.93L389.593 121.608C390.427 122.069 391.475 121.818 392.013 121.031C393.714 118.544 395.008 115.765 395.819 112.857C396.059 111.997 395.66 111.086 394.86 110.691L391.346 108.96C390.681 108.633 390.265 107.937 390.325 107.199C390.434 105.85 390.413 104.485 390.256 103.121C390.166 102.335 390.61 101.585 391.332 101.262L394.63 99.786C395.481 99.405 395.913 98.448 395.641 97.556C395.209 96.138 394.66 94.751 394.003 93.416C393.334 92.057 392.553 90.753 391.674 89.526C391.127 88.763 390.097 88.527 389.276 88.98L386.141 90.71C385.44 91.097 384.567 90.988 383.991 90.432C382.917 89.397 381.744 88.488 380.494 87.713C379.808 87.288 379.486 86.461 379.696 85.682L380.623 82.245C380.868 81.336 380.388 80.39 379.513 80.044C376.727 78.943 373.756 78.298 370.77 78.145C369.836 78.097 369.009 78.752 368.849 79.674L368.235 83.215C368.098 84.003 367.469 84.615 366.675 84.718C365.215 84.908 363.76 85.255 362.332 85.768C361.559 86.045 360.694 85.765 360.221 85.09ZM374.212 92.315C390.207 100.469 382.817 122.197 365.165 118.91C364.976 118.875 364.784 118.81 364.613 118.722C348.628 110.563 356.016 88.847 373.66 92.128C373.849 92.162 374.04 92.228 374.212 92.315Z" fill="#EDF5FF"/>
</g>
<path d="M51.738 69.98H76.301L84.332 79.431V56.748C84.332 49.44 79.891 43.516 74.412 43.516H51.738C46.259 43.516 41.818 49.44 41.818 56.748C41.818 64.056 46.26 69.98 51.738 69.98Z" fill="#3041B0"/>
<path d="M64.777 53.226H60.611V62.946H64.777V53.226Z" fill="white"/>
<path d="M58.884 56.388H54.718V62.946H58.884V56.388Z" fill="white"/>
<path d="M71.147 50.311H66.981V62.947H71.147V50.311Z" fill="white"/>
<path d="M125.833 28.098H99.752L91.225 38.133V14.049C91.225 6.29 95.941 0 101.758 0H125.833C131.65 0 136.366 6.29 136.366 14.049C136.366 21.808 131.65 28.098 125.833 28.098Z" fill="#D4E2FF"/>
<path d="M108.765 13.823C108.765 12.354 107.574 11.163 106.105 11.163C104.636 11.163 103.445 12.354 103.445 13.823C103.445 15.292 104.636 16.483 106.105 16.483C107.574 16.483 108.765 15.292 108.765 13.823Z" fill="white"/>
<path d="M117.411 13.823C117.411 12.354 116.22 11.163 114.751 11.163C113.282 11.163 112.091 12.354 112.091 13.823C112.091 15.292 113.282 16.483 114.751 16.483C116.22 16.483 117.411 15.292 117.411 13.823Z" fill="white"/>
<path d="M126.057 13.823C126.057 12.354 124.866 11.163 123.397 11.163C121.928 11.163 120.737 12.354 120.737 13.823C120.737 15.292 121.928 16.483 123.397 16.483C124.866 16.483 126.057 15.292 126.057 13.823Z" fill="white"/>
<path d="M562.792 95.272H536.71L528.183 105.307V81.222C528.183 73.463 532.899 67.173 538.716 67.173H562.791C568.608 67.173 573.324 73.463 573.324 81.222C573.325 88.982 568.609 95.272 562.792 95.272Z" fill="#D4E2FF"/>
<path d="M545.724 80.996C545.724 79.527 544.533 78.336 543.064 78.336C541.595 78.336 540.404 79.527 540.404 80.996C540.404 82.465 541.595 83.656 543.064 83.656C544.533 83.656 545.724 82.465 545.724 80.996Z" fill="white"/>
<path d="M554.37 80.996C554.37 79.527 553.179 78.336 551.71 78.336C550.241 78.336 549.05 79.527 549.05 80.996C549.05 82.465 550.241 83.656 551.71 83.656C553.179 83.656 554.37 82.465 554.37 80.996Z" fill="white"/>
<path d="M563.016 80.996C563.016 79.527 561.825 78.336 560.356 78.336C558.887 78.336 557.696 79.527 557.696 80.996C557.696 82.465 558.887 83.656 560.356 83.656C561.825 83.656 563.016 82.465 563.016 80.996Z" fill="white"/>
<path d="M358.329 70.022H377.458L383.712 77.382V59.717C383.712 54.026 380.253 49.413 375.987 49.413H358.329C354.062 49.413 350.604 54.026 350.604 59.717C350.603 65.409 354.062 70.022 358.329 70.022Z" fill="#3041B0"/>
<path d="M361.496 60.046C361.496 58.944 360.603 58.051 359.501 58.051C358.399 58.051 357.506 58.944 357.506 60.046C357.506 61.148 358.399 62.041 359.501 62.041C360.603 62.041 361.496 61.148 361.496 60.046Z" fill="white"/>
<path d="M368.489 60.046C368.489 58.944 367.596 58.051 366.494 58.051C365.392 58.051 364.499 58.944 364.499 60.046C364.499 61.148 365.392 62.041 366.494 62.041C367.595 62.041 368.489 61.148 368.489 60.046Z" fill="white"/>
<path d="M375.481 60.046C375.481 58.944 374.588 58.051 373.486 58.051C372.384 58.051 371.491 58.944 371.491 60.046C371.491 61.148 372.384 62.041 373.486 62.041C374.588 62.041 375.481 61.148 375.481 60.046Z" fill="white"/>
<path d="M502.957 111.78C502.957 105.82 498.126 100.989 492.166 100.989C486.206 100.989 481.375 105.82 481.375 111.78C481.375 117.74 491.644 127.096 491.644 127.096C491.644 127.096 502.957 117.74 502.957 111.78Z" fill="#EE3A58"/>
<path d="M491.644 127.096C491.644 127.096 502.957 117.739 502.957 111.78C502.957 105.821 498.126 100.989 492.166 100.989" fill="#3041B0"/>
<path d="M489.033 122.223C489.033 122.223 490.425 110.91 488.859 111.606C487.292 112.302 486.422 114.043 488.163 114.391C489.904 114.739 496.865 114.391 496.865 114.391C496.865 114.391 497.485 112.411 496.343 111.954C494.603 111.258 494.603 117.872 494.254 122.571" stroke="white" stroke-width="0.2873" stroke-miterlimit="10"/>
<path d="M495.995 124.66H487.292C486.619 124.66 486.074 124.115 486.074 123.442C486.074 122.769 486.62 122.224 487.292 122.224H495.995C496.668 122.224 497.213 122.77 497.213 123.442C497.213 124.114 496.668 124.66 495.995 124.66Z" fill="#18293D"/>
<path d="M491.818 130.229C489.03 130.229 486.771 127.969 486.771 125.182V124.312H496.866V125.182C496.865 127.97 494.605 130.229 491.818 130.229Z" fill="#18293D" stroke="#EAEBEC" stroke-width="0.3925" stroke-miterlimit="10"/>
<path d="M472.709 111.849H477.614" stroke="#ABC6FF" stroke-width="0.7375" stroke-miterlimit="10" stroke-linecap="round"/>
<path d="M507.044 111.849H511.95" stroke="#ABC6FF" stroke-width="0.7375" stroke-miterlimit="10" stroke-linecap="round"/>
<path d="M478.456 97.975L481.924 101.444" stroke="#ABC6FF" stroke-width="0.7375" stroke-miterlimit="10" stroke-linecap="round"/>
<path d="M502.734 122.254L506.203 125.722" stroke="#ABC6FF" stroke-width="0.7375" stroke-miterlimit="10" stroke-linecap="round"/>
<path d="M492.329 92.229V97.134" stroke="#ABC6FF" stroke-width="0.7375" stroke-miterlimit="10" stroke-linecap="round"/>
<path d="M506.203 97.975L502.734 101.444" stroke="#ABC6FF" stroke-width="0.7375" stroke-miterlimit="10" stroke-linecap="round"/>
<path d="M481.924 122.254L478.456 125.722" stroke="#ABC6FF" stroke-width="0.7375" stroke-miterlimit="10" stroke-linecap="round"/>
<g opacity="0.56">
<path d="M34.026 151.012H8.25403V165.976H34.026V151.012Z" fill="#ABC6FF"/>
<path d="M59.798 165.976H34.026V180.94H59.798V165.976Z" fill="#ABC6FF"/>
<path d="M609.655 193.91H583.883V208.874H609.655V193.91Z" fill="#ABC6FF"/>
<path d="M635.426 208.874H609.654V223.838H635.426V208.874Z" fill="#ABC6FF"/>
<path d="M185.664 292.675H211.436V277.711H185.664V292.675Z" fill="#ABC6FF"/>
<path d="M159.893 307.638H185.665V292.674H159.893V307.638Z" fill="#ABC6FF"/>
</g>
<path d="M43.177 347.671C43.177 348.504 37.229 349.179 29.893 349.179C22.556 349.179 16.609 348.504 16.609 347.671C16.609 346.838 22.557 346.163 29.893 346.163C37.23 346.163 43.177 346.838 43.177 347.671Z" fill="#ABC6FF"/>
<path d="M41.689 309.787C44.87 298.322 45.7901 286.318 44.38 274.503C44.311 273.925 43.395 273.918 43.465 274.503C44.866 286.242 43.9671 298.151 40.8071 309.544C40.6491 310.112 41.532 310.355 41.689 309.787Z" fill="#ABC6FF"/>
<path d="M54.906 307.675C60.904 309.049 67.642 305.642 70.091 299.997C67.333 300.872 64.384 301.138 61.514 300.772C70.335 298.158 75.79 289.309 78.777 280.608C81.567 272.483 82.941 263.874 82.82 255.284C80.434 257.473 78.049 259.662 75.663 261.851C77.955 259.474 80.292 257.032 81.646 254.021C83.001 251.009 83.203 247.263 81.308 244.559C74.056 248.841 67.248 253.876 61.03 259.557C60.433 260.102 59.819 260.689 59.575 261.46C59.299 262.331 59.546 263.272 59.793 264.151C60.75 267.557 61.708 270.963 62.665 274.368C61.163 271.348 59.325 268.495 57.198 265.877C48.723 278.417 45.103 294.152 47.246 309.135" fill="#ABC6FF"/>
<path d="M40.815 306.966C40.98 300.889 39.724 294.778 37.174 289.26C35.214 285.018 31.505 280.639 26.867 281.205C24.176 281.534 21.995 283.478 20.084 285.401C14.001 291.52 8.676 298.39 4.266 305.807C2.177 309.321 0.252 313.097 0 317.177C6.991 311.332 8.373 300.142 16.263 295.582C17.011 295.15 18.037 294.819 18.67 295.408C20.404 297.019 15.273 299.782 16.913 301.488C18.978 299.347 21.044 297.207 23.109 295.066C23.576 294.582 24.08 294.075 24.733 293.913C25.831 293.64 26.891 294.415 27.735 295.168C31.93 298.913 35.5 303.358 38.251 308.263" fill="#ABC6FF"/>
<path d="M44.852 281.896C44.657 273.156 42.345 264.471 38.169 256.791C38.909 261.288 38.604 265.953 37.284 270.316C37.467 264.494 37.504 258.177 34.036 253.498C32.566 251.515 30.571 249.993 28.568 248.55C21.896 243.743 14.822 239.496 7.44202 235.868C8.96402 241.674 10.486 247.479 12.008 253.284C12.122 253.72 12.254 254.185 12.599 254.476C12.996 254.811 13.564 254.823 14.083 254.819C16.605 254.799 19.127 254.778 21.649 254.758C19.967 256.159 17.969 257.178 15.847 257.715C15.265 257.862 14.579 258.054 14.38 258.621C14.235 259.034 14.42 259.483 14.607 259.879C20.164 271.613 31.381 280.504 44.074 283.236" fill="#ABC6FF"/>
<path d="M68.3569 255.955C67.8089 259.766 67.6599 263.613 67.9369 267.454C67.9789 268.038 68.8949 268.043 68.8529 267.454C68.5829 263.7 68.7039 259.925 69.2399 256.199C69.3219 255.622 68.4399 255.373 68.3569 255.955Z" fill="white"/>
<path d="M64.5289 258.81C64.9179 262.235 65.3059 265.66 65.6949 269.085C65.7609 269.664 66.6769 269.671 66.6109 269.085C66.2219 265.66 65.8339 262.235 65.4449 258.81C65.3789 258.232 64.4629 258.225 64.5289 258.81Z" fill="white"/>
<path d="M50.3899 303.845C56.0729 289.326 63.8499 275.662 73.4359 263.366C73.7939 262.907 73.1509 262.254 72.7889 262.719C63.0979 275.15 55.2519 288.925 49.5069 303.602C49.2919 304.15 50.1769 304.388 50.3899 303.845Z" fill="white"/>
<path d="M32.483 264.216C32.121 260.427 31.76 256.638 31.398 252.85C31.342 252.269 30.426 252.263 30.482 252.85C30.844 256.639 31.205 260.428 31.567 264.216C31.623 264.797 32.539 264.803 32.483 264.216Z" fill="white"/>
<path d="M26.756 250.265C28.163 253.872 29.101 257.648 29.519 261.497C29.582 262.076 30.498 262.083 30.435 261.497C30.008 257.563 29.078 253.709 27.639 250.021C27.427 249.479 26.542 249.715 26.756 250.265Z" fill="white"/>
<path d="M43.144 279.75C39.076 270.938 32.184 263.576 23.668 258.923C23.151 258.64 22.688 259.431 23.206 259.713C31.599 264.299 38.346 271.529 42.354 280.212C42.6 280.746 43.39 280.282 43.144 279.75Z" fill="white"/>
<path d="M27.432 286.619C25.447 288.604 23.463 290.588 21.478 292.573C21.061 292.99 21.708 293.638 22.125 293.22C24.11 291.235 26.094 289.251 28.079 287.266C28.497 286.85 27.849 286.202 27.432 286.619Z" fill="white"/>
<path d="M24.362 286.135C19.087 289.622 14.266 293.758 10.026 298.45C9.63197 298.886 10.277 299.536 10.673 299.097C14.861 294.462 19.613 290.37 24.824 286.925C25.313 286.602 24.855 285.809 24.362 286.135Z" fill="white"/>
<path d="M23.678 287.871C25.402 286.756 27.614 287.164 29.202 288.343C30.815 289.541 31.818 291.365 32.668 293.143C34.628 297.244 36.07 301.583 37.039 306.021C37.165 306.596 38.047 306.353 37.922 305.778C36.842 300.831 35.221 295.824 32.79 291.363C31.8 289.546 30.464 287.772 28.536 286.889C26.829 286.107 24.826 286.041 23.216 287.081C22.723 287.399 23.181 288.192 23.678 287.871Z" fill="white"/>
<path d="M32.498 349.858H55.02C61.835 349.858 67.36 344.333 67.36 337.518V304.404H20.158V337.518C20.158 344.333 25.682 349.858 32.498 349.858Z" fill="#3041B0"/>
<path opacity="0.28" d="M32.4979 349.858H55.0199C61.8349 349.858 67.3599 344.333 67.3599 337.518V304.404" fill="#3041B0"/>
<g opacity="0.59">
<path d="M68.3571 318.611C61.9771 319.216 55.9611 321.196 50.1411 323.811C44.4601 326.363 38.9691 329.359 33.0711 331.403C29.3661 332.687 25.5451 333.564 21.6391 333.935C21.0581 333.99 21.0521 334.906 21.6391 334.851C28.0191 334.246 34.035 332.266 39.855 329.651C45.536 327.099 51.0271 324.103 56.925 322.059C60.6301 320.775 64.4511 319.898 68.3571 319.527C68.9391 319.472 68.9441 318.556 68.3571 318.611Z" fill="white"/>
</g>
<path d="M252.177 173.933C251.706 198.349 251.944 222.778 252.904 247.179C253.145 253.3 253.431 259.419 253.762 265.536C254.055 270.955 254.077 276.519 255.007 281.876C255.763 286.232 257.566 290.635 261.506 293.006C264.699 294.928 269.053 295.431 272.058 292.875C275.695 289.781 275.394 284.468 276.414 280.217C277.683 274.93 282.155 270.958 287.677 270.768C288.5 270.74 288.504 269.458 287.677 269.486C283.613 269.626 279.792 271.659 277.382 274.936C274.846 278.384 274.867 282.635 273.964 286.646C273.498 288.717 272.702 290.792 270.956 292.117C269.282 293.387 267.097 293.598 265.097 293.118C260.258 291.955 257.637 287.707 256.565 283.125C255.347 277.918 255.421 272.338 255.127 267.023C254.802 261.155 254.519 255.284 254.278 249.411C253.792 237.583 253.474 225.749 253.324 213.912C253.156 200.585 253.204 187.256 253.461 173.931C253.475 173.108 252.193 173.108 252.177 173.933Z" fill="#D4E2FF"/>
<path d="M291.078 266.362H279.142V278.297H291.078V266.362Z" fill="white"/>
<path d="M291.078 250.164H279.142V262.099H291.078V250.164Z" fill="#D4E2FF"/>
<path d="M291.078 283.413H279.142V295.348H291.078V283.413Z" fill="#D4E2FF"/>
<path d="M116.819 174.92V48.868C116.819 41.772 122.572 36.019 129.668 36.019H311.477C318.573 36.019 324.326 41.772 324.326 48.868V174.921C324.326 182.017 318.573 187.77 311.477 187.77H129.667C122.571 187.769 116.819 182.017 116.819 174.92Z" stroke="white" stroke-width="2" stroke-miterlimit="10"/>
<path d="M304.117 183.188H134.889C127.873 183.188 122.186 177.501 122.186 170.485V53.303C122.186 46.287 127.873 40.6 134.889 40.6H304.117C311.133 40.6 316.82 46.287 316.82 53.303V170.485C316.82 177.501 311.133 183.188 304.117 183.188Z" fill="#D4E2FF"/>
<path opacity="0.48" d="M181.665 40.077H239.961C251.162 51.623 297.299 163.475 312.323 178.115C310.123 181.205 306.733 183.188 302.928 183.188H256.007C242.405 172.034 183.742 42.37 181.665 40.077Z" fill="white" stroke="#FBF9F5" stroke-width="0.2776" stroke-miterlimit="10"/>
<path opacity="0.48" d="M198.512 182.751C196.758 180.788 195.007 178.821 193.259 176.851C179.231 161.036 127.266 40.6 130.798 40.6H156.652C156.652 40.72 225.022 183.448 224.653 183.188H198.798C198.731 183.038 198.637 182.891 198.512 182.751Z" fill="white" stroke="#FBF9F5" stroke-width="0.2776" stroke-miterlimit="10"/>
<path d="M122.186 169.751C122.186 177.172 127.562 183.189 134.194 183.189H306.032C312.664 183.189 318.04 177.173 318.04 169.751H122.186Z" fill="#18004C"/>
<path d="M139.082 51.4C139.082 49.691 137.697 48.306 135.988 48.306C134.279 48.306 132.894 49.691 132.894 51.4C132.894 53.109 134.279 54.494 135.988 54.494C137.697 54.494 139.082 53.109 139.082 51.4Z" fill="#3041B0"/>
<path d="M149.913 51.4C149.913 49.691 148.528 48.306 146.819 48.306C145.11 48.306 143.725 49.691 143.725 51.4C143.725 53.109 145.11 54.494 146.819 54.494C148.528 54.494 149.913 53.109 149.913 51.4Z" fill="white"/>
<path d="M160.743 51.4C160.743 49.691 159.358 48.306 157.649 48.306C155.94 48.306 154.555 49.691 154.555 51.4C154.555 53.109 155.94 54.494 157.649 54.494C159.357 54.494 160.743 53.109 160.743 51.4Z" fill="#EE3A58"/>
<path d="M187.67 131.112C202.31 125.005 209.228 108.186 203.121 93.546C197.014 78.906 180.195 71.988 165.555 78.095C150.914 84.202 143.997 101.021 150.104 115.661C156.211 130.301 173.03 137.219 187.67 131.112Z" fill="white"/>
<path d="M187.67 131.112C173.03 137.219 156.211 130.301 150.104 115.661C143.997 101.021 150.915 84.201 165.555 78.095L187.67 131.112Z" fill="#3041B0"/>
<path d="M187.833 131.179C202.473 125.072 209.391 108.253 203.284 93.613L176.66 104.719L187.833 131.179Z" fill="#18004C"/>
<path d="M176.804 105.064L208.992 91.637C205.3 82.786 198.37 76.27 190.151 72.89L176.804 105.064Z" fill="#EE3A58"/>
<g opacity="0.54">
<path d="M231.68 130.86H240.414V147.47H231.68" fill="#3041B0"/>
</g>
<path d="M254.448 115.221H245.713V147.47H254.448V115.221Z" fill="#3041B0"/>
<g opacity="0.54">
<path d="M267.335 111.958H259.03V147.47H267.335V111.958Z" fill="#3041B0"/>
</g>
<path d="M281.654 98.035H273.349V147.47H281.654V98.035Z" fill="#3041B0"/>
<path d="M228.518 123.991L244.413 108.24H259.448L273.768 87.047" stroke="#EE3A58" stroke-width="0.2452" stroke-miterlimit="10"/>
<path d="M274.181 88.734V86.888H272.336L274.181 88.734Z" fill="#EE3A58" stroke="#EE3A58" stroke-width="0.8659" stroke-miterlimit="10"/>
<path d="M229.378 123.562C229.378 123.167 229.058 122.846 228.662 122.846C228.267 122.846 227.946 123.166 227.946 123.562C227.946 123.958 228.266 124.278 228.662 124.278C229.057 124.278 229.378 123.957 229.378 123.562Z" fill="#EE3A58" stroke="#EE3A58" stroke-width="0.8659" stroke-miterlimit="10"/>
<path d="M225.551 147.503H294.655" stroke="#18293D" stroke-width="0.8659" stroke-miterlimit="10"/>
<g opacity="0.5">
<path d="M233.476 58.746H227.083V65.139H233.476V58.746Z" fill="#3041B0"/>
<path d="M233.476 71.532H227.083V77.925H233.476V71.532Z" fill="#3041B0"/>
</g>
<path d="M238.591 62.582H282.684" stroke="white" stroke-width="1.2817" stroke-miterlimit="10"/>
<path d="M238.591 76.008H282.684" stroke="white" stroke-width="1.2817" stroke-miterlimit="10"/>
<path d="M50.238 370.706C63.094 370.706 73.516 369.426 73.516 367.846C73.516 366.266 63.094 364.986 50.238 364.986C37.3819 364.986 26.96 366.266 26.96 367.846C26.96 369.426 37.3819 370.706 50.238 370.706Z" fill="#ABC6FF"/>
<path d="M113.753 370.706C126.609 370.706 137.031 369.426 137.031 367.846C137.031 366.266 126.609 364.986 113.753 364.986C100.897 364.986 90.475 366.266 90.475 367.846C90.475 369.426 100.897 370.706 113.753 370.706Z" fill="#ABC6FF"/>
<path d="M170.817 128.131C170.817 128.131 147.617 163.62 141.317 159.175C141.317 159.175 131.175 154.001 134.809 133.172C134.816 131.149 134.826 129.746 134.754 129.429C134.754 129.429 132.721 110.944 129.341 106.685C128.97 106.218 128.321 103.269 128.47 103.232C138.794 100.651 142.931 122.643 145.777 134.65C145.895 135.147 165.415 119.918 165.415 119.918C165.415 119.918 175.738 106.269 176.458 107.049C177.501 108.179 173.502 114.266 173.502 114.266C173.502 114.266 173.763 114.962 174.545 115.309C175.328 115.657 175.762 116.179 176.023 117.222C176.284 118.266 177.327 118.874 177.501 119.483C177.675 120.091 173.02 126.537 170.817 128.131Z" fill="#FEB28C"/>
<path d="M156.983 124.559C151.197 129.027 145.853 134.974 145.776 134.649C142.93 122.642 138.793 100.65 128.469 103.231C128.32 103.268 128.97 106.217 129.34 106.684C132.72 110.943 134.753 129.428 134.753 129.428C134.825 129.745 134.814 131.148 134.807 133.171C131.173 154.001 141.315 159.174 141.315 159.174C146.136 162.575 160.645 144.77 167.29 135.199C164.784 132.238 159.472 127.538 156.983 124.559Z" fill="#3041B0"/>
<path d="M165.762 119.83C165.762 119.83 167.849 113.917 168.718 114.091C169.587 114.265 173.413 115.917 173.326 117.395C173.239 118.873 169.935 117.656 169.935 117.656C169.935 117.656 170.544 120.96 168.892 121.395C167.241 121.83 165.762 119.83 165.762 119.83Z" fill="#FEB28C"/>
<path d="M170.892 117.396C170.892 117.396 170.805 118.874 172.022 119.135C172.022 119.135 172.283 120.7 173.848 120.352C173.848 120.352 173.413 121.047 174.37 121.222C174.37 121.222 170.284 125.656 170.892 117.396Z" fill="#F79988"/>
<path d="M170.116 114.513C170.95 114.784 171.758 115.124 172.563 115.475C172.974 115.657 173.349 115.799 173.772 116.093C173.969 116.244 174.187 116.433 174.294 116.764C174.409 117.099 174.254 117.502 174.037 117.698C173.174 118.39 172.192 118.406 171.315 118.365C171.096 118.344 170.843 118.328 170.836 118.346C170.808 118.253 170.831 118.565 170.86 118.767C170.887 119.205 170.936 119.639 170.943 120.08L170.904 120.087L170.657 118.805C170.648 118.601 170.487 118.364 170.664 118.155C170.868 118.006 171.106 118.075 171.316 118.06C172.166 118.059 173.104 117.986 173.76 117.42C173.913 117.278 173.992 117.063 173.932 116.865C173.875 116.666 173.719 116.506 173.553 116.375C173.212 116.116 172.797 115.954 172.419 115.744L170.099 114.548L170.116 114.513Z" fill="#EC7965"/>
<path d="M173.603 114.105C173.593 114.311 173.529 114.468 173.457 114.617C173.384 114.766 173.27 114.877 173.178 115.008C173.046 115.102 172.937 115.219 172.785 115.295C172.634 115.372 172.474 115.442 172.261 115.462L172.232 115.436C172.663 114.969 173.111 114.517 173.574 114.08L173.603 114.105Z" fill="#EC7965"/>
<path d="M175.369 116.299C175.176 116.736 174.902 117.119 174.602 117.478C174.301 117.837 173.944 118.141 173.59 118.448C173.196 118.713 172.838 118.982 172.38 119.186C172.144 119.279 171.877 119.356 171.597 119.319C171.334 119.266 171.065 119.118 170.983 118.874L171.015 118.851C171.308 119.222 171.867 119.151 172.234 118.92C172.623 118.69 172.992 118.417 173.351 118.139C174.074 117.587 174.743 116.962 175.341 116.274L175.369 116.299Z" fill="#EC7965"/>
<path d="M171.971 119.131C172.194 119.611 172.428 120.129 172.787 120.254C173.119 120.393 173.537 120.224 173.91 119.924C174.307 119.668 174.66 119.276 175.052 118.933C175.442 118.583 175.832 118.229 176.267 117.905L176.298 117.929C175.971 118.343 175.629 118.744 175.277 119.137C174.921 119.525 174.568 119.922 174.14 120.241C173.729 120.54 173.14 120.808 172.637 120.52C172.15 120.227 172.029 119.638 171.932 119.138L171.971 119.131Z" fill="#EC7965"/>
<path d="M173.781 120.092C173.89 120.4 174.054 120.675 174.204 120.929C174.281 121.052 174.384 121.163 174.455 121.214C174.465 121.237 174.586 121.253 174.716 121.255C174.97 121.229 175.207 121.237 175.547 121.133C175.913 121.106 176.095 121.117 176.442 120.948L176.471 120.974C176.278 121.244 175.949 121.384 175.64 121.452C175.341 121.555 175.016 121.663 174.684 121.625C174.525 121.604 174.345 121.583 174.22 121.454C174.103 121.332 174.027 121.185 173.961 121.036C173.838 120.736 173.745 120.421 173.741 120.091L173.781 120.092Z" fill="#EC7965"/>
<path d="M123.397 98.787L129.112 70.261C129.389 68.039 125.369 62.719 123.42 61.603C118.085 58.546 111.497 58.108 105.476 59.358C85.8519 63.435 93.7999 98.122 114.085 92.468" fill="#18004C"/>
<path d="M108.331 78.722C108.34 79.018 108.105 79.262 107.809 79.261C106.571 79.256 103.715 78.992 103.312 82.229C102.904 85.502 106.023 87.344 107.899 87.446C108.441 87.476 109.69 87.586 110.058 87.986C111.186 89.214 111.717 91.896 112.585 95.24C114.503 102.626 108.702 105.998 108.702 105.998C108.702 105.998 128.047 115.509 127.867 105.975C127.867 105.975 126.338 88.436 126.428 88.346C127.938 86.836 133.804 86.187 130.116 73.685C126.7 62.103 118.203 62.928 116.043 63.31C114.22 63.632 107.892 64.029 108.331 78.722Z" fill="#FEB28C"/>
<path d="M123.618 62.263C123.618 62.263 116.856 81.107 107.656 81.329C107.656 81.329 101.582 60.104 123.618 62.263Z" fill="#18004C"/>
<path d="M104.719 83.167C104.719 83.167 106.664 79.064 109.132 84.562L104.719 83.167Z" fill="#EC7965"/>
<path d="M119.086 78.736C120.691 78.7 122.021 79.972 122.057 81.576C122.093 83.181 120.821 84.511 119.217 84.547C117.612 84.583 116.282 83.311 116.246 81.707C116.209 80.102 117.481 78.772 119.086 78.736Z" fill="#F79988"/>
<path d="M131.196 79.821C129.866 79.58 128.843 78.43 128.812 77.026C128.788 75.943 129.358 74.986 130.225 74.466C130.225 74.466 131.466 77.682 131.196 79.821Z" fill="#F79988"/>
<path d="M128.75 78.323L124.319 80.53C124.319 80.53 126.487 82.107 127.658 81.244C128.829 80.381 128.75 78.323 128.75 78.323Z" fill="white"/>
<path d="M125.358 75.105L126.059 78.268L127.599 77.588C127.883 77.462 127.929 77.079 127.683 76.89L125.358 75.105Z" fill="#EC7965"/>
<path d="M119.672 73.919C119.288 74.456 119.51 72.582 120.142 72.151C120.774 71.72 121.588 71.813 121.96 72.358C121.96 72.358 120.595 72.629 119.672 73.919Z" fill="#1E274D"/>
<path d="M128.029 70.757C128.665 70.935 127.319 69.612 126.556 69.671C125.793 69.73 125.217 70.312 125.268 70.97C125.268 70.97 126.501 70.328 128.029 70.757Z" fill="#1E274D"/>
<path d="M122.228 76.246C122.442 76.776 122.823 77.121 123.08 77.017C123.337 76.913 123.372 76.4 123.158 75.87C122.944 75.34 122.563 74.995 122.306 75.099C122.049 75.203 122.014 75.716 122.228 76.246Z" fill="#1E274D"/>
<path d="M126.332 74.291C126.536 74.797 126.9 75.127 127.146 75.028C127.391 74.929 127.425 74.439 127.22 73.933C127.016 73.427 126.651 73.097 126.406 73.197C126.161 73.295 126.128 73.786 126.332 74.291Z" fill="#1E274D"/>
<path d="M126.428 88.345C126.428 88.345 120.905 89.4 118.117 89.22C115.329 89.041 127.055 95.295 126.428 88.345Z" fill="#EC7965"/>
<path d="M111.913 87.503C111.913 88.882 110.796 89.999 109.417 89.999C108.038 89.999 106.921 88.882 106.921 87.503C106.921 86.124 108.039 85.007 109.417 85.007C110.796 85.007 111.913 86.124 111.913 87.503Z" fill="#EE3A58"/>
<path d="M111.913 92.495C111.913 93.874 110.796 94.991 109.417 94.991C108.038 94.991 106.921 93.873 106.921 92.495C106.921 91.117 108.039 89.999 109.417 89.999C110.796 89.999 111.913 91.116 111.913 92.495Z" fill="#EE3A58"/>
<path d="M115.083 341.708L113.942 358.626C113.942 358.626 117.37 368.692 120.553 364.795C123.736 360.898 126.887 358.839 126.887 358.839L127.932 343.059L115.083 341.708Z" fill="#F5826B"/>
<path d="M120.136 344.016L120.686 364.66C120.686 364.66 110.612 366.173 114.355 359.43L114.417 340.378L120.136 344.016Z" fill="#FEB28C"/>
<path d="M77.0259 343.826L72.303 358.966C72.303 358.966 68.708 362.118 67.411 362.037C65.051 361.889 63.813 357.816 63.813 357.816L63.424 343.826H77.0259Z" fill="#F5826B"/>
<path d="M70.2219 339.78L66.9189 364.828C66.9189 364.828 60.1479 366.616 63.8909 359.874L63.0649 340.606L70.2219 339.78Z" fill="#FEB28C"/>
<path d="M127.937 358.761L140.649 369.064C141.299 369.547 140.835 370.36 139.905 370.368L121.141 370.52C120.689 370.524 120.284 370.318 120.133 370.009L118.718 367.108C118.309 366.27 117.495 366.202 117.569 367.09L116.876 369.891C116.913 370.332 112.427 370.212 112.388 369.81C112.142 367.319 112.661 359.174 113.107 356.906C113.171 356.581 113.504 356.321 113.948 356.257H113.95C114.348 356.199 114.755 356.31 114.999 356.546C116.265 357.771 120.315 361.459 122.474 360.712C123.92 360.212 125.794 359.316 126.379 358.8C126.773 358.451 127.503 358.438 127.937 358.761Z" fill="#EE3A58"/>
<path d="M63.6379 357.292L56.4199 369.382C55.6489 370.558 56.0779 371.961 57.4709 372.79C59.7279 374.133 61.5719 376.813 62.9919 376.853C65.5579 376.924 69.5469 374.222 71.8719 373.208C73.4319 372.528 74.6539 371.531 74.4609 370.226L72.6659 358.099C72.6439 357.949 72.3789 357.894 72.2489 358.012L69.4849 360.517C68.5789 361.338 66.1219 361.228 65.5119 360.245C65.0759 359.544 64.0549 357.282 64.0549 357.282C63.9629 357.161 63.7199 357.167 63.6379 357.292Z" fill="#EE3A58"/>
<path d="M103.278 154.487C98.7399 163.413 93.74 172.407 90.143 185.081C86.12 199.258 63.599 321.391 61.877 347.361C66.376 348.446 75.994 348.517 78.837 348.359C87.882 322.44 111.87 235.818 115.748 219.489C116.344 216.979 120.222 217.53 119.92 220.092C117.719 238.738 112.756 316.102 111.094 346.363C113.454 347.564 128.986 347.037 131.712 346.695C134.676 314.713 157.286 193.732 133.541 154.486C122.681 152.99 120.071 153.989 103.278 154.487Z" fill="#18004C"/>
<path d="M131.969 155.831C131.969 155.831 142.489 182.439 142.489 216.219C142.489 249.999 128.051 346.696 128.051 346.696" stroke="white" stroke-width="0.4233" stroke-miterlimit="10"/>
<path d="M65.5349 347.029L104.941 155.153" stroke="white" stroke-width="0.4233" stroke-miterlimit="10"/>
<path opacity="0.21" d="M134.456 156.088L87.9249 193.173C87.9249 193.173 93.0239 169.895 103.444 154.82L134.456 156.088Z" fill="#1E274D"/>
<path d="M127.72 102.237C128.551 103.203 140.401 123.137 140.024 130.655C139.645 138.229 133.968 154.678 134.371 155.817C134.371 155.817 134.704 157.646 102.78 155.706C101.657 142.99 97.8809 115.652 101.228 106.268C101.228 106.268 106.549 104.494 112.756 100.282C112.756 100.282 128.496 109.816 127.72 102.237Z" fill="#3041B0"/>
<path d="M103.443 106.59C100.807 109.045 99.0108 111.368 99.0108 111.368C95.6628 120.752 101.657 142.99 102.78 155.707C117.22 156.584 125.048 156.69 129.304 156.543C120.307 140.09 111.653 123.454 103.443 106.59Z" fill="#3041B0"/>
<path d="M150.432 162.314L119.169 201.013L94.106 180.766L113.161 160.651L113.067 159.472C112.966 158.199 113.357 156.936 114.159 155.943L121.113 147.334C123.463 144.425 127.727 143.972 130.637 146.322L150.432 162.314Z" fill="white"/>
<path d="M149.767 159.321L118.504 198.02L93.4419 177.773L112.497 157.658L112.403 156.479C112.302 155.206 112.693 153.943 113.495 152.95L120.449 144.341C122.799 141.432 127.063 140.978 129.973 143.329L149.767 159.321Z" fill="#EE3A58"/>
<path d="M98.345 146.396C103.609 153.198 123.944 172.086 125.401 173.057C127.876 174.705 131.411 175.554 133.21 175.956C133.608 176.045 134.558 176.414 135.526 177.642C135.839 178.039 136.28 178.291 136.642 178.601C137.44 179.283 137.077 180.594 136.049 180.806C134.947 180.051 132.455 178.292 132.955 178.739C135.759 181.248 139.066 184.753 137.795 185.589C137.169 186.001 132.522 190.537 127.99 188.767C127.123 188.428 106.544 178.003 82.659 158.315C80.052 156.166 78.868 152.737 79.568 149.431C82.528 135.456 97.679 101.171 106.325 106.492C114.436 111.482 98.345 146.396 98.345 146.396Z" fill="#FEB28C"/>
<path d="M120.306 168.522C113.538 162.263 102.103 151.251 98.345 146.395C98.345 146.395 117.356 113.564 106.326 106.49C96.128 99.95 81.463 135.191 78.503 149.166C77.803 152.471 79.554 156.661 82.161 158.81C93.648 168.279 104.289 176.331 112.422 181.423C114.868 177.537 117.877 172.418 120.306 168.522Z" fill="#3041B0"/>
<path d="M366.679 349.881C370.578 343.742 376.829 340.378 384.641 340.378H398.425C405.903 340.378 412.508 344.112 416.479 349.816L366.679 349.881Z" fill="#03163C"/>
<path d="M362.658 368.887V362.36C362.658 350.22 372.5 340.378 384.64 340.378H398.424C410.564 340.378 420.406 350.22 420.406 362.36V368.887" stroke="#0D004F" stroke-width="3.2973" stroke-miterlimit="10"/>
<path d="M367.09 366.746C369.945 363.891 369.945 359.263 367.09 356.408C364.236 353.554 359.607 353.554 356.753 356.408C353.898 359.263 353.898 363.891 356.753 366.746C359.607 369.601 364.236 369.601 367.09 366.746Z" fill="#03163C"/>
<path d="M361.927 365.083C363.863 365.083 365.433 363.513 365.433 361.577C365.433 359.641 363.863 358.071 361.927 358.071C359.991 358.071 358.421 359.641 358.421 361.577C358.421 363.513 359.991 365.083 361.927 365.083Z" fill="white"/>
<path d="M391.898 284.823V339.647" stroke="#03163C" stroke-width="7.6937" stroke-miterlimit="10"/>
<path d="M401.401 340.378H382.395C382.395 336.745 385.34 333.799 388.974 333.799H394.822C398.455 333.799 401.401 336.745 401.401 340.378Z" fill="#0D004F"/>
<path d="M420.814 368.781C424.799 368.136 427.507 364.382 426.861 360.397C426.216 356.412 422.463 353.705 418.478 354.35C414.493 354.995 411.785 358.749 412.43 362.734C413.075 366.719 416.829 369.426 420.814 368.781Z" fill="#03163C"/>
<path d="M423.548 361.577C423.548 359.64 421.978 358.071 420.042 358.071C418.105 358.071 416.535 359.641 416.535 361.577C416.535 363.514 418.105 365.084 420.042 365.084C421.978 365.083 423.548 363.513 423.548 361.577Z" fill="white"/>
<path d="M430.517 165.615L395.035 164.298L366.423 271.822L354.309 275.86C350.354 275.86 358.635 281.086 358.635 285.041L364.379 285.042L426.715 285.084C431.701 285.087 435.989 281.554 436.939 276.66L452.934 194.281C455.853 179.869 445.208 166.257 430.517 165.615Z" fill="#0D004F"/>
<path d="M428.93 277.537L365.334 275.344L377.792 177.745C378.937 169.839 385.865 164.073 393.848 164.382L425.672 165.616C440.363 166.257 451.008 179.869 448.09 194.282L428.93 277.537Z" fill="#C2D6FF"/>
<path d="M433.126 155.413L430.517 165.615" stroke="#0D004F" stroke-width="3.0112" stroke-miterlimit="10"/>
<path d="M410.095 155.413L407.486 165.615" stroke="#0D004F" stroke-width="3.0112" stroke-miterlimit="10"/>
<path d="M440.278 157.082H395.075L404.755 129.045H445.777C449.225 129.045 451.646 132.442 450.521 135.701L444.073 154.377C443.514 155.996 441.99 157.082 440.278 157.082Z" fill="#0D004F"/>
<path d="M435.271 156.748H390.068L399.748 128.71H440.77C444.218 128.71 446.639 132.107 445.514 135.366L439.066 154.042C438.507 155.662 436.983 156.748 435.271 156.748Z" fill="white" stroke="white" stroke-miterlimit="10"/>
<path d="M289.002 372.302C311.408 372.302 329.572 371.557 329.572 370.639C329.572 369.721 311.408 368.976 289.002 368.976C266.596 368.976 248.432 369.721 248.432 370.639C248.432 371.557 266.596 372.302 289.002 372.302Z" fill="#ABC6FF"/>
<path d="M298.048 354.782L302.969 343.038H319.596L317.684 355.283C312.773 360.911 305.801 365.731 300.641 360.33L298.048 354.782Z" fill="#FFAF99"/>
<path d="M318.181 353.368C318.181 353.368 320.57 371.289 318.603 371.442L272.206 371.818C272.206 371.818 275.444 363.589 284.37 361.956C295.986 359.831 298.314 353.596 298.314 353.596C298.314 353.596 301.556 357.587 302.846 358.795C305.951 361.705 310.892 361.355 313.761 358.212L318.181 353.368Z" fill="#CE3052"/>
<path d="M418.024 245.147V245.15C418.024 263.361 403.401 278.124 385.362 278.124H349.798C347.721 278.124 346.531 280.521 343.871 285.842C343.871 285.842 319.678 349.108 319.263 349.108C319.263 349.108 298.438 349.434 298.337 349.203L313.185 267.392C313.558 265.339 314.177 263.329 315.077 261.446C321.321 248.377 331.84 247.068 340.213 246.91L418.024 245.147Z" fill="#18004C"/>
<path d="M397.379 246.096C397.379 246.096 400.594 266.026 381.949 265.384C371.586 265.027 360.005 264.609 347.197 264.892C338.095 265.093 332.898 271.543 329.01 283.261L308.456 349.274" stroke="white" stroke-width="0.3922" stroke-miterlimit="10"/>
<path d="M338.507 354.782L339.436 342.81L357.561 344.445L358.143 355.284L348.997 365.764L338.507 354.782Z" fill="#FFAF99"/>
<path d="M358.64 353.368C358.64 353.368 361.029 371.289 359.062 371.442L312.665 371.818C312.665 371.818 315.884 363.479 324.829 361.956C338.333 359.657 337.218 353.41 337.218 353.41L344.145 359.54C346.865 361.947 351.013 361.725 353.461 359.043L358.64 353.368Z" fill="#EE3A58"/>
<path d="M433.543 245.147V245.15C433.543 263.361 418.92 278.124 400.881 278.124H365.317C363.24 278.124 361.728 280.111 362.261 282.137L359.378 348.087C359.485 348.492 359.182 348.89 358.767 348.89H346.401C346.151 348.89 338.897 349.434 338.796 349.204L329.16 264.874C328.907 252.921 332.565 248.266 340.475 246.91L433.543 245.147Z" fill="#3041B0"/>
<path d="M412.897 246.096C412.897 246.096 416.112 266.026 397.467 265.384C387.104 265.027 370.386 265.265 357.579 265.548C348.477 265.749 342.027 274.508 344.529 283.261L349.189 348.372" stroke="white" stroke-width="0.3922" stroke-miterlimit="10"/>
<path d="M310.245 175.664L300.518 160.602L308.075 152.676C308.075 152.676 304.573 142.723 304.942 141.064C305.746 137.447 323.041 166.467 323.041 166.467L335.642 178.984L320.543 193.675L310.245 175.664Z" fill="#FFAF99"/>
<path d="M315.609 155.268C314.308 155.903 313.008 156.538 311.707 157.173C311.22 157.411 310.66 157.633 310.342 158.098C310.028 158.556 310.058 159.136 310.348 159.599C310.658 160.094 311.196 160.353 311.742 160.504C312.395 160.684 313.076 160.788 313.747 160.878C315.167 161.068 316.598 161.106 318.026 160.993C318.556 160.951 318.56 160.119 318.026 160.162C316.837 160.256 315.644 160.25 314.457 160.131C313.853 160.071 313.254 159.979 312.659 159.86C312.184 159.765 311.583 159.691 311.212 159.349C310.259 158.47 312.219 157.848 312.777 157.575C313.861 157.046 314.945 156.517 316.028 155.987C316.509 155.751 316.088 155.034 315.609 155.268Z" fill="#EA6F46"/>
<path d="M307.952 153.216C308.974 154.563 309.862 156.005 310.605 157.524C310.704 157.726 310.99 157.781 311.174 157.673C311.38 157.553 311.422 157.307 311.323 157.104C310.58 155.585 309.692 154.143 308.67 152.796C308.535 152.617 308.312 152.524 308.101 152.647C307.925 152.75 307.815 153.036 307.952 153.216Z" fill="#EA6F46"/>
<path d="M311.439 160.38C311.495 160.633 311.291 160.85 311.082 160.962C310.812 161.106 310.524 161.08 310.246 160.97C309.591 160.712 309.064 160.097 308.597 159.593C307.589 158.504 306.764 157.263 306.123 155.925C305.892 155.443 305.175 155.864 305.405 156.345C306.208 158.021 307.313 159.563 308.661 160.844C309.281 161.433 310.098 162.046 311.009 161.864C311.797 161.706 312.421 160.976 312.24 160.159C312.125 159.637 311.323 159.858 311.439 160.38Z" fill="#EA6F46"/>
<path d="M309.694 161.414C309.573 162.258 309.318 163.215 308.793 163.906C308.282 164.579 307.137 163.428 306.763 163.027C306.165 162.384 305.682 161.639 305.177 160.924C304.584 160.084 303.991 159.244 303.398 158.404C303.092 157.97 302.371 158.385 302.68 158.824C303.392 159.832 304.103 160.84 304.815 161.848C305.389 162.66 305.96 163.513 306.737 164.147C307.432 164.714 308.542 165.383 309.314 164.576C309.652 164.223 309.863 163.728 310.047 163.283C310.266 162.753 310.413 162.203 310.495 161.636C310.57 161.111 309.769 160.885 309.694 161.414Z" fill="#EA6F46"/>
<path d="M306.593 163.788C306.493 164.463 306.032 165.066 305.363 165.259C304.682 165.456 303.953 165.186 303.509 164.64C303.367 164.466 303.068 164.493 302.921 164.64C302.749 164.812 302.779 165.053 302.921 165.228C303.541 165.991 304.639 166.334 305.584 166.061C306.507 165.794 307.253 164.963 307.395 164.009C307.428 163.787 307.34 163.562 307.105 163.498C306.908 163.444 306.626 163.565 306.593 163.788Z" fill="#EA6F46"/>
<path d="M369.026 243.642C369.026 243.642 381.111 160.331 384.195 155.144C384.195 155.144 377.045 151.359 367.512 171.406C357.979 191.453 356.629 197.257 356.629 197.257L335.641 175.719L318.502 193.674L356.629 243.242L367.825 244.442" fill="#EE3A58"/>
<path d="M416.214 149.8C416.214 149.8 438.676 156.959 441.509 178.984C444.342 201.008 431.436 257.509 431.436 257.509C431.436 257.509 417.707 251.685 412.041 250.131C403.667 247.833 397.4 247.709 391.428 247.604L366.72 247.172L375.465 172.48C376.774 166.86 377.472 158.784 382.589 155.561L391.229 150.335L408.335 145.941L416.214 149.8Z" fill="#EE3A58"/>
<path d="M365.964 242.881C372.481 229.847 423.929 158.623 423.037 152.978C429.894 156.926 439.7 164.921 441.509 178.983C444.343 201.007 431.436 257.508 431.436 257.508C431.436 257.508 417.707 251.684 412.041 250.129C403.667 247.831 397.4 247.707 391.428 247.602L363.392 247.381C362.75 246.739 365.643 243.524 365.964 242.881Z" fill="#E87285"/>
<path d="M392.365 225.505L372.369 231.218C372.369 231.218 353.189 236.931 347.885 245.909L393.589 244.685L392.365 225.505Z" fill="#FFAF99"/>
<path d="M414.809 151.235C419.895 148.011 439.291 158.789 443.497 179.537C447.765 201.783 440.22 245.988 432.947 248.651C425.674 251.315 394.405 247.948 394.405 247.948C394.405 247.948 392.921 228.267 391.957 222.239L416.85 221.423C416.85 221.423 411.193 191.015 414.809 151.235Z" fill="#EE3A58"/>
<path d="M405.681 129.546L408.96 145.113L402.975 151.914C393.66 161.965 392.365 155.315 390.619 154.471L391.819 136.21L400.499 132.746L405.681 129.546Z" fill="#FFAF99"/>
<path d="M400.499 132.747L391.819 137.544C391.819 137.544 390.886 145.941 393.419 146.208C395.538 146.431 402.836 139.636 402.083 134.479" fill="#DE7454"/>
<path d="M405.746 131.643C405.746 131.643 406.913 125.189 405.446 126.995L401.551 112.513C401.551 112.513 399.111 115.313 396.725 116.962C394.34 118.611 388.753 117.685 387.278 117.036C385.803 116.387 386.104 109.762 386.104 109.762C386.104 109.762 376.46 104.441 383.444 97.292C389.929 92.47 406.221 102.806 406.221 102.806C406.221 102.806 411.858 101.386 412.292 108.516C412.292 108.516 417.779 107.186 409.216 127.138" fill="#18004C"/>
<path d="M385.931 109.418C383.022 131.279 383.832 137.772 385.877 139.466C388.82 141.904 394.159 140.432 396.757 139.444C401.02 137.823 404.03 133.296 404.965 131.951C405.427 131.287 410.802 132.397 410.076 127.286C409.541 123.52 407.538 124.724 406.52 125.618C406.223 125.879 405.757 125.753 405.63 125.379C404.876 123.152 403.416 114.217 401.621 112.054C397.189 106.712 393.586 111.756 390.538 112.255C386.135 112.975 387.267 110.472 386.135 109.579L385.931 109.418Z" fill="#FFAF99"/>
<path d="M384.569 128.015C384.569 128.015 386.212 128.906 390.333 128.708C390.333 128.708 387.997 131.534 386.405 130.897C384.813 130.261 384.569 128.015 384.569 128.015Z" fill="white"/>
<path d="M409.281 126.873L406.33 128.853C406.33 128.853 407.619 123.806 409.281 126.873Z" fill="#EA6F46"/>
<path d="M388.93 123.155C388.903 123.765 389.129 124.27 389.434 124.284C389.739 124.297 390.008 123.814 390.035 123.204C390.062 122.594 389.836 122.089 389.531 122.075C389.225 122.061 388.957 122.545 388.93 123.155Z" fill="#001C39"/>
<path d="M385.359 122.457C385.332 123.067 385.558 123.572 385.863 123.586C386.168 123.599 386.437 123.116 386.463 122.506C386.49 121.896 386.264 121.391 385.959 121.377C385.654 121.363 385.386 121.847 385.359 122.457Z" fill="#001C39"/>
<path d="M394.278 119.7C395.072 120.294 393.902 117.712 392.802 117.382C391.702 117.052 390.579 117.555 390.294 118.505C390.294 118.505 392.371 118.272 394.278 119.7Z" fill="#001C39"/>
<path d="M384.878 117.971C386.057 117.873 386.891 118.113 386.891 118.113C386.778 117.197 385.942 116.522 384.924 116.452" fill="#001C39"/>
<path d="M387.052 122.499L385.163 127.104C385.132 127.179 385.178 127.264 385.254 127.273L387.235 127.507C387.304 127.515 387.363 127.457 387.362 127.383L387.27 122.543C387.267 122.414 387.101 122.379 387.052 122.499Z" fill="#EA6F46"/>
<path d="M510.593 354.008C514.564 347.756 520.93 344.33 528.885 344.33H542.923C550.538 344.33 557.266 348.132 561.31 353.942L510.593 354.008Z" fill="#03163C"/>
<path d="M506.499 373.364V366.717C506.499 354.353 516.522 344.33 528.886 344.33H542.924C555.288 344.33 565.311 354.353 565.311 366.717V373.364" stroke="#0D004F" stroke-width="3.358" stroke-miterlimit="10"/>
<path d="M511.012 371.184C513.919 368.277 513.919 363.563 511.012 360.656C508.104 357.748 503.39 357.748 500.483 360.656C497.575 363.563 497.575 368.277 500.483 371.184C503.39 374.092 508.104 374.092 511.012 371.184Z" fill="#03163C"/>
<path d="M509.325 365.919C509.325 363.947 507.726 362.348 505.754 362.348C503.782 362.348 502.183 363.947 502.183 365.919C502.183 367.891 503.782 369.49 505.754 369.49C507.727 369.49 509.325 367.891 509.325 365.919Z" fill="white"/>
<path d="M536.277 287.751V343.586" stroke="#03163C" stroke-width="7.8354" stroke-miterlimit="10"/>
<path d="M545.955 344.33H526.599C526.599 340.63 529.599 337.63 533.299 337.63H539.255C542.955 337.63 545.955 340.63 545.955 344.33Z" fill="#0D004F"/>
<path d="M569.823 371.185C572.731 368.278 572.731 363.564 569.823 360.656C566.916 357.749 562.202 357.749 559.295 360.656C556.387 363.564 556.387 368.278 559.295 371.185C562.202 374.092 566.916 374.092 569.823 371.185Z" fill="#03163C"/>
<path d="M568.51 365.919C568.51 363.947 566.911 362.348 564.939 362.348C562.967 362.348 561.368 363.947 561.368 365.919C561.368 367.891 562.967 369.49 564.939 369.49C566.911 369.49 568.51 367.891 568.51 365.919Z" fill="white"/>
<path d="M575.607 166.349L539.471 165.008L510.333 274.512L497.996 278.624C493.968 278.624 502.402 283.946 502.402 287.974L508.251 287.975L571.735 288.018C576.813 288.022 581.18 284.423 582.147 279.439L598.437 195.543C601.41 180.865 590.569 167.002 575.607 166.349Z" fill="#0D004F"/>
<path d="M573.991 280.332L509.223 278.099L521.91 178.702C523.076 170.65 530.132 164.778 538.261 165.093L570.671 166.35C585.633 167.003 596.474 180.866 593.502 195.544L573.991 280.332Z" fill="#C2D6FF"/>
<path d="M578.264 155.959L575.607 166.349" stroke="#0D004F" stroke-width="3.0666" stroke-miterlimit="10"/>
<path d="M554.809 155.959L552.152 166.349" stroke="#0D004F" stroke-width="3.0666" stroke-miterlimit="10"/>
<path d="M585.548 157.658H539.513L549.371 129.104H591.149C594.661 129.104 597.126 132.564 595.98 135.883L589.413 154.903C588.843 156.552 587.291 157.658 585.548 157.658Z" fill="#0D004F"/>
<path d="M580.449 157.318H534.414L544.272 128.764H586.05C589.562 128.764 592.027 132.224 590.881 135.543L584.314 154.563C583.745 156.212 582.193 157.318 580.449 157.318Z" fill="white" stroke="white" stroke-miterlimit="10"/>
<path d="M515.795 380.283C515.795 379.137 479.945 378.288 462.123 378.288C444.301 378.288 429.853 379.217 429.853 380.364C429.853 381.511 444.301 382.44 462.123 382.44C479.945 382.439 515.795 381.429 515.795 380.283Z" fill="#ABC6FF"/>
<path d="M474.893 339.027C473.452 356.315 478.143 364.52 476.555 368.755C474.967 372.99 447.462 377.968 449.349 377.123C454.449 374.839 463.101 366.184 463.101 366.184C463.101 366.184 463.101 357.049 461.446 344.241L474.893 339.027Z" fill="#A64B3D"/>
<path d="M461.173 356.04L486.754 354.344L482.539 277.164C482.539 277.164 542.054 281.373 545.099 266.825C548.144 252.277 544.597 229.533 544.597 229.533H518.253L516.342 237.22C516.342 237.22 462.16 236.203 458.439 245.677C454.715 255.151 452.323 282.977 461.173 356.04Z" fill="#CE3052"/>
<path d="M530.74 231.294C530.74 232.46 543.179 251.897 529.185 255.395C515.191 258.894 472.43 252.674 469.709 260.837C466.988 269 471.012 355.231 471.012 355.231" stroke="white" stroke-width="0.3922" stroke-miterlimit="10"/>
<path d="M540.423 231.105C540.423 231.105 494.951 243.687 478.42 255.192C461.889 266.697 497.173 364.321 497.173 364.321C497.173 364.321 491.631 370.528 484.361 376.896C482.806 378.258 501.253 373.558 505.589 372.269C509.277 371.173 510.889 372.342 507.822 360.606C503.472 343.956 499.974 269.622 499.253 267.835C498.532 266.048 558.505 279.268 557.835 262.835C557.165 246.402 540.423 231.105 540.423 231.105Z" fill="#A64B3D"/>
<path d="M554.475 224.594C554.475 224.594 568.619 251.95 564.172 266.28C557.495 287.791 500.935 280.614 500.935 280.614L520.673 347.25L491.908 356.04C491.908 356.04 459.245 264.869 468.156 251.508C475.198 240.949 504.697 240.624 508.435 239.449C513.782 237.769 514.414 223.519 514.414 223.519L554.475 224.594Z" fill="#EE3A58"/>
<path d="M540.07 225.852C540.459 227.018 554.842 255.007 538.904 259.283C522.966 263.559 485.648 257.339 483.316 265.503C480.984 273.666 500.721 353.237 500.721 353.237" stroke="white" stroke-width="0.3922" stroke-miterlimit="10"/>
<path d="M489.635 371.859C489.635 371.859 488.748 377.401 494.734 374.076C500.72 370.751 508.701 362.105 508.701 362.105L511.718 375.87C511.984 377.084 511.017 378.216 509.776 378.143C508.996 378.097 508.326 377.572 508.095 376.825L506.752 372.483L506.024 375.331C505.495 377.399 503.8 378.963 501.696 379.325L483.207 382.5C480.161 383.109 478.326 379.242 480.723 377.267L489.635 371.859Z" fill="white"/>
<path d="M457.537 371.22C457.537 371.22 456.27 376.688 462.471 373.783C468.672 370.878 477.23 362.803 477.23 362.803L479.291 376.743C479.473 377.972 478.43 379.035 477.197 378.877C476.422 378.777 475.79 378.207 475.611 377.447L474.57 373.023L473.647 375.814C472.977 377.841 471.178 379.284 469.054 379.5L450.39 381.392C447.31 381.79 445.745 377.805 448.273 376L457.537 371.22Z" fill="white"/>
<path d="M560.359 141.301C561.708 136.683 561.781 133.696 560.949 126.908C560.116 120.12 554.534 119.758 554.534 119.758C548.331 117.955 535.486 112.944 530.345 121.574C529.076 123.705 524.691 131.82 528.385 135.664C528.385 135.664 530.733 149.722 541.494 156.019C545.507 158.368 558.319 148.286 560.359 141.301Z" fill="#000307" stroke="#000307" stroke-width="0.7001" stroke-miterlimit="10"/>
<path d="M538.009 150.335C538.402 146.795 535.851 143.608 532.312 143.215C528.772 142.822 525.585 145.373 525.192 148.912C524.799 152.452 527.35 155.64 530.889 156.032C534.428 156.425 537.616 153.875 538.009 150.335Z" stroke="#EE3A58" stroke-miterlimit="10"/>
<path d="M552.779 137.348C552.876 137.661 552.865 138.64 553.154 138.517C554.363 138 557.228 136.859 558.783 140.077C560.355 143.33 555.375 147.964 552.964 145.635C551.894 149.141 549.381 150.782 549.165 151.351C548.501 153.1 550.777 167.114 550.602 171.168C550.377 176.378 540.56 186.28 540.56 186.28C540.56 186.28 531.535 186.198 532.616 179.525C532.616 179.525 536.538 155.848 535.341 155.482C530.243 154.78 525.973 150.147 527.922 137.952C529.343 129.063 529.244 134.503 535.54 125.449C541.229 127.174 532.231 137.731 552.779 137.348Z" fill="#A64B3D"/>
<path d="M535.275 155.489C535.275 155.489 541.027 155.02 542.626 153.743C542.626 153.743 536.051 160.821 535.275 155.489Z" fill="#000307"/>
<path d="M550.878 177.932L539.94 172.906C535.396 170.818 530.039 171.695 526.398 175.122L506.576 193.778C505.779 186.471 504.124 176.01 500.78 159.345L501.867 146.769C501.867 146.769 501.109 144.548 499.474 147.164C497.839 149.78 497.839 150.598 497.839 150.598C497.839 150.598 493.943 147.631 490.873 143.731C489.493 141.979 488.059 138.286 487.603 137.627C486.132 135.501 486.132 137.3 486.132 138.117C486.132 138.934 486.296 140.243 486.296 140.243C486.296 140.243 484.334 136.319 483.843 137.3C483.733 137.519 483.846 138.047 484.076 138.721C483.559 137.916 483.085 137.412 482.763 137.573C481.989 137.96 483.897 144.822 486.296 147.111C486.755 147.549 486.441 147.91 485.86 147.656C484.116 146.893 481.08 141.977 480.41 142.424C479.547 142.999 484.821 152.699 485.424 153.542C487.059 155.831 491.023 162.969 491.023 162.969C491.023 162.969 486.139 217.197 497.009 225.32C502.518 229.437 505 227.446 506.136 223.632C519.774 213.134 549.997 178.812 550.878 177.932Z" fill="#A64B3D"/>
<path d="M539.905 185.58C539.38 185.465 538.923 185.288 538.52 185.07C532.31 183.796 526.099 182.522 519.889 181.248L506.576 193.778C505.858 187.197 505.709 177.89 502.992 163.965C498.976 168.107 493.876 172.566 490.17 176.987C489.512 193.642 489.71 219.866 497.006 225.319C502.515 229.436 505.486 229.476 509.476 225.652C519.003 218.32 533.266 197.357 543.324 186.293C542.184 186.06 541.043 185.829 539.905 185.58Z" fill="#3041B0"/>
<path d="M539.905 185.58C539.38 185.465 538.923 185.288 538.52 185.07C534.657 184.277 530.793 183.485 526.929 182.692C515.824 196.082 506.263 210.609 496.99 225.305C496.996 225.309 497.001 225.315 497.006 225.319C502.515 229.436 505.486 229.476 509.476 225.652C519.003 218.32 533.266 197.357 543.324 186.293C542.184 186.06 541.043 185.829 539.905 185.58Z" fill="#18004C"/>
<path d="M496.979 150.245C495.23 151.282 494.084 153.155 493.931 155.179C493.895 155.652 494.633 155.65 494.668 155.179C494.801 153.418 495.835 151.78 497.35 150.882C497.759 150.64 497.389 150.002 496.979 150.245Z" fill="#611212"/>
<path d="M486.206 140C486.843 142.387 488.38 144.475 490.461 145.804C490.862 146.06 491.232 145.422 490.833 145.167C488.912 143.94 487.505 142.004 486.917 139.804C486.795 139.345 486.083 139.54 486.206 140Z" fill="#611212"/>
<path d="M483.669 138.915C484.25 140.447 484.925 141.942 485.703 143.384C486.361 144.603 487.059 145.93 488.292 146.656C488.702 146.897 489.074 146.26 488.664 146.019C487.513 145.342 486.88 144.023 486.272 142.887C485.552 141.54 484.921 140.147 484.379 138.719C484.214 138.279 483.501 138.47 483.669 138.915Z" fill="#611212"/>
<path d="M488.341 147.111C489.247 146.489 490.238 146.013 491.292 145.703C491.746 145.569 491.553 144.857 491.096 144.992C489.984 145.32 488.924 145.819 487.969 146.475C487.805 146.588 487.731 146.799 487.837 146.98C487.932 147.142 488.176 147.225 488.341 147.111Z" fill="#611212"/>
<path d="M567.364 176.651C567.364 176.651 558.515 171.579 553.257 169.489C553.087 166.43 547.387 174.939 540.403 173.941C536.757 173.42 536.964 173.733 535.997 170.832C535.997 170.832 516.416 189.593 514.688 198.209C513.055 206.349 509.156 236.797 509.156 239.991L564.566 238.782C564.566 238.782 570.973 187.607 567.364 176.651Z" fill="#3041B0"/>
<path d="M567.364 176.651L509.985 234.103L559.94 234.559C559.94 234.559 568.389 190.352 567.364 176.651Z" fill="#18004C"/>
<path d="M496.807 239.401C496.807 239.401 538.277 240.096 557.618 239.774C576.959 239.452 575.097 219.435 574.748 211.826C574.37 203.571 576.424 181.51 568.704 177.141C567.443 176.427 568.115 176.629 566.208 175.892L566.236 175.801C563.883 174.997 555.7 170.617 555.7 170.617C555.591 174.249 557.529 186.247 557.618 193.122C557.646 203.028 553.648 220.419 552.159 221.908C546.246 227.821 529.742 229.04 519.695 229.204C519.695 229.204 509.053 223.536 508.146 223.99C507.24 224.443 514.256 229.431 514.256 229.431C514.256 229.431 497.486 223.539 496.127 225.352C494.767 227.165 507.231 230.564 506.098 231.471C504.965 232.377 495.22 227.618 494.087 229.658C492.954 231.698 505.191 235.097 505.191 235.097C505.191 235.097 494.313 232.378 493.86 234.417C493.407 236.457 504.722 238.346 504.722 238.346C504.722 238.346 497.26 235.775 496.807 239.401Z" fill="#A64B3D"/>
<path d="M574.748 211.826C574.487 206.136 575.382 193.886 573.434 185.392C568.126 187.446 562.856 189.598 557.578 191.733C557.598 192.214 557.612 192.679 557.618 193.121C557.646 203.027 553.648 220.418 552.159 221.907C548.28 225.786 539.842 227.645 531.66 228.511C532.121 230.703 532.649 232.826 532.971 234.655C533.276 236.382 533.613 238.102 533.938 239.825C542.713 239.876 551.333 239.879 557.617 239.774C576.959 239.451 575.097 219.435 574.748 211.826Z" fill="#3041B0"/>
<path d="M553.507 142.086C555.704 137.181 557.393 141.166 557.393 141.166L553.507 142.086Z" fill="#611212"/>
<path d="M540.342 143.186C538.725 143.531 537.693 145.121 538.038 146.739C538.383 148.357 539.973 149.388 541.591 149.044C543.208 148.699 544.24 147.109 543.895 145.491C543.55 143.873 541.96 142.842 540.342 143.186Z" fill="#BD5353"/>
<path d="M528.491 149.414C529.767 148.857 530.52 147.462 530.218 146.047C529.986 144.956 528.572 144.168 527.58 143.853C527.58 143.853 527.482 147.373 528.491 149.414Z" fill="#BD5353"/>
<path d="M529.368 146.524L534.467 146.516C534.467 146.516 533.196 148.968 531.72 148.712C530.243 148.457 529.368 146.524 529.368 146.524Z" fill="white"/>
<path d="M532.597 139.725L532.884 145.418L531.15 145.383C530.83 145.377 532.597 139.725 532.597 139.725Z" fill="#611212"/>
<path d="M537.757 137.694C538.336 138.052 537.38 136.359 536.608 136.2C535.836 136.041 534.714 136.151 534.752 136.799C534.793 137.511 536.367 136.834 537.757 137.694Z" fill="black"/>
<path d="M528.35 138.94C527.816 139.362 528.571 137.57 529.319 137.323C530.067 137.076 531.131 137.133 531.059 138.046C531.004 138.757 529.632 137.925 528.35 138.94Z" fill="black"/>
<path d="M535.598 141.974C535.605 142.562 535.38 143.042 535.094 143.046C534.808 143.05 534.572 142.575 534.565 141.987C534.558 141.399 534.783 140.919 535.069 140.915C535.354 140.912 535.591 141.386 535.598 141.974Z" fill="black"/>
<path d="M530.639 141.831C530.646 142.393 530.431 142.851 530.158 142.854C529.885 142.857 529.659 142.404 529.652 141.842C529.645 141.28 529.861 140.822 530.133 140.819C530.406 140.816 530.632 141.269 530.639 141.831Z" fill="black"/>
<path d="M550.047 121.898C548.833 120.606 543.396 118.573 546.045 109.997C546.407 108.826 546.503 107.534 547.258 106.57C548.346 105.18 550.303 104.674 552.041 104.982C553.779 105.29 555.32 106.296 556.636 107.472C558.621 109.245 560.243 111.531 560.777 114.138C561.312 116.745 560.615 119.682 558.63 121.455C556.645 123.228 553.334 123.498 551.333 121.744" fill="#000307"/>
<path d="M556.169 157.189C559.73 157.189 562.617 154.302 562.617 150.741C562.617 147.18 559.73 144.293 556.169 144.293C552.608 144.293 549.721 147.18 549.721 150.741C549.721 154.302 552.608 157.189 556.169 157.189Z" stroke="#EE3A58" stroke-miterlimit="10"/>
<path d="M338.869 244.787H384.15V239.477H338.869V244.787Z" fill="#000307"/>
<path d="M384.15 239.477H354.563L356.89 244.787H384.15V239.477Z" fill="#3041B0"/>
<path d="M282.267 244.787H353.635L336.408 195.568H265.041L282.267 244.787Z" fill="#3041B0"/>
<path d="M305.139 221.561C305.139 219.086 307.145 217.08 309.62 217.08C312.095 217.08 314.101 219.086 314.101 221.561C314.101 224.036 312.095 226.042 309.62 226.042C307.145 226.042 305.139 224.036 305.139 221.561Z" fill="#000307"/>
<path d="M499.439 244.777H545.073V239.425H499.439V244.777Z" fill="#000307"/>
<path d="M545.073 239.426H515.255L517.601 244.777H545.073V239.426Z" fill="white" stroke="white" stroke-width="1.0184" stroke-miterlimit="10"/>
<path d="M442.397 244.777H514.32L496.959 195.175H425.036L442.397 244.777Z" fill="white"/>
<path d="M465.447 221.37C465.447 218.876 467.469 216.854 469.963 216.854C472.457 216.854 474.479 218.876 474.479 221.37C474.479 223.864 472.457 225.886 469.963 225.886C467.468 225.886 465.447 223.864 465.447 221.37Z" fill="#000307"/>
<path d="M211.068 381.613C218.348 381.613 224.25 380.945 224.25 380.121C224.25 379.297 218.348 378.629 211.068 378.629C203.788 378.629 197.886 379.297 197.886 380.121C197.886 380.945 203.788 381.613 211.068 381.613Z" fill="#ABC6FF"/>
<path d="M593.49 381.613C600.77 381.613 606.672 380.945 606.672 380.121C606.672 379.297 600.77 378.629 593.49 378.629C586.21 378.629 580.308 379.297 580.308 380.121C580.308 380.945 586.21 381.613 593.49 381.613Z" fill="#ABC6FF"/>
<path d="M219.602 380.948C217.803 380.948 216.327 379.477 216.26 377.617L230.02 260.568H245.107L222.944 377.617C222.877 379.476 221.4 380.948 219.602 380.948Z" fill="white"/>
<path d="M234.959 268.771C237.616 266.086 240.315 263.266 243.117 260.568H230.019L228.232 275.773C230.449 273.412 232.683 271.07 234.959 268.771Z" fill="#18004C"/>
<path d="M601.574 380.948C603.373 380.948 604.849 379.477 604.916 377.617L591.156 260.568H576.069L598.232 377.617C598.299 379.476 599.775 380.948 601.574 380.948Z" fill="white"/>
<path d="M592.886 275.283L591.156 260.568H576.707C582.283 265.272 587.66 270.194 592.886 275.283Z" fill="#18004C"/>
<path d="M605.121 262.193H218.964C216.23 262.193 214.013 259.976 214.013 257.242C214.013 254.508 216.229 252.291 218.964 252.291H605.121C607.855 252.291 610.072 254.508 610.072 257.242C610.072 259.977 607.855 262.193 605.121 262.193Z" fill="white"/>
<path d="M619.548 255.913H204.537C201.598 255.913 199.216 253.531 199.216 250.592C199.216 247.654 201.598 245.271 204.537 245.271H619.548C622.486 245.271 624.869 247.653 624.869 250.592C624.869 253.53 622.486 255.913 619.548 255.913Z" fill="#18004C"/>
</svg>
